<?xml version="1.0" encoding="utf-8"?>
<!-- Generator: Adobe Illustrator 22.0.1, SVG Export Plug-In . SVG Version: 6.00 Build 0)  -->
<svg version="1.1" id="_x35_f644dbb-ed48-47f1-be71-e68d3bfa52e7"
	 xmlns="http://www.w3.org/2000/svg" xmlns:xlink="http://www.w3.org/1999/xlink" x="0px" y="0px" viewBox="0 0 1007 889.1"
	 style="enable-background:new 0 0 1007 889.1;" xml:space="preserve">
<style type="text/css">
	.st0{fill:#29335C;enable-background:new    ;}
	.st1{fill:url(#SVGID_1_);}
	.st2{fill:#F8BDC5;}
	.st3{fill:#575988;}
	.st4{opacity:0.8;fill:#D3D0CB;enable-background:new    ;}
	.st5{fill:url(#SVGID_2_);}
	.st6{fill:#F3A712;}
	.st7{fill:#F0F5FA;}
	.st8{fill:#DEDFF7;}
	.st9{opacity:0.1;enable-background:new    ;}
	.st10{fill:#D3D0CB;enable-background:new    ;}
	.st11{fill:#008148;}
	.st12{fill:#D3D0CB;}
	.st13{fill:#DB2B39;}
</style>
<title>gdpr</title>
<path class="st0" d="M0.5,462.8c3,33.8,22.1,64.3,33.8,96.5c16.5,45.7,18.1,95.4,4.4,142c-2.8,9.6-6.2,19.2-6.2,29
	c0,33.8,38.5,56.3,73.5,71.2c89,37.8,181.8,65.8,276.8,83.6c31.1,5.9,69.9,8.4,89.5-13.7c9.4-10.6,11.7-24.4,18.7-36.3
	c17.7-30.3,60.7-42.1,99.3-48.8c46.5-8.1,93.5-13.5,140.7-16.2c47.5-2.7,101.4-5,132.9-36.2c20-19.8,25.8-47.2,26.6-73
	c2.6-84.7-37.9-176.4,14.1-249.8c21.8-30.8,57.4-53.3,79-84.1c31.3-44.7,28.6-101.5,7.4-149.2s-58.8-88.2-95.8-127.9
	C883,36.6,869.9,23,851.5,16.9c-19.1-6.3-40.8-3.4-61.3-0.4C696.9,30.1,600,44.9,521.8,91.7c-38.9,23.2-71.3,53.4-106,81.1
	c-74.9,59.9-161.6,115.2-260.5,138.8C74.9,330.8-6.8,382.6,0.5,462.8z"/>
<linearGradient id="SVGID_1_" gradientUnits="userSpaceOnUse" x1="436.8531" y1="60.3847" x2="436.8531" y2="621.11" gradientTransform="matrix(1 0 0 -1 -96.51 882.4598)">
	<stop  offset="0" style="stop-color:#808080;stop-opacity:0.25"/>
	<stop  offset="0.54" style="stop-color:#808080;stop-opacity:0.12"/>
	<stop  offset="1" style="stop-color:#808080;stop-opacity:0.1"/>
</linearGradient>
<path class="st1" d="M444.3,467.7c0.5-0.2,1-0.5,1.5-0.7c0,0-41.2-23.2-52.7-29.7c-4.1-2.5-8.1-5.3-11.8-8.3
	c14.3-5.2,34.4-14.5,45-28.4c0,0-3-2.5-6.8-6.1l4.1-4.8c0,0,21.6-17.4,6.8-26.5c-12.1-7.3-19.7,12.1-22.1,19.7l-0.9-1
	c0,0-23.3,35.5-54.6,17.9c-2-2.7-3.6-5.7-4.8-8.8c-2.4-5.9-6.1-11.2-11-15.4l-3.2-12.3l-5.7-4.7c0-6.7,0.2-14.9,1-22
	c0-0.5,0.1-0.9,0.1-1.4c11-4.4,18.8-14.7,18.8-26.8c0-4.2-1-8.4-2.8-12.3c4.5-5.1,7.7-12,6.7-18c-0.8-4.6-4.7-7.7-9.5-9.8
	c-4.6-2.3-10.2-3.7-14.4-4.8c-7.7-2.1-16.1-3.1-23.6-0.4c-12.4,4.5-20.1,9.6-29.7,18.3c-7.6,6.9-16,18.8-25,24s-17.8,11.9-21.3,21.3
	c-4.9,13.3,1.8,27.5,4.9,41.3c3.4,15.5,2.1,31.7-3.8,46.4c-5.9,14.8-16.5,29.2-13.9,44.8c2,11.8,11.4,21,22.9,26.3
	c5.1,2.5,10.6,4.3,16.2,5.2c9.7,1.6,20.1,1.1,29-2.6c-3.8,10.8-9.2,20.9-16.2,30c-6.6,8.5-6,13.1-0.1,13.5c-0.2,0.8-0.4,1.6-0.6,2.5
	c-1.9,9.4-2.5,24.7,0.7,49.8c8.1,63.2-9.5,82.6-9.5,82.6s1.9,0.7,5.3,1.6c-0.1,0.4-0.3,0.8-0.4,1.2c-3.7,10.6-7.2,29.2-0.1,54
	c7.7,26.7,9.9,39,10.6,44.3v0.3c-0.8,0.3-3.6,1.6-5.6,5.8c-2.9,5.9-1.9,13,2.5,18v24.5h3.4v-20.7c3,3.5,5.5,7.4,7.6,11.5
	c3.9,7.8,11.5,13.2,20.1,14.3c8.7,1.2,18.3,1.6,22.3-1.3c0,0,3-5.7-11.4-12.5l-0.1-0.2c-4.7-6.9-12-18.8-13.1-28.2
	c-0.6-5.7-1.8-11.4-3.7-16.9l0,0c-1.4-4.1-2.3-8.4-2.6-12.8c-1-13.3-2.7-42.4-0.2-48.8c1.7-4.3,2.8-15.2,3.4-24.7
	c0-0.4,0-0.9,0.1-1.3c15,1.9,30.2,2,45.2,0.3v6.3c0,0-6.1,19.4,6.1,47.1c0,0,16.5,25.2,20.2,40.1c0.1,0.4,0.2,0.8,0.3,1.2
	c-2.2,0.3-12,2.5-8.3,23.2l-0.7,27.1h3.4l0.7-23.9c0,0,3.4-5.8,14.9,6.5c1.7,1.9,3.3,3.6,4.7,5.2c8.3,9.3,20.4,14.3,32.8,13.8
	c7.4-0.3,14.4-1,17.2-2.9c0,0,6.8-5.2-10.1-7.7l-7.8-2.3H414l-1.1-1.2c-5.9-6.7-14.5-18-16.7-29.5c-0.8-4-2-7.8-3.7-11.5l-6.3-14.2
	L371.4,676c0,0,0.8-3.3,1.5-7.4c0.1-0.5,0.2-0.9,0.2-1.4l2.3-0.9c0,0,13.5-9.7-6.8-68.4c0,0-7.9-32.7-11.9-58.8l9.8-1.9
	c0,0-1.5-23-4.5-39c2-7.5,3.1-14,1.9-17.2c-1-2.9-1.6-5.9-1.7-9c-0.4-6.9-1.1-13.8-2.2-20.7l12.7,9l64.2,31
	c-2.5-5.1-2.8-9.2-2.1-12.6c4.7,6.7,17.1,21.6,27.8,9.3C473.5,475.8,452.6,469.6,444.3,467.7z"/>
<path class="st2" d="M435.1,467.9c0,0,33.1,5.7,20.4,21s-28-12.1-28-12.1L435.1,467.9z"/>
<path class="st3" d="M325,369.2c0,0,16.5,7.6,22.3,23.5s31.8,39.5,42.6,45.8s49.6,29.3,49.6,29.3s-16.5,6.4-8.3,24.2l-60.5-30.5
	l-27.3-20.4L325,369.2z"/>
<path class="st4" d="M325,369.2c0,0,16.5,7.6,22.3,23.5s31.8,39.5,42.6,45.8s49.6,29.3,49.6,29.3s-16.5,6.4-8.3,24.2l-60.5-30.5
	l-27.3-20.4L325,369.2z"/>
<linearGradient id="SVGID_2_" gradientUnits="userSpaceOnUse" x1="779.0402" y1="551.1057" x2="779.0402" y2="1037.798" gradientTransform="matrix(0.8224 -0.5688 -0.5688 -0.8224 361.761 1374.9457)">
	<stop  offset="0" style="stop-color:#808080;stop-opacity:0.25"/>
	<stop  offset="0.54" style="stop-color:#808080;stop-opacity:0.12"/>
	<stop  offset="1" style="stop-color:#808080;stop-opacity:0.1"/>
</linearGradient>
<path class="st5" d="M581.7,2.5c0,0-72.9-26.6-150.4,95.2c0,0-32.6,68-105.4,67.7l-7.8-17.8l-14.7,5.8l197,450l14.9-4.8l-92.8-213.1
	c30.8-2.4,99.4-24.5,161.9-162.7c0,0,56.2-104.9,138.5-92.5L581.7,2.5z"/>
<path class="st6" d="M314,167.4l95.5,215.9c0,0,92.6,22.6,174.6-158.4c0,0,55-102.6,135.5-90.5L581.4,9.3c0,0-71.3-26-147.1,93.1
	C434.3,102.4,397.3,179.7,314,167.4z"/>
<polygon class="st7" points="309.2,156.9 501.2,595.5 515.8,590.8 323.6,151.3 "/>
<path class="st2" d="M403.3,387.7c0,0,7.6-31.2,21.6-22.3s-6.4,26.1-6.4,26.1l-5.7,7L403.3,387.7z"/>
<polygon class="st8" points="326.7,359.2 333.9,365.4 337,377.8 332,375 332,365.4 326.7,364.8 "/>
<polygon class="st9" points="326.7,359.2 333.9,365.4 337,377.8 332,375 332,365.4 326.7,364.8 "/>
<path class="st3" d="M348.3,485.1l4.2,54.7l12.6-2.5c0,0-2.8-44.5-8.4-52.2S348.3,485.1,348.3,485.1z"/>
<path class="st10" d="M348.3,485.1l4.2,54.7l12.6-2.5c0,0-2.8-44.5-8.4-52.2S348.3,485.1,348.3,485.1z"/>
<path class="st2" d="M317.4,809l-20.4,3.2l-11.5-8.9l-8.3-26.1v-9.6c0-1.1-0.1-2.3-0.2-3.4c-0.6-5.2-2.7-17.3-10-43.7
	c-6.7-24.5-3.4-42.8,0.1-53.2c1.1-3.4,2.5-6.7,4.3-9.8h27.4c0,0-0.1,7.6-0.7,16.4c-0.5,9.4-1.5,20.1-3.2,24.4
	c-2.4,6.3-0.8,35.1,0.1,48.2c0.3,4.3,1.1,8.5,2.5,12.6l0,0c1.7,5.4,2.9,11,3.5,16.7c1,9.2,7.9,21,12.3,27.8
	C315.8,806.8,317.4,809,317.4,809z"/>
<path class="st2" d="M414.1,809.6l-8.9,2.5l-17.2-7l-21.6-22.9v-12.7c-0.1-1.5-0.3-2.9-0.7-4.4c-3.5-14.7-19-39.5-19-39.5
	c-11.5-27.4-5.7-46.5-5.7-46.5v-19.7c0,0,29.9-10.2,31.2-6.4c0.7,2.1-0.2,8.5-1.1,13.7c-0.7,4-1.5,7.3-1.5,7.3l14,75.1l6,14
	c1.6,3.6,2.7,7.5,3.4,11.4c2.1,11.3,10.1,22.5,15.7,29.1C411.8,807.3,414.1,809.6,414.1,809.6z"/>
<path class="st9" d="M317.4,809l-20.4,3.2l-11.5-8.9l-8.3-26.1v-9.6c0-1.1-0.1-2.3-0.2-3.4c0.3-0.2,0.6-0.3,0.9-0.4
	c0,0,2.5,9.5,1.3,14c-1,3.5,7.7,16.8,11.2,22c1.8,2.7,4.3,4.7,7.3,5.8c7,2.5,13.6-0.9,15.8-2.1C315.8,806.8,317.4,809,317.4,809z"/>
<path class="st11" d="M313.7,803.6c0,0-8.1,5.6-16.5,2.6c-3-1.1-5.6-3.1-7.3-5.8c-3.6-5.2-12.3-18.5-11.2-22c1.3-4.5-1.3-14-1.3-14
	s-3.2,1-5.5,5.8c-2.7,5.9-1.8,12.8,2.3,17.8v24.2h3.2v-20.3c2.8,3.5,5.2,7.3,7.1,11.3c3.5,7.6,10.7,12.9,19,14.1
	c8.2,1.2,17.2,1.6,21-1.2C324.4,816,327.2,810.4,313.7,803.6z"/>
<path class="st9" d="M414.1,809.6l-8.9,2.5l-17.2-7l-21.6-22.9v-12.7c-0.1-1.5-0.3-2.9-0.7-4.4c0.2,0,0.5-0.1,0.7-0.1
	c0,3.3,5.6,11.2,9.6,16.3c2.1,2.7,4,5.5,5.8,8.3c8.2,13.3,22.5,14,26.9,13.9C411.8,807.3,414.1,809.6,414.1,809.6z"/>
<path class="st11" d="M366.4,766.3c0,0-12.1,0-8.3,22.9l-0.6,26.7h3.2l0.6-23.5c0,0,3.2-5.7,14,6.4c1.6,1.8,3.1,3.5,4.5,5.1
	c7.7,9.1,19.1,14.1,30.9,13.7c6.9-0.3,13.6-1,16.2-2.8c0,0,6.4-5.1-9.5-7.6l-7.3-2.2c0,0-18.4,2-28.2-13.8c-1.8-2.9-3.7-5.7-5.8-8.4
	C372,777.5,366.4,769.6,366.4,766.3z"/>
<path class="st9" d="M271.6,657.5h27.4c0,0-0.1,7.6-0.7,16.4c-10.5-1.3-20.9-3.5-31-6.6C268.3,663.9,269.8,660.6,271.6,657.5z"/>
<path class="st9" d="M371,666.7c-9.7,3.7-19.8,6.2-30.1,7.5v-14.8c0,0,29.9-10.2,31.2-6.4C372.8,655.2,371.9,661.6,371,666.7z"/>
<path class="st12" d="M373.4,664.5c-52.2,21.6-110.7,0-110.7,0s16.5-19.1,8.9-81.5c-3-24.7-2.5-39.8-0.7-49.1
	c2.7-14.1,8.3-14.5,8.3-14.5l75.1-8.9c-0.7,2.5-0.7,6.8-0.3,12.2C355.8,548.1,367,597,367,597C386.1,655,373.4,664.5,373.4,664.5z"
	/>
<path class="st2" d="M333.3,323.4c-1.9,2.9-3.1,8.9-3.8,15.7c-1.6,15.6-0.6,35.9-0.6,35.9s-38.8,21-29.9-6.4
	c5.2-16.9,3.6-35.1-4.4-50.9C294.5,317.7,339.7,313.9,333.3,323.4z"/>
<path class="st9" d="M333.3,323.4c-1.9,2.9-3.1,8.9-3.8,15.7c-9.7,4-20.9,2.3-29-4.4c-1.2-5.9-3.2-11.6-6-17
	C294.5,317.7,339.7,313.9,333.3,323.4z"/>
<circle class="st2" cx="318.7" cy="311.3" r="28.6"/>
<path class="st9" d="M354,522.7c-3.5,9.6-6.7,17.1-6.7,17.1s-29.9-25.5-52.8-13.4c-10.8,5.7-19.1,8.2-23.6,7.5
	c2.7-14.1,8.3-14.5,8.3-14.5l75.1-8.9C353.6,513.1,353.6,517.4,354,522.7z"/>
<path class="st12" d="M347.3,537.2c0,0-29.9-25.4-52.8-13.4s-34.4,9.5-22.9-5.7s26.7-47.7,15.3-71.9s-15.9-62.4-7-72.5
	S297,352,297,349.5c0,0,32.5,23.5,38.8,33.1c1.8,2.7,4.8,9.7,8.1,18.3c1.8,4.6,3.7,9.7,5.6,14.9c2.9,8.1,5.3,16.3,7.1,24.7
	c2.3,10.7,3.7,21.6,4.3,32.5c0.1,3,0.6,6,1.6,8.9C366.4,492.1,347.3,537.2,347.3,537.2z"/>
<path class="st8" d="M333.9,366.1l-0.8,13.3l-36.7-28c0,0-0.7-5.6,8.9,0.1S333.9,366.1,333.9,366.1z"/>
<path class="st9" d="M356.6,440.5c-33.6,0.6-71.7-36.9-71.7-36.9c-13.4-35.6,31.8-28,31.8-28s3.7,9.6,27.2,25.3
	c1.8,4.6,3.7,9.7,5.6,14.9C352.5,423.9,354.8,432.1,356.6,440.5z"/>
<path class="st12" d="M284.9,399.1c0,0,43.3,42.6,78.3,36.3c0,0,41.4-10.2,57.9-33.1c0,0-10.8-9.5-17.8-18.5
	c0,0-22.3,35.6-52.2,17.2s-34.4-29.9-34.4-29.9S271.6,363.5,284.9,399.1z"/>
<path class="st9" d="M329.8,267.7c-7.3-2.1-15.2-3-22.2-0.4c-11.7,4.4-18.9,9.5-28,18.1c-7.2,6.8-15.1,18.6-23.5,23.6
	s-16.7,11.7-20,21c-4.6,13.1,1.7,27.2,4.6,40.8c3.2,15.3,1.9,31.2-3.6,45.8c-5.6,14.5-15.5,28.8-13,44.1
	c2.6,16.5,19.1,27.6,35.5,30.4c11.2,1.9,23.3,0.7,32.8-5.4c2.7-1.6,4.9-3.8,6.6-6.5c4-7,1.4-15.8-1.1-23.5
	c-5.1-15.8-9.2-31.9-13.2-48c-2.4-9.4-4.7-19.5-1.4-28.5c3.3-8.9,11.4-15.1,19.9-19.2c3.3-1.6,6.9-3.1,9.4-5.8
	c1.4-1.6,2.4-3.4,3.1-5.3c4.3-11.4-0.5-26.1,7.7-35.1c4.2-4.6,10.7-6.1,15.9-9.5c6.5-4.3,13-14.5,11.8-22.8
	C349.6,272.8,337.3,269.8,329.8,267.7z"/>
<path class="st13" d="M328.5,267.1c-7.3-2.1-15.2-3-22.2-0.4c-11.7,4.4-18.9,9.5-28,18.1c-7.2,6.8-15.1,18.6-23.5,23.6
	s-16.7,11.7-20,21c-4.6,13.1,1.7,27.2,4.6,40.8c3.2,15.3,1.9,31.2-3.6,45.8c-5.6,14.5-15.5,28.8-13,44.1
	c2.6,16.5,19.1,27.6,35.5,30.4c11.2,1.9,23.3,0.7,32.8-5.4c2.7-1.6,4.9-3.8,6.6-6.5c4-7,1.4-15.8-1.1-23.5
	c-5.1-15.8-9.2-31.9-13.2-48c-2.4-9.4-4.7-19.5-1.4-28.5c3.3-8.9,11.4-15.1,19.9-19.2c3.3-1.6,6.9-3.1,9.4-5.8
	c1.4-1.6,2.4-3.4,3.1-5.3c4.3-11.4-0.5-26.1,7.7-35.1c4.2-4.6,10.7-6.1,15.9-9.5c6.5-4.3,13-14.5,11.8-22.8
	C348.3,272.1,336,269.2,328.5,267.1z"/>
</svg>
