<?xml version="1.0" encoding="utf-8"?>
<!-- Generator: Adobe Illustrator 22.0.1, SVG Export Plug-In . SVG Version: 6.00 Build 0)  -->
<svg version="1.1" id="_x33_9a6c29f-fe67-4b70-b1d8-8cf786f1bfe7"
	 xmlns="http://www.w3.org/2000/svg" xmlns:xlink="http://www.w3.org/1999/xlink" x="0px" y="0px" viewBox="0 0 937.3 812.1"
	 style="enable-background:new 0 0 937.3 812.1;" xml:space="preserve">
<style type="text/css">
	.st0{opacity:0.5;}
	.st1{fill:url(#SVGID_1_);}
	.st2{fill:#F6BF52;}
	.st3{opacity:0.1;}
	.st4{fill:url(#SVGID_2_);}
	.st5{opacity:0.1;enable-background:new    ;}
	.st6{fill:#6C63FF;}
	.st7{opacity:0.5;enable-background:new    ;}
	.st8{fill:#29335C;}
	.st9{opacity:0.1;fill:#FFFFFF;enable-background:new    ;}
	.st10{fill:url(#SVGID_3_);}
	.st11{fill:#F3A712;}
	.st12{fill:#FFFFFF;}
	.st13{opacity:0.2;fill:#FFFFFF;enable-background:new    ;}
	.st14{opacity:0.5;fill:#FFFFFF;enable-background:new    ;}
	.st15{opacity:0.3;enable-background:new    ;}
	.st16{fill:#58555D;}
	.st17{opacity:0.5;fill:#58555D;enable-background:new    ;}
	.st18{fill:url(#SVGID_4_);}
	.st19{fill:#DB2B39;}
	.st20{fill:url(#SVGID_5_);}
	.st21{opacity:0.2;fill:none;stroke:#000000;stroke-miterlimit:10;enable-background:new    ;}
	.st22{fill:#4D8AF0;}
	.st23{opacity:0.1;fill:url(#SVGID_6_);enable-background:new    ;}
</style>
<title>playful cat</title>
<g class="st0">
	
		<linearGradient id="SVGID_1_" gradientUnits="userSpaceOnUse" x1="550.6395" y1="420.7298" x2="550.6395" y2="691.9302" gradientTransform="matrix(1 0 0 -1 -131.37 767.9498)">
		<stop  offset="0" style="stop-color:#808080;stop-opacity:0.25"/>
		<stop  offset="0.54" style="stop-color:#808080;stop-opacity:0.12"/>
		<stop  offset="1" style="stop-color:#808080;stop-opacity:0.1"/>
	</linearGradient>
	<path class="st1" d="M487.9,204.4c-4.1-22.7-8.3-45.7-17.7-66.8c-10.3-23.2-26.5-43.3-46.9-58.4c-3-2.3-6.8-3.4-10.6-3.1l0,0
		c-5.9,0.5-7.7,4.1-8.7,8c-0.1,0.4-0.2,0.9-0.3,1.4c-2.3,11.5-0.8,22.9,2.6,34.1c4.2,14,11.3,27.8,17.1,41.2
		c10.6,24.3,17.6,50,20.8,76.2c0.4,3.5,0.8,7.1,0.9,10.6c0.1,2.1,0,4.3-0.2,6.4c-0.3,4.2-1.2,8.2-2.8,12.1c-0.3,0.7-0.6,1.3-0.9,1.9
		c-0.3,0.6-0.7,1.2-1,1.8c-3.6,5.9-9.2,10.2-14.7,14.3s-11.7,8.6-18.3,10.9h0.2c-3,1.1-6.3,1.6-9.5,1.6c-10.1-0.3-20.9-8.5-31.1-6.6
		h-0.1c-0.4,0.1-0.8,0.2-1.1,0.3c-10.4,2.8-18.4,19.2-18.5,29.7c0,0,0,0.1,0,0.1c0,0.8,0,1.6,0.1,2.4c0,0.3,0.1,0.5,0.1,0.8
		c0.1,0.5,0.1,1,0.2,1.5c0,0.3,0.1,0.6,0.2,0.9s0.2,0.9,0.3,1.3s0.2,0.6,0.3,0.9s0.3,0.8,0.4,1.2s0.2,0.6,0.4,0.9s0.3,0.7,0.5,1.1
		s0.3,0.6,0.4,0.8s0.4,0.7,0.6,1s0.3,0.5,0.5,0.8s0.4,0.6,0.7,0.9s0.4,0.5,0.6,0.7s0.5,0.6,0.8,0.9s0.4,0.5,0.6,0.7s0.6,0.5,0.8,0.8
		s0.5,0.4,0.7,0.6s0.6,0.5,0.9,0.8s0.5,0.4,0.7,0.6s0.7,0.5,1,0.7l0.8,0.5c0.4,0.2,0.7,0.4,1.1,0.6l0.8,0.4c0.4,0.2,0.8,0.4,1.2,0.6
		l0.7,0.4c0.6,0.3,1.2,0.5,1.8,0.8l0.9,0.3c0.5,0.2,0.9,0.4,1.4,0.5l1,0.3l1.2,0.4l1.1,0.3l1.1,0.3l1.2,0.3l1.1,0.2l1.3,0.2l1,0.2
		l1.3,0.2l1,0.1l1.4,0.1l1,0.1l1.4,0.1h0.9h1.5h0.8h1.5h0.7l1.6-0.1h0.6l1.7-0.1h0.3c4.9-0.4,9.8-1.5,14.5-3.2
		c14.8-5.6,27.3-15.8,38.9-26.5c23-21.2,44.7-47.6,46.5-78.8C492,227,489.9,215.6,487.9,204.4z"/>
</g>
<path class="st2" d="M407,332.4c13.5-5.1,24.9-14.5,35.5-24.2c21-19.4,40.9-43.5,42.5-72c0.6-10.4-1.3-20.8-3.1-31.1
	c-3.8-20.8-7.6-41.7-16.2-61c-9.4-21.2-24.2-39.6-42.9-53.4c-2.8-2.1-6.2-3.1-9.7-2.9c-6,0.5-7.4,4.6-8.2,8.5
	c-4.8,23.7,8.4,46.7,18,68.8c9.7,22.2,16.1,45.7,19,69.7c1.2,10.2,1.7,21.2-3.7,30c-3.3,5.4-8.4,9.3-13.4,13.1
	c-7.5,5.7-15.8,11.6-25.2,11.3c-9.6-0.3-19.9-8.4-29.5-5.7s-16.9,17.6-16.9,27.1C353.1,336.5,389,339.2,407,332.4z"/>
<g class="st3">
	<path d="M438.4,264.7c-3.3,5.4-8.4,9.3-13.4,13.1s-10.7,7.9-16.7,9.9c8.5-0.6,16.2-6,23.1-11.2c5-3.8,10.2-7.7,13.4-13.1
		c5.4-8.8,4.9-19.8,3.7-30c-2.9-24-9.3-47.5-19-69.7c-9.6-22.1-22.8-45.2-18-68.8c0.6-2.7,1.5-5.5,4-7.2c-0.7-0.1-1.5-0.1-2.2,0
		c-6,0.5-7.4,4.6-8.2,8.5c-4.8,23.7,8.4,46.7,18,68.8c9.7,22.2,16.1,45.7,19,69.7C443.3,244.9,443.7,256,438.4,264.7z"/>
	<path d="M359.6,309.2c0-8.9,6.3-22.3,14.8-26.3c-1.4,0-2.9,0.1-4.3,0.5c-9.5,2.6-16.9,17.6-16.9,27.1
		c-0.1,24.2,31.1,28.2,49.9,23.1C384.4,336.4,359.5,330.9,359.6,309.2z"/>
</g>
<g class="st0">
	
		<linearGradient id="SVGID_2_" gradientUnits="userSpaceOnUse" x1="600.0004" y1="99.7498" x2="600.0004" y2="634.1099" gradientTransform="matrix(1 0 0 -1 -131.37 767.9498)">
		<stop  offset="0" style="stop-color:#808080;stop-opacity:0.25"/>
		<stop  offset="0.54" style="stop-color:#808080;stop-opacity:0.12"/>
		<stop  offset="1" style="stop-color:#808080;stop-opacity:0.1"/>
	</linearGradient>
	<path class="st4" d="M901.4,433.4c0,0-26.9-63.4-39.6-113.3l-5.8-34.2c7.1-4.7,11.4-12.6,11.4-21.1l0,0c0-11.6-7.9-21.7-19.1-24.6
		l-1.3-7.6H734.6v-37.5H550.8v37.4H387.4v-44.2h-62.5c13.2-10.6,15.2-29.9,4.6-43.1c-10.6-13.2-29.9-15.2-43.1-4.6
		c-13.2,10.6-15.2,29.9-4.6,43.1c1.4,1.7,2.9,3.2,4.6,4.6h-93.1v44.2h-88.6c-9.9-8.8-24.4-9.8-35.4-2.5l0,0
		c-5.3,3.5-9.3,8.6-11.3,14.6c-7.8,11.4-6.4,26.8,3.3,36.7l26.4,26.9v18.5c-8.1,25.8-25.2,72-61.3,144
		c-3.4,3.4-81.7,149.8,47.6,197.4h789.7C863.9,668.2,1000.1,644.4,901.4,433.4z"/>
</g>
<rect x="204.4" y="196.9" class="st5" width="186.2" height="53.9"/>
<rect x="204.4" y="196.9" class="st6" width="186.2" height="49"/>
<circle class="st6" cx="312.2" cy="174" r="29.4"/>
<rect x="139.1" y="294.9" class="st6" width="352.8" height="189.5"/>
<rect x="139.1" y="294.9" class="st7" width="352.8" height="189.5"/>
<path class="st8" d="M884,432.1C978.7,634.6,848,657.5,848,657.5H442.9l-9.8-369.2l406.7,1.6C843.1,335.7,884,432,884,432.1"/>
<rect x="103.2" y="239.3" class="st8" width="728.5" height="91.5"/>
<polygon class="st9" points="846.4,325.9 103.2,330.8 103.2,239.3 831.7,239.3 "/>
<path class="st5" d="M491.9,428.8c0,0-50.4-86.3-63.7-135.6l18,364.3C446.2,657.5,586.6,631.4,491.9,428.8z"/>
<g class="st0">
	
		<linearGradient id="SVGID_3_" gradientUnits="userSpaceOnUse" x1="400.3578" y1="302.7497" x2="400.3578" y2="767.9403" gradientTransform="matrix(1 0 0 -1 -131.37 767.9498)">
		<stop  offset="0" style="stop-color:#808080;stop-opacity:0.25"/>
		<stop  offset="0.54" style="stop-color:#808080;stop-opacity:0.12"/>
		<stop  offset="1" style="stop-color:#808080;stop-opacity:0.1"/>
	</linearGradient>
	<path class="st10" d="M222.1,39.2c0,0,53.8-10.8,80.7,0c0,0,16.1-37.7,32.3-37.7s21.5,59.2,21.5,59.2l21.5,86.1
		c0,0,102.2,182.9,0,279.8s-263.6-10.8-263.6-80.7s32.3-215.2,32.3-215.2S179,12.3,189.7,1.6S222.1,39.2,222.1,39.2z"/>
</g>
<path class="st11" d="M223.9,46.7c0,0,51.7-10.3,77.6,0c0,0,15.5-36.2,31-36.2s20.7,56.9,20.7,56.9l20.7,82.8c0,0,98.3,175.8,0,269
	s-253.4-10.3-253.4-77.6s31-206.9,31-206.9s31-113.8,41.4-124.1S223.9,46.7,223.9,46.7z"/>
<path class="st8" d="M109.7,304.7c0,0-6.5,45.7-65.3,163.4c-3.3,3.3-78.4,143.8,45.7,189.5h352.8c0,0,130.7-22.9,35.9-225.5
	c0,0-47.4-99.6-50.6-145.4L253.4,448.4L109.7,304.7z"/>
<g class="st3">
	<path class="st12" d="M410.1,246.8c-7.9-33.6-20.1-66.1-36.2-96.7l3.3,13.1C391.2,189.8,402.2,217.8,410.1,246.8z"/>
	<path class="st12" d="M129.7,327.6c0-67.2,25-179.9,25-179.9s31-113.8,41.4-124.1s31,36.2,31,36.2s51.7-10.3,77.6,0
		c0,0,15.5-36.2,31-36.2c6,0,10.5,8.6,13.7,19.1c-3.1-15.3-8.5-32.1-17-32.1c-15.5,0-31,36.2-31,36.2c-25.9-10.3-77.6,0-77.6,0
		s-20.7-46.5-31-36.2s-41.4,124.1-41.4,124.1s-25,112.6-25,179.9C126.4,320.6,129.7,329.5,129.7,327.6z"/>
</g>
<path class="st13" d="M110.7,304.1c0,0-6.5,45.7-65.3,163.4c-3.3,3.3-78.4,143.8,45.7,189.5h352.8c0,0,130.7-22.9,35.9-225.5
	c0,0-47.4-99.6-50.6-145.4L254.4,447.9L110.7,304.1z"/>
<path class="st6" d="M256.7,405.9l153.5-160.1H827c13.4,0,24.3,10.9,24.3,24.3l0,0c0,13.4-10.9,24.3-24.3,24.3c-0.1,0-0.2,0-0.4,0
	l-393.5-6.1L256.7,458.2V405.9z"/>
<path class="st6" d="M122.4,242.5l134.3,163.5v52.3L81,279.7c-10.8-11-10.7-28.6,0.3-39.4c1.3-1.2,2.6-2.3,4.1-3.3l0,0
	C97.3,229,113.3,231.4,122.4,242.5z"/>
<path class="st5" d="M256.7,412.5l153.5-160.1H827c13.4,0,24.3,10.9,24.3,24.3l0,0c0,13.4-10.8,24.3-24.3,24.4c-0.1,0-0.3,0-0.4,0
	l-393.5-6.2L256.7,464.8V412.5z"/>
<path class="st8" d="M256.7,405.9l153.5-160.1H827c13.4,0,24.3,10.9,24.3,24.3l0,0c0,13.4-10.9,24.3-24.3,24.3c-0.1,0-0.2,0-0.4,0
	l-393.5-6.1L256.7,458.2V405.9z"/>
<path class="st5" d="M119.2,249l134.3,163.5v52.3L77.8,286.2c-10.8-11-10.7-28.6,0.3-39.4c1.3-1.2,2.6-2.3,4.1-3.3l0,0
	C94.1,235.6,110.1,237.9,119.2,249z"/>
<path class="st8" d="M122.4,242.5l134.3,163.5v52.3L81,279.7c-10.8-11-10.7-28.6,0.3-39.4c1.3-1.2,2.6-2.3,4.1-3.3l0,0
	C97.3,229,113.3,231.4,122.4,242.5z"/>
<rect x="175" y="559.5" class="st14" width="182.9" height="32.7"/>
<rect x="616.1" y="559.5" class="st14" width="186.2" height="32.7"/>
<rect x="547.5" y="203.4" class="st8" width="176.4" height="62.1"/>
<circle class="st8" cx="622.6" cy="180.5" r="29.4"/>
<circle class="st5" cx="250.2" cy="438.6" r="35.9"/>
<circle class="st6" cx="250.2" cy="432.1" r="35.9"/>
<circle class="st15" cx="250.2" cy="432.1" r="35.9"/>
<circle class="st16" cx="324.7" cy="137.2" r="10.3"/>
<circle class="st16" cx="205.8" cy="137.2" r="10.3"/>
<ellipse class="st16" cx="267.9" cy="147.6" rx="15.5" ry="10.3"/>
<rect x="355.2" y="129.4" transform="matrix(0.9762 -0.2168 0.2168 0.9762 -19.6037 85.3103)" class="st2" width="47.7" height="5.2"/>
<rect x="355.3" y="150.1" transform="matrix(0.9807 -0.1954 0.1954 0.9807 -22.4824 77.5292)" class="st2" width="52.8" height="5.2"/>
<rect x="141.1" y="93.8" transform="matrix(0.3714 -0.9285 0.9285 0.3714 -22.6543 209.9452)" class="st2" width="5.2" height="55.7"/>
<rect x="133.4" y="108.4" transform="matrix(0.1521 -0.9884 0.9884 0.1521 -25.465 255.137)" class="st2" width="5.2" height="68"/>
<path class="st5" d="M246.1,301.9c0,0,36,78.2-11.2,84.9s-25.7-65.5-25.7-65.5s-4.7-21.4-16.2-22.6"/>
<path class="st5" d="M289.6,300c0,0-42.8,74.7,3.7,85.5s31.4-63,31.4-63s6.6-20.9,18.2-21.1"/>
<path class="st2" d="M241.9,299.7c0,0,36,78.2-11.2,84.9s-25.7-65.5-25.7-65.5s-4.7-21.4-16.2-22.6"/>
<path class="st2" d="M292.8,296.7c0,0-42.8,74.7,3.7,85.5s31.4-63,31.4-63s6.6-20.9,18.2-21.1"/>
<rect x="215.4" y="368.4" class="st17" width="0.8" height="15.3"/>
<rect x="228.5" y="368.4" class="st17" width="0.8" height="15.3"/>
<rect x="221.4" y="363.5" class="st17" width="0.8" height="21.4"/>
<rect x="300.4" y="365.1" class="st17" width="0.8" height="15.3"/>
<rect x="313.5" y="365.1" class="st17" width="0.8" height="15.3"/>
<rect x="306.4" y="360.2" class="st17" width="0.8" height="21.4"/>
<g class="st0">
	
		<linearGradient id="SVGID_4_" gradientUnits="userSpaceOnUse" x1="563.63" y1="-0.2302" x2="563.63" y2="187.7698" gradientTransform="matrix(1 0 0 -1 0 811.8898)">
		<stop  offset="0" style="stop-color:#808080;stop-opacity:0.25"/>
		<stop  offset="0.54" style="stop-color:#808080;stop-opacity:0.12"/>
		<stop  offset="1" style="stop-color:#808080;stop-opacity:0.1"/>
	</linearGradient>
	<circle class="st18" cx="563.6" cy="718.1" r="94"/>
</g>
<circle class="st19" cx="563.6" cy="718.1" r="88"/>
<g class="st0">
	
		<linearGradient id="SVGID_5_" gradientUnits="userSpaceOnUse" x1="491.4644" y1="12.4795" x2="491.4644" y2="370.4997" gradientTransform="matrix(1 0 0 -1 -131.37 767.9498)">
		<stop  offset="0" style="stop-color:#808080;stop-opacity:0.25"/>
		<stop  offset="0.54" style="stop-color:#808080;stop-opacity:0.12"/>
		<stop  offset="1" style="stop-color:#808080;stop-opacity:0.1"/>
	</linearGradient>
	<path class="st20" d="M304,755.5c-13.3,0-27.3-7.9-29-21.2c-1-7.7,2.3-14.9,5.4-21.8c3.5-7.6,6.5-14.2,3.5-20.1
		c-1.4-2.7-3.9-4.8-6.5-6.8c-3.4-2.5-7-4.9-10.5-7.2c-6.1-4-12.4-8.1-17.9-13.3c-10.7-10.2-15.5-23.1-12.7-34.3
		c2.4-9.7,9.7-16.7,16.8-23.4c7.3-6.9,14.1-13.4,14.7-22.1c0.8-11.8-10.4-21.3-20.4-29.7l-1.5-1.3c-12.1-10.3-23.2-27.2-14.3-41.1
		c3.1-4.9,7.8-7.8,12.3-10.5c3-1.7,5.9-3.7,8.4-6.1c8.6-9,5.9-23.6,4.4-29.5c-1.2-4.5-2.9-9-4.5-13.3c-2.4-6.4-4.9-13.1-6-20.1
		l-0.2-1.1c-2.8-16.9-2.7-17.5,3.2-33l0.7-1.9l6.5,2.5l-0.7,1.9c-5.3,14-5.3,14-2.8,29.4l0.2,1.2c1,6.4,3.3,12.4,5.7,18.8
		c1.7,4.5,3.4,9.2,4.7,14c4,14.8,1.7,28-6.1,36.1c-2.9,2.8-6.2,5.2-9.8,7.2c-4,2.5-7.9,4.8-10.1,8.3c-6.9,10.7,4.8,25.1,12.9,31.9
		l1.5,1.3c10.7,9,24,20.2,22.9,35.5c-0.8,11.4-9,19.1-16.9,26.7c-6.6,6.3-12.9,12.3-14.8,20c-2.5,10.3,3.9,21,10.8,27.6
		c5,4.8,10.8,8.5,16.9,12.5c3.6,2.4,7.4,4.8,10.9,7.5c3.3,2.5,6.6,5.3,8.6,9.2c4.5,8.9,0.5,17.6-3.4,26.1
		c-2.9,6.3-5.6,12.3-4.9,18.1c1.3,10.4,14.3,16.2,25.1,14.9c8.8-1,16.9-5.1,25.5-9.5c2.8-1.4,5.6-2.8,8.5-4.2
		c15.6-7.2,29.3-8.1,39.5-2.6c3.2,1.9,6.2,4.1,8.9,6.6c2.1,1.9,4.4,3.7,6.8,5.3c11.5,6.3,25.9,2.7,33.1-8.3c0.6-1,1.2-2.1,1.8-3.3
		c1.9-3.7,4-7.9,8.3-10.3c4.5-2.5,9.6-2,13.4-1.6l39,3.8l-0.7,7l-39-3.8c-3.7-0.4-6.9-0.5-9.3,0.8s-3.9,4.3-5.5,7.3
		c-0.6,1.2-1.3,2.5-2,3.7c-9.2,14.3-27.9,19-42.7,10.7c-2.8-1.8-5.4-3.7-7.8-5.9c-2.4-2.2-4.9-4.1-7.7-5.8
		c-10.4-5.6-23.8-1.6-33.2,2.8c-2.8,1.3-5.5,2.7-8.2,4.1c-8.7,4.4-17.7,9-27.8,10.2C306.6,755.4,305.3,755.5,304,755.5z"/>
</g>
<path class="st19" d="M306,752.5c-13.3,0-27.3-7.9-29-21.2c-1-7.7,2.3-14.9,5.4-21.8c3.5-7.6,6.5-14.2,3.5-20.1
	c-1.4-2.7-3.9-4.8-6.5-6.8c-3.4-2.5-7-4.9-10.5-7.2c-6.1-4-12.4-8.1-17.9-13.3c-10.7-10.2-15.5-23.1-12.7-34.3
	c2.4-9.7,9.7-16.7,16.8-23.4c7.3-6.9,14.1-13.4,14.7-22.1c0.8-11.8-10.4-21.3-20.4-29.7l-1.5-1.3c-12.1-10.3-23.2-27.2-14.3-41.1
	c3.1-4.9,7.8-7.8,12.3-10.5c3-1.7,5.9-3.7,8.4-6.1c8.6-9,5.9-23.6,4.4-29.5c-1.2-4.5-2.9-9-4.5-13.3c-2.4-6.4-4.9-13.1-6-20.1
	l-0.2-1.1c-2.8-16.9-2.7-17.5,3.2-33l0.7-1.9l6.5,2.5l-0.7,1.9c-5.3,14-5.3,14-2.8,29.4l0.2,1.2c1,6.4,3.3,12.4,5.7,18.8
	c1.7,4.5,3.4,9.2,4.7,14c4,14.8,1.7,28-6.1,36.1c-2.9,2.8-6.2,5.2-9.8,7.2c-4,2.5-7.9,4.8-10.1,8.3c-6.9,10.7,4.8,25.1,12.9,31.9
	l1.5,1.3c10.7,9,24,20.2,22.9,35.5c-0.8,11.4-9,19.1-16.9,26.7c-6.6,6.3-12.9,12.3-14.8,20c-2.5,10.3,3.9,21,10.8,27.6
	c5,4.8,10.8,8.5,16.9,12.5c3.6,2.4,7.4,4.8,10.9,7.5c3.3,2.5,6.6,5.3,8.6,9.2c4.5,8.9,0.5,17.6-3.4,26.1c-2.9,6.3-5.6,12.3-4.9,18.1
	c1.3,10.4,14.3,16.2,25.1,14.9c8.8-1,16.9-5.1,25.5-9.5c2.8-1.4,5.6-2.8,8.5-4.2c15.6-7.2,29.3-8.1,39.5-2.6
	c3.2,1.9,6.2,4.1,8.9,6.6c2.1,1.9,4.4,3.7,6.8,5.3c11.5,6.3,25.9,2.7,33.1-8.3c0.6-1,1.2-2.1,1.8-3.3c1.9-3.7,4-7.9,8.3-10.3
	c4.5-2.5,9.6-2,13.4-1.6l39,3.8l-0.7,7l-39-3.8c-3.7-0.4-6.9-0.5-9.3,0.8s-3.9,4.3-5.5,7.3c-0.6,1.2-1.3,2.5-2,3.7
	c-9.2,14.3-27.9,19-42.7,10.7c-2.8-1.8-5.4-3.7-7.8-5.9c-2.4-2.2-4.9-4.1-7.7-5.8c-10.4-5.6-23.8-1.6-33.2,2.8
	c-2.8,1.3-5.5,2.7-8.2,4.1c-8.7,4.4-17.7,9-27.8,10.2C308.6,752.4,307.3,752.5,306,752.5z"/>
<path class="st21" d="M578.6,657.1c0,0,48.5,8.5,49.5,80.5"/>
<path class="st21" d="M493.1,742.6c0,0-18-60,61-93"/>
<path class="st21" d="M513.1,729.6c0,0-8-31,17-48"/>
<path class="st21" d="M562.1,681.6c0,0,19,16,9,56"/>
<path class="st21" d="M603.1,644.6c0,0,32,18,40,73"/>
<path class="st21" d="M554.1,644.6c0,0,20-6,33,5"/>
<path class="st21" d="M530.1,756.6c0,0,17,21,86,0"/>
<path class="st21" d="M517.1,782.6c0,0,9,18,41,16"/>
<path class="st21" d="M517.1,649.6c0,0-27,18-30,56"/>
<path class="st21" d="M506.1,742.6c0,0-6,12,6,23"/>
<path class="st21" d="M623.1,765.6c0,0-9,24-23,21"/>
<path class="st21" d="M537.1,776.6c15.8,7.7,34.2,7.7,50,0"/>
<path class="st21" d="M587.1,696.6c0,0,9,12,3,26"/>
<path class="st21" d="M537.1,697.6c0,0-9,16-4,29"/>
<path class="st21" d="M548.1,697.6c0,0,7,19,0,29"/>
<path class="st5" d="M255,213.7c-13.5,0-27.1-1.1-40.4-3.4c-42.1-7.3-71.9-25.5-72.9-26.2l1.8-8.4c0.2,0.2,32.6,18.8,73.1,25.8
	c37.2,6.4,101.3,4.5,166.4-31.4l4.3,7.9C340,204,290.2,213.7,255,213.7z"/>
<path class="st22" d="M256.8,219.2l-0.4-0.4c2.4-1.8,2.8-5.2,1-7.6c-0.3-0.4-0.6-0.7-1-1l0.3-0.4c2.6,2,3.1,5.7,1.1,8.3
	C257.5,218.6,257.2,218.9,256.8,219.2L256.8,219.2z"/>
<path class="st5" d="M256.8,219.2l-0.4-0.4c2.4-1.8,2.8-5.2,1-7.6c-0.3-0.4-0.6-0.7-1-1l0.3-0.4c2.6,2,3.1,5.7,1.1,8.3
	C257.5,218.6,257.2,218.9,256.8,219.2L256.8,219.2z"/>
<path class="st19" d="M382.9,168.1c-65.1,35.9-129.1,37.8-166.4,31.4c-40.4-6.9-72.8-25.6-73.1-25.8l-4.8,7.6
	c1.1,0.7,33.8,19.6,75.9,27c13.3,2.3,26.9,3.5,40.4,3.4c35.3,0,85-9.7,132.3-35.8L382.9,168.1z M256.6,211.1c-0.6,0-1-0.4-1-1
	s0.4-1,1-1s1,0.4,1,1S257.2,211.1,256.6,211.1z"/>
<linearGradient id="SVGID_6_" gradientUnits="userSpaceOnUse" x1="388" y1="532.8898" x2="388" y2="552.8898" gradientTransform="matrix(1 0 0 -1 -131.37 767.9498)">
	<stop  offset="0" style="stop-color:#FFFFFF"/>
	<stop  offset="1" style="stop-color:#000000"/>
</linearGradient>
<path class="st23" d="M246.6,225.1L246.6,225.1c0,5.5,4.5,10,10,10l0,0c5.5,0,10-4.5,10-10l0,0c0-5.5-4.5-10-10-10l0,0
	C251.1,215.1,246.6,219.5,246.6,225.1z M256.6,220.1c-0.9,0-1.7-0.7-1.7-1.7s0.7-1.7,1.7-1.7c0.9,0,1.7,0.7,1.7,1.7
	S257.6,220.1,256.6,220.1L256.6,220.1z"/>
<path class="st22" d="M247.6,225.1L247.6,225.1c0,5,4,9,9,9l0,0c5,0,9-4,9-9l0,0c0-5-4-9-9-9l0,0
	C251.7,216.1,247.6,220.1,247.6,225.1z M256.6,220.6c-0.8,0-1.5-0.7-1.5-1.5s0.7-1.5,1.5-1.5s1.5,0.7,1.5,1.5
	S257.5,220.6,256.6,220.6z"/>
<path class="st22" d="M256.5,219.2c-2.6-2-3.1-5.7-1.1-8.3c0.3-0.4,0.7-0.8,1.1-1.1l0.3,0.4c-2.4,1.8-2.8,5.2-1,7.6
	c0.3,0.4,0.6,0.7,1,1L256.5,219.2z"/>
<polyline class="st22" points="256.6,210.1 256.6,210.1 256.6,210.1 256.6,210.1 "/>
<path class="st2" d="M369.6,171.1c-137.7,81-217,6-217,6L369.6,171.1z"/>
</svg>
