<?xml version="1.0" encoding="utf-8"?>
<!-- Generator: Adobe Illustrator 22.0.1, SVG Export Plug-In . SVG Version: 6.00 Build 0)  -->
<svg version="1.1" id="Calque_1" xmlns="http://www.w3.org/2000/svg" xmlns:xlink="http://www.w3.org/1999/xlink" x="0px" y="0px"
	 viewBox="0 0 464 464" style="enable-background:new 0 0 464 464;" xml:space="preserve">
<style type="text/css">
	.st0{fill:#FAFAFA;}
	.st1{fill:#FFFFFF;}
	.st2{fill:#D3D0CB;}
	.st3{fill:#DFDCD9;}
	.st4{fill:#008148;}
	.st5{fill:#F1F2F2;}
	.st6{fill:#F3A712;}
</style>
<path class="st0" d="M376,50.1C374.9,229.7,229.7,374.9,50.1,376C105.6,446,196.3,478,283.4,458.3c87.1-19.8,155.1-87.8,174.9-174.9
	C478,196.3,446,105.6,376,50.1z"/>
<path class="st1" d="M376,50.1C283.7-23,151.2-15.3,67.9,67.9S-23,283.7,50.1,376C229.7,374.9,374.9,229.7,376,50.1z"/>
<path class="st2" d="M344,96c-17.7,8-27.4-1.4-40,8c-15.5,11.7-21.8,41.9-8,64c9.7,15.6,27.2,19.5,46.9,23.8
	c20-40.9,31.1-85.6,32.8-131.1C369.9,76,358.6,88.6,344,96z"/>
<path class="st3" d="M378.5,52.1c-0.7,2.9-1.7,5.8-2.8,8.6c-1.7,45.5-12.8,90.2-32.8,131.1l1.1,0.2c27.4,6,38.1-6.7,64,0
	c11.6,3.3,22.4,8.7,32,16c11.1,9.2,19.3,21.4,23.6,35.1c0.2-3.7,0.4-7.4,0.4-11.1C464.1,162.2,432.7,96.1,378.5,52.1z"/>
<path class="st3" d="M224,328c15.8,17.5,20,47.1,8,64c-9.8,13.8-23.1,9-32,24c-6.7,12.5-6.7,27.5,0,40c1.2,2.3,2.7,4.4,4.4,6.3
	c9.2,1.1,18.4,1.7,27.6,1.7c84.6,0,162.5-46,203.3-120.2c-14.6-9.7-37.3-22.6-59.3-23.8c-22.5-2.2-45.1,3.4-64,16
	c-23.6,17.3-28.2,41.8-40,40c-8.3-1.2-12.9-14.6-16-24c-7.1-21.3-3.3-35.7-3.3-47.7c-9.8,7.8-20,15.1-30.6,21.7
	C222.9,326.8,223.6,327.6,224,328z"/>
<path class="st2" d="M248,288c-8.2-11.5-23.6-13.7-40-16c-34.4-4.8-47.9,10-64,0c-13.1-8.7-19.5-24.6-16-40
	c6.7-20.1,36.1-13.3,72-40c11.6-8.6,39.2-29.1,40-56c0.8-26.3-24.9-33.8-32-64c-3.1-13,2.7-42.9,17.3-71.8
	C139.2,2.7,61.5,52.7,23.6,130v0.1c-5.1,28.4-5,57.5,0.4,85.9c4.9,32.2,9.4,61.5,32,88c9.9,11.7,25.2,29.4,48,32
	c25.3,2.8,58.6-13.4,64-16c7.2-4.7,15.4-7.5,24-8c11.4,0.7,22.2,5.7,30.1,14c10.6-6.6,20.8-13.9,30.6-21.7
	C252.9,298.5,251.3,292.8,248,288z"/>
<path class="st4" d="M168,64c0,35.4-64,120-64,120s-39.9-52.8-56.7-92.4C43.2,83,40.7,73.6,40,64c0-35.3,28.7-64,64-64
	C139.4,0,168,28.7,168,64z"/>
<path class="st5" d="M128,56c0,13.3-10.7,24-24,24S80,69.3,80,56s10.7-24,24-24S128,42.8,128,56z"/>
<path class="st6" d="M408,280c-1.8,15-6.6,29.5-14.3,42.5c-14.7,27-31.3,52.9-49.7,77.5c0,0-21-27.8-39-58.2
	c-6.6-11-12.6-22.5-17.8-34.2c-4.1-8.7-6.6-18-7.3-27.6c0-35.3,28.7-64,64-64C379.4,216,408,244.7,408,280z"/>
<path class="st5" d="M368,272c0,13.3-10.7,24-24,24s-24-10.7-24-24s10.7-24,24-24S368,258.8,368,272z"/>
</svg>
