<?xml version="1.0" encoding="utf-8"?>
<!-- Generator: Adobe Illustrator 22.0.1, SVG Export Plug-In . SVG Version: 6.00 Build 0)  -->
<svg version="1.1" id="_x34_e463a22-6ddb-479b-a6e5-bedc922df74f"
	 xmlns="http://www.w3.org/2000/svg" xmlns:xlink="http://www.w3.org/1999/xlink" x="0px" y="0px" viewBox="0 0 1100 811.4"
	 style="enable-background:new 0 0 1100 811.4;" xml:space="preserve">
<style type="text/css">
	.st0{fill:#29335C;enable-background:new    ;}
	.st1{fill:url(#SVGID_1_);}
	.st2{fill:#3F3D56;}
	.st3{opacity:0.1;}
	.st4{fill:#FBBEBE;}
	.st5{fill:#575A89;}
	.st6{opacity:0.1;enable-background:new    ;}
	.st7{fill:#DB2B39;}
	.st8{fill:#D3D0CB;}
	.st9{fill:#F3A712;}
	.st10{fill:#444053;}
	.st11{fill:#F6F8FB;}
	.st12{opacity:5.000000e-02;enable-background:new    ;}
	.st13{opacity:0.1;fill:#6C63FF;enable-background:new    ;}
</style>
<title>feeling blue</title>
<path class="st0" d="M11.8,389C29.2,456.1,65.9,514.2,124,542.3c120.7,58.5,392.9,28.3,596.1-6.3c105.1-17.9,197.5-67.3,264.6-136.8
	L11.8,389z"/>
<path class="st0" d="M1077.2,73H965.7c-5.3,0-9.6-3.9-9.6-8.7s4.3-8.7,9.6-8.7H985c-5.3,0-9.6-3.9-9.6-8.7s4.3-8.7,9.6-8.7h-13.8
	c-5.3,0-9.6-3.9-9.6-8.7s4.3-8.7,9.6-8.7h58.2c-12.9-5.4-28-9.3-45.4-11.3C825.4-9,768.8,3.2,748.8,15.7
	c-24.9,15.8-52.6,26.8-81.5,32.3c-97.9,18.3-280.9,40.2-446.8-7C137.9,17.5,76.6,57.2,39.9,123.6h1056.7
	c-1.4-19.3-5.5-37.1-13.1-52.7C1081.7,72.3,1079.5,73,1077.2,73z"/>
<path class="st0" d="M2.4,248.9c-4.3,39-2.8,78.5,4.3,117.1l978.7,32.4c26.9-27.9,49.8-59.5,68-93.8L2.4,248.9z M389.5,332.4h-19.3
	c5.3,0,9.6,3.9,9.6,8.7s-4.3,8.7-9.6,8.7H258.7c-5.3,0-9.6-3.9-9.6-8.7s4.3-8.7,9.6-8.7H278c-5.3,0-9.6-3.9-9.6-8.7s4.3-8.7,9.6-8.7
	h-13.8c-5.3,0-9.6-3.9-9.6-8.7s4.3-8.7,9.6-8.7h111.5c5.3,0,9.6,3.9,9.6,8.7s-4.3,8.7-9.6,8.7h13.8c5.3,0,9.6,3.9,9.6,8.7
	S394.8,332.4,389.5,332.4z"/>
<path class="st0" d="M1096.6,124.2L28.1,147.7c-13,30.2-21.6,64.4-25.6,99.8h1075.3c7-20.7,12.2-42,15.5-63.6
	C1096.6,163.1,1097.9,143,1096.6,124.2z M219.5,201.3h-19.3c5.3,0,9.6,3.9,9.6,8.7c0,4.8-4.3,8.7-9.6,8.7H88.7
	c-5.3,0-9.6-3.9-9.6-8.7s4.3-8.7,9.6-8.7H108c-5.3,0-9.6-3.9-9.6-8.7s4.3-8.7,9.6-8.7H94.2c-5.3,0-9.6-3.9-9.6-8.7s4.3-8.7,9.6-8.7
	h111.5c5.3,0,9.6,3.9,9.6,8.7s-4.3,8.7-9.6,8.7h13.8c5.3,0,9.6,3.9,9.6,8.7S224.8,201.3,219.5,201.3z"/>
<ellipse class="st0" cx="545.1" cy="740" rx="447" ry="41.1"/>
<linearGradient id="SVGID_1_" gradientUnits="userSpaceOnUse" x1="942.1506" y1="9.6175" x2="942.1506" y2="503.6611" gradientTransform="matrix(1 0 0 -1 -49.99 767.5997)">
	<stop  offset="0" style="stop-color:#808080;stop-opacity:0.25"/>
	<stop  offset="0.54" style="stop-color:#808080;stop-opacity:0.12"/>
	<stop  offset="1" style="stop-color:#808080;stop-opacity:0.1"/>
</linearGradient>
<path class="st1" d="M1000.6,400.3c0-0.1,0-0.1,0-0.2c0-0.1,0-0.2,0-0.3l0,0c-0.2-1.1-0.6-2.2-1.3-3.2c-2.3-3.7-5.5-6.7-9.3-8.8
	c-6.6-3.6-15.7-5.2-18.3-12.1c-0.8-2.1-0.8-4.5-1.2-6.7c-1.4-7.1-6.5-12.9-13.4-15.2c-3.1-1-6.5-1.3-9.6-2.6
	c-6.8-2.9-10.4-10-13.5-16.7c-3.9-8.5-7.9-17.1-11.8-25.6c-3,1.5-6.9,0.8-9.7-1.1c-2.7-2-4.9-4.7-6.3-7.8
	c-4.1-7.9-5.8-16.9-10.6-24.4s-14.3-13.5-22.8-10.2c-1.6,0.8-3.4,1.5-5.1,2.1c-7.2,1.7-15.2-6.6-21.4-2.6c-1,0.7-1.9,1.6-2.4,2.7
	c0-0.1,0-0.1,0-0.2c-0.8,1.6-1.3,3.4-1.3,5.2l0,0c0,0.4,0,0.7,0,1.1c0,0.1,0,0.1,0,0.2c0,1.4,0.1,2.9,0.1,4.4c0,1.2-0.1,2.5-0.3,3.7
	v-0.1c-0.1,0.7-0.3,1.3-0.5,2c-1.6,4.3-6.1,7.1-8.2,11.2v-0.2c-0.2,0.4-0.4,0.9-0.6,1.4c-0.4,1.1-0.6,2.2-0.6,3.3
	c-0.2,7.6,7.9,14.8,8.8,23c0.7,5.8,2,7.7,6.9,10.9l1.1,0.7c-0.4,0-0.9,0.1-1.4,0.1c-0.2,0-0.4,0-0.6,0.1c-1.8-0.5-3.6-0.2-5.1,0.9
	c-3.8,3-12.7,0.7-16.7,0s-17.6,1.2-19.5,8.7s-5.2,23.1-5.2,23.1s0,9.9-1.2,11.7c0,0.1,0,0.3,0,0.4c0,2.8,0.1,19.4-2.6,23.7
	c-0.7,1-0.6,3.2-0.1,5.9c-2.8,3.6-5.5,7.9-5,10.6c0.9,5.7,12.4,23.6,28.9,14c0,0,9.4-17.2-2.4-26.4l0.5-2c3.6,4.4,6.2,7.6,6.2,7.6
	s0.1,0.4,0.4,1h-0.4c1.5,4.2,2.5,8.6,2.8,13.1c0,1.6-0.3,3.3-0.9,4.8h0.3c-0.1,0.3-0.2,0.7-0.3,1c-0.6,1.7-1.7,3.2-3.1,4.2
	c-8.3,5.9-17.7,47.7-17.7,47.7S787.8,552.2,784,556c-3.1,3.2,16.4,12.1,31,11c2-0.1,4.1-0.5,6-1.1c0.1,1,0.2,2,0.3,2.9
	c0.3,3,0.6,5.8,0.8,6.7c0.5,2.2,1.5,24.4,1.5,24.4s-2.1,14.5-1.6,24.5c0,0.7,0.1,1.3,0.2,2l-1.8,0.3c-2.8,6.2,8.6,57.9,10.2,62.3
	c1,3.4,1.6,7,1.7,10.5c0,0-1,3.7-0.2,5.7c0.5,1.2,0.9,2.5,1,3.8c0,0-0.7,3.3,0.3,5.5s-0.2,6-0.2,6s-0.3,15.1-3.4,23.3
	c-1.7,4.5-0.9,9.6,2.2,13.3c0.2,0.3,0.4,0.6,0.7,0.8c0,0,17.1,0.1,20.1,0h0.4c1.2-0.2,4.3-13.7,1.5-20.3s-0.3-14.6-0.3-14.6v-11.9
	c0,0,3.1-2.9,0-9s-2.6-8-2.6-8s3.5-9.9-0.2-13.1s0.7-15.2,0.7-15.2l1.2-40.2c-0.6-0.2-1.3-0.4-2-0.5c-0.1-0.7-0.1-1.3-0.2-2.1
	c-0.7-7.3-1.3-17.2,0.3-20s2.3-27.4,2.6-44.5l15.8,0.6c0.3,8,0.7,15.3,0.9,16.2c0.5,2.2,1.6,24.4,1.6,24.4s-2.1,14.5-1.6,24.5
	c0,0.7,0.1,1.3,0.2,2l-1.8,0.3c-2.8,6.2,8.6,57.9,10.2,62.3c1,3.4,1.6,7,1.7,10.5c0,0-1,3.7-0.2,5.7c0.5,1.2,0.9,2.5,1,3.8
	c0,0-0.7,3.3,0.3,5.5s-0.2,6-0.2,6s-0.3,15.1-3.4,23.3c-1.7,4.5-0.8,9.6,2.2,13.3c0.2,0.3,0.4,0.6,0.7,0.8c0,0,17.1,0.1,20.1,0h0.4
	c1.2-0.2,4.3-13.7,1.5-20.3s-0.3-14.6-0.3-14.6v-11.9c0,0,3.1-2.9,0-9s-2.6-8-2.6-8s3.5-9.9-0.2-13.1s0.7-15.2,0.7-15.2l1.2-40.2
	c-0.7-0.2-1.3-0.4-2-0.5c-0.1-0.7-0.1-1.3-0.2-2.1c-0.7-7.3-1.3-17.2,0.3-20c1.3-2.3,2-17.2,2.3-31.7c0-1,0-2,0.1-3
	c7.2-0.3,14.5-1.1,21.6-2.4c0,0-8.4-29.8-5.8-34.7c1.1-2.1-0.5-13.2-2.7-25.2c3.1,2.5,6.9,3.8,10.8,3.9c3.8,7.3,15.2,23.9,21.7,26.5
	c7.6,3,1.9-23.6-1.7-27.5c-1.7-2.1-3.1-4.4-4.3-6.9c0.1-0.1,0.2-0.2,0.3-0.3s0.2-28.3-1.5-27.8s-3.8-4.2-3.8-4.2l-5.3-46.9
	l-2.2-19.6l0,0c1.9,1.4,4.1,2.3,6,3.6c5.2,3.8,6.9,10.5,9.2,16.4c1.9,4.9,4.5,9.7,8.8,12.8s10.7,3.9,15,0.8c4-2.9,5.2-8.2,6.1-13
	c7.3,2.5,16.1-4.3,15.1-11.7c-0.2-1.8-0.9-3.9,0.1-5.5c1.9-3.2,8-1.3,10-4.5c0.3-0.5,0.5-1.2,0.5-1.8
	C1000.6,400.4,1000.6,400.4,1000.6,400.3z M903.5,426.1c-0.1,1.8,2.3,16.2,4.3,27.5c-1.6-7.1-4.9-14.7-11.4-19.9c0,0,0-0.4-0.1-1
	h0.1c0,0-0.3-2.9-0.3-6.9c0-3.6,0.3-7.2,0.8-10.8V415h-0.1c0-0.3,0.1-0.6,0.1-0.9c0.4-3,1.2-6,2.4-8.7c0.5-1.1,1.2-2.1,1.8-3.1
	C902.3,411.9,903.6,424.3,903.5,426.1L903.5,426.1z M908.9,459.4c0.9,4.9,1.5,8.4,1.5,8.4l5.3,36.5v0.2c-2.9-15.4-6.5-31.6-6.5-31.6
	C909.6,468.3,909.5,463.9,908.9,459.4z"/>
<path class="st2" d="M843.8,324.6c-1-9.2-11-17.2-8-26c1.6-4.8,6.7-7.7,8.5-12.5c1.1-3.1,0.6-6.6,0.6-9.9s0.8-7.1,3.6-8.9
	c6-4,13.7,4.2,20.7,2.5c1.7-0.6,3.3-1.3,4.9-2.1c8.2-3.2,17.4,2.7,22,10.1s6.3,16.4,10.2,24.3c1.3,3,3.4,5.7,6.1,7.7
	c2.7,1.9,6.4,2.6,9.4,1.1l11.5,25.5c3,6.6,6.4,13.7,13,16.6c2.9,1.3,6.2,1.6,9.3,2.6c6.7,2.4,11.7,8.1,13,15.1
	c0.4,2.2,0.4,4.6,1.2,6.7c2.5,6.9,11.3,8.4,17.7,12c3.7,2.1,6.8,5.1,9,8.7c1,1.7,1.9,4,0.8,5.7c-1.9,3.1-7.8,1.3-9.7,4.5
	c-0.9,1.6-0.3,3.6,0,5.4c0.9,7.4-7.6,14.2-14.6,11.7c-0.8,4.8-2,10-5.9,12.9c-4.2,3.1-10.3,2.3-14.5-0.8s-6.7-7.9-8.5-12.7
	c-2.2-5.9-3.9-12.6-8.9-16.4c-1.8-1.4-4-2.2-5.8-3.6c-4-3.1-6-8.1-7.4-13c-1.8-6.1-3.3-12.4-6-18.1s-6.9-11.1-12.7-13.8
	c-5.5-2.5-11.7-2.3-17.4-4.3c-9.7-3.4-16.9-11.6-26.5-15.4c-3.1-1.3-6-2.9-8.7-4.9C845.8,332.2,844.5,330.4,843.8,324.6z"/>
<g class="st3">
	<path d="M844.7,284.2c0.2-0.4,0.4-0.8,0.5-1.2c1.1-3.1,0.6-6.6,0.6-9.9c0-1.1,0.1-2.2,0.3-3.3c-0.9,2-1.4,4.1-1.3,6.3
		C844.9,278.7,845.2,281.5,844.7,284.2z"/>
	<path d="M968,435.2c-4.2,3.1-10.3,2.3-14.5-0.8s-6.7-7.8-8.5-12.7c-2.2-5.9-3.8-12.6-8.9-16.4c-1.8-1.4-4-2.2-5.8-3.6
		c-4-3.1-6-8.1-7.4-13c-1.8-6.1-3.3-12.4-6-18.1s-6.9-11.1-12.7-13.8c-5.4-2.5-11.7-2.3-17.3-4.3c-9.7-3.4-16.9-11.6-26.5-15.4
		c-3.1-1.3-6-3-8.7-4.9c-4.7-3.3-6-5.1-6.7-10.9c-1-8.7-9.8-16.2-8.4-24.4c-0.2,0.4-0.4,0.9-0.6,1.4c-3,8.8,7,16.8,8,26
		c0.7,5.8,2,7.6,6.7,10.9c2.7,2,5.6,3.6,8.7,4.9c9.6,3.8,16.8,12,26.5,15.4c5.6,2,11.9,1.8,17.3,4.3c5.8,2.6,10,8,12.7,13.8
		s4.2,12,6,18.1c1.5,4.8,3.4,9.9,7.4,13c1.8,1.4,4,2.2,5.8,3.6c5,3.8,6.7,10.5,8.9,16.4c1.8,4.9,4.4,9.6,8.6,12.7s10.3,3.9,14.5,0.8
		c2.7-2,4-5,4.9-8.3C971.1,431.9,969.8,433.8,968,435.2z"/>
	<path d="M988.6,405.2c-0.4,0.7-0.5,1.5-0.5,2.3c2.3-2.2,7.4-0.9,9.1-3.8c0.4-0.7,0.6-1.5,0.5-2.4
		C995.4,403.6,990.3,402.3,988.6,405.2z"/>
	<path d="M973.9,422.3c-0.2,1-0.4,2.1-0.6,3.1c6.1,1.9,13.2-3,14.2-9.2C985,421,979,424.2,973.9,422.3z"/>
</g>
<path class="st4" d="M856.8,329.4c0,0,3.3,6.7-6.5,6.9s6.3,43.6,6.3,43.6l16.3,20.8l20.3-11l1.2-30.3l1.5-18.3c0,0-19-6.2-15.5-14.3
	S856.8,329.4,856.8,329.4z"/>
<path class="st5" d="M915.8,506.8c0,0,12,11.8,26-3.9L931,491.5h-13.6L915.8,506.8z"/>
<path class="st6" d="M917.1,491.5l-1.7,15.3c0,0,12,11.8,26-3.9"/>
<path class="st4" d="M937.2,493.6c0,0,4.8,12.7,8.3,16.5c3.5,3.8,9,30.3,1.7,27.3s-21.3-25.3-22.2-29.2c-0.8-3.8-1.2-14.7-1.2-14.7
	L937.2,493.6z"/>
<polygon class="st5" points="832.4,558.6 897.1,561.1 889.6,533.7 857,533.1 "/>
<polygon class="st6" points="841.4,558.6 906.1,561.1 898.6,533.7 866,533.1 "/>
<path class="st4" d="M853.6,603.7c-1.5,2.8-0.9,12.7-0.2,20c0.4,4.6,0.9,8.2,0.9,8.2s-24.2,7.5-27.8,1c-0.9-1.7-1.4-4.5-1.5-7.9
	c-0.5-10,1.5-24.4,1.5-24.4s-1-22.2-1.5-24.3c-0.2-0.9-0.5-3.6-0.8-6.6c-0.4-4.4-0.9-9.4-0.9-9.4l33-17.5c0,0,0,3.3-0.1,8.3
	C856,566.9,855.5,600.2,853.6,603.7z"/>
<path class="st6" d="M854.2,631.9c0,0-24.2,7.5-27.8,1c-0.9-1.7-1.4-4.5-1.5-7.9c5-0.8,20.2-2.9,28.5-1.3
	C853.8,628.4,854.2,631.9,854.2,631.9z"/>
<path class="st7" d="M855.1,757.9h-0.4c-2.9,0.1-19.5,0-19.5,0c-0.2-0.3-0.5-0.5-0.7-0.8c-3-3.7-3.8-8.7-2.2-13.2
	c3-8.2,3.3-23.2,3.3-23.2s1.2-3.8,0.2-6s-0.3-5.5-0.3-5.5c-0.2-1.3-0.5-2.6-1-3.8c-0.8-2,0.2-5.7,0.2-5.7c-0.1-3.6-0.7-7.1-1.7-10.5
	c-1.5-4.3-12.5-55.8-9.8-62c0,0,23.3-4,32.2-1l-1.2,40c0,0-4.2,12-0.7,15.2s0.2,13,0.2,13s-0.5,1.8,2.5,8s0,9,0,9v11.8
	c0,0-2.3,8,0.3,14.5S856.2,757.7,855.1,757.9z"/>
<path class="st4" d="M900.9,603.7c-1.5,2.8-0.9,12.7-0.2,20c0.4,4.6,0.9,8.2,0.9,8.2s-24.2,7.5-27.8,1c-0.9-1.7-1.4-4.5-1.5-7.9
	c-0.5-10,1.5-24.4,1.5-24.4s-1-22.2-1.5-24.3c-0.3-1.2-0.7-12.3-1.1-22.3c-0.3-8.5-0.6-16.3-0.6-16.3l33,5.1c0,0,0,14.5-0.4,29.4
	C902.8,586.6,902.1,601.5,900.9,603.7z"/>
<path class="st6" d="M901.5,631.9c0,0-24.2,7.5-27.8,1c-0.9-1.7-1.4-4.5-1.5-7.9c5-0.8,20.2-2.9,28.5-1.3
	C901.1,628.4,901.5,631.9,901.5,631.9z"/>
<path class="st7" d="M902.4,757.9H902c-2.9,0.1-19.5,0-19.5,0c-0.2-0.3-0.5-0.5-0.7-0.8c-3-3.7-3.8-8.7-2.2-13.2
	c3-8.2,3.3-23.2,3.3-23.2s1.2-3.8,0.2-6s-0.3-5.5-0.3-5.5c-0.2-1.3-0.5-2.6-1-3.8c-0.8-2,0.2-5.7,0.2-5.7c-0.1-3.6-0.7-7.1-1.7-10.5
	c-1.5-4.3-12.5-55.8-9.8-62c0,0,23.3-4,32.2-1l-1.2,40c0,0-4.2,12-0.7,15.2s0.2,13,0.2,13s-0.5,1.8,2.5,8s0,9,0,9v11.8
	c0,0-2.3,8,0.3,14.5S903.5,757.7,902.4,757.9z"/>
<circle class="st6" cx="869.8" cy="313.8" r="23.5"/>
<circle class="st4" cx="869.8" cy="312.8" r="23.5"/>
<path class="st6" d="M823.2,560.2l33-17.5c0,0,0,3.3-0.1,8.3c-4.8,2.9-12.1,7.2-19.1,11.3c-3.8,2.2-7.5,4.4-10.7,6.2
	c-0.7,0.4-1.5,0.7-2.3,1C823.7,565.2,823.2,560.2,823.2,560.2z"/>
<path class="st6" d="M903.5,542.7c0,0,0,14.5-0.4,29.4H903c-2.5,0.1-4.9,0-7.4-0.2c-4.3-0.5-7.8-1.6-9-3.9
	c-2.5-4.4-9.5-10-15.5-14.2c-0.3-8.5-0.6-16.3-0.6-16.3L903.5,542.7z"/>
<path class="st8" d="M897.4,415.6c-0.8,6.5-1,13.1-0.5,19.6c15.2,12.5,12.3,38.8,12.3,38.8s11.7,53.3,9.2,58.2s5.7,34.5,5.7,34.5
	c-7,1.3-14,2.1-21.1,2.4c-2.5,0.1-4.9,0-7.4-0.2c-4.3-0.5-7.8-1.6-9-3.9c-4.7-8.2-24.8-20.3-24.8-20.3s-12.8,7.7-24.7,14.6
	c-3.8,2.2-7.5,4.4-10.7,6.2c-2.6,1.4-5.4,2.2-8.3,2.3c-14.2,1-33-7.8-30-11c3.7-3.8,21.8-71.2,21.8-71.2s9.2-41.7,17.2-47.5
	c1.4-1.1,2.4-2.5,3-4.2c2.7-7.6-1.8-19.8-1.8-19.8s-25.8-31.8-24.7-33.7s1.2-11.7,1.2-11.7s3.2-15.5,5-23s15-9.3,18.8-8.7
	s12.5,3,16.2,0s9.8,1.2,9.8,1.2l15.2,4.2l13.7-8c0,0,13.7,0.7,14.8,2.5s19.2,5.3,19.2,5.3c9.2,6.2,8.8,35.5,8.8,35.5
	s-22,19.2-26.5,29C898.6,409.7,897.8,412.6,897.4,415.6z"/>
<path class="st8" d="M921.2,373.9l5,4l5.2,46.5l5.2,46.7c0,0,2,4.7,3.7,4.2s1.5,27.7,1.5,27.7s-19.1-11.8-26,3.9l-5.3-37.7
	c0,0-6.8-38.5-6.7-41.5s-3.5-35.5-3.5-35.5L921.2,373.9z"/>
<path class="st5" d="M807.2,376.1l-3.7,4.5c0,0,0.3,19.3-2.5,24s7.8,32,11.8,30.3s13-44.3,13-44.8S807.2,376.1,807.2,376.1z"/>
<path class="st5" d="M806.9,403.6c0,0-11.7,11.8-10.8,17.5s12,23.5,28,13.9C824.1,435,838.9,407.1,806.9,403.6z"/>
<path class="st6" d="M854.7,758c-2.9,0.1-19.5,0-19.5,0c-0.2-0.3-0.5-0.5-0.7-0.8C838.8,755.7,847.9,753.6,854.7,758z"/>
<path class="st6" d="M902,758c-2.9,0.1-19.5,0-19.5,0c-0.2-0.3-0.5-0.5-0.7-0.8C886.1,755.7,895.2,753.6,902,758z"/>
<path class="st6" d="M838.3,464.8c-2.5,24.5-1.7,73-1.2,94.6c-3.8,2.2-7.5,4.4-10.7,6.2c-2.6,1.4-5.4,2.2-8.3,2.3
	C817,561.4,831.7,494.4,838.3,464.8z"/>
<path class="st6" d="M841.4,450.9c-0.1,0.4-1.3,5.7-3.1,13.9C839,457.8,840,452.8,841.4,450.9z"/>
<path class="st6" d="M882,448.3c0,0,14.2,89-27.8,100C854.2,548.3,883.2,543.9,882,448.3z"/>
<path class="st6" d="M903,569.2c-2.5,0.1-4.9,0-7.4-0.2l-11.3-121.7C891.5,452,900.2,538.3,903,569.2z"/>
<path class="st6" d="M852.2,298.9c0.8-0.1,1.5,0,2.2,0.2c1.1,0.5,2,1.2,2.8,2.1c2.7,2.2,6.3,2.9,9.5,1.9c1.1-0.5,2.4-0.8,3.6-1
	c1.9,0,3.6,1.4,4.5,3s1.5,3.5,2.3,5.2s2.2,3.3,4.1,3.8c0.9,0,1.8,0.2,2.6,0.6c0.5,0.4,0.9,0.9,1.1,1.5c1.6,3.4,2.8,7.4,6.1,9
	c1.2,0.6,2.6,0.9,3.9,0.9c1.4,0.1,2.7-0.1,4-0.7c1.2-0.7,2.2-1.7,2.9-2.9c2.1-3.4,2.3-7.7,1.8-11.7c-0.6-5-2.4-9.9-5.2-14.1
	c-6.1-8.7-16.3-13.4-26.8-12.4c-1.8,0.2-3.6,0.5-5.3,1c-6.4,1.7-12.6,4.9-16.5,10.2c-0.9,1.3-2,2.6-3.1,3.8
	C848.7,299.1,850.5,299,852.2,298.9z"/>
<path class="st2" d="M852.2,297.9c0.8-0.1,1.5,0,2.2,0.2c1.1,0.5,2,1.2,2.8,2.1c2.7,2.2,6.3,2.9,9.5,1.9c1.1-0.5,2.4-0.8,3.6-1
	c1.9,0,3.6,1.4,4.5,3s1.5,3.5,2.3,5.2s2.2,3.3,4.1,3.8c0.9,0,1.8,0.2,2.6,0.6c0.5,0.4,0.9,0.9,1.1,1.5c1.6,3.4,2.8,7.4,6.1,9
	c1.2,0.6,2.6,0.9,3.9,0.9c1.4,0.1,2.7-0.1,4-0.7c1.2-0.7,2.2-1.7,2.9-2.9c2.1-3.4,2.3-7.7,1.8-11.7c-0.6-5-2.4-9.9-5.2-14.1
	c-6.1-8.7-16.3-13.4-26.8-12.4c-1.8,0.2-3.6,0.5-5.3,1c-6.4,1.7-12.6,4.9-16.5,10.2c-0.9,1.3-2,2.6-3.1,3.8
	C848.7,298.1,850.5,298,852.2,297.9z"/>
<path class="st6" d="M826.8,353.9c0,0,1.2,9.3-2.8,11.7S826.8,353.9,826.8,353.9z"/>
<path class="st6" d="M911.6,426.2c0,0,9.5-14,10.8-10S911.6,426.2,911.6,426.2z"/>
<path class="st6" d="M912.2,430.9c0,0,9.4-11.5,10.3-7S912.2,430.9,912.2,430.9z"/>
<path class="st6" d="M884.7,417.2c-3.4,0-6.7-1-9.4-3.1h-0.8c-2.8,2.6-6.5,3.9-10.3,3.9c-4,0.1-7.8-1.5-10.7-4.3h-1.1
	c-5.9,4.8-14.5,4.7-20.3-0.4l-3.9-0.1c0,0,4.6,12.2,1.8,19.8l66.8,1.2c-0.5-6.5-0.4-13.1,0.5-19.6v-0.1l-3.7-0.1
	C891.1,416.3,887.9,417.3,884.7,417.2z"/>
<path class="st6" d="M884.7,419.2c-3.4,0-6.7-1-9.4-3.1h-0.8c-2.8,2.6-6.5,3.9-10.3,3.9c-4,0.1-7.8-1.5-10.7-4.3h-1.1
	c-5.9,4.8-14.5,4.7-20.3-0.4l-3.9-0.1c0,0,4.6,12.2,1.8,19.8l66.8,1.2c-0.5-6.5-0.4-13.1,0.5-19.6v-0.1l-3.7-0.1
	C891.1,418.3,887.9,419.3,884.7,419.2z"/>
<path class="st7" d="M884.7,418.2c-3.4,0-6.7-1-9.4-3.1h-0.8c-2.8,2.6-6.5,3.9-10.3,3.9c-4,0.1-7.8-1.5-10.7-4.3h-1.1
	c-5.9,4.8-14.5,4.7-20.3-0.4l-3.9-0.1c0,0,4.6,12.2,1.8,19.8l66.8,1.2c-0.5-6.5-0.4-13.1,0.5-19.6v-0.1l-3.7-0.1
	C891.1,417.3,887.9,418.3,884.7,418.2z"/>
<path class="st6" d="M881.8,351.5c0,0,14.1,0.9,14.2,2.9S881.8,351.5,881.8,351.5z"/>
<path class="st6" d="M847.6,343c0,0-14.1,0.9-14.2,2.9S847.6,343,847.6,343z"/>
<path class="st6" d="M901.4,383.9c-0.1-0.1-0.3-0.2-0.4-0.3c3.6,3.2,3,10.3-1.4,16.2s-11.1,8.3-15.2,5.6c0.1,0.1,0.2,0.2,0.4,0.3
	c4,3.1,11,0.7,15.6-5.4S905.4,387,901.4,383.9z"/>
<path class="st6" d="M824.1,399c-3.6-6.4-3.1-13.5,0.9-16.2c-0.2,0.1-0.3,0.1-0.5,0.2c-4.4,2.5-5,9.8-1.3,16.5s10.3,10,14.7,7.6
	c0.1-0.1,0.3-0.2,0.4-0.3C833.9,408.8,827.6,405.5,824.1,399z"/>
<path class="st6" d="M828.8,344.9L828.8,344.9l-1.3,2l-3.3-1.8l1.7-2.7C827.1,343,828.1,343.9,828.8,344.9z"/>
<path class="st4" d="M807.9,418.9c0,0,2.9-13.8-1-18.2s-2.7-27.3,3.3-26.8s15,18.7,13.5,22.5s-7.2,23.5-7.2,23.5L807.9,418.9z"/>
<path class="st6" d="M902,319.5c-0.7,1.2-1.7,2.2-2.9,2.9c-1.3,0.6-2.6,0.8-4,0.7c-1.3,0-2.7-0.3-3.9-0.9c-3.3-1.7-4.6-5.6-6.1-9
	c-0.2-0.6-0.5-1.2-1-1.6c-0.8-0.4-1.7-0.6-2.6-0.6c-1.9-0.4-3.2-2-4.1-3.8s-1.4-3.6-2.3-5.2s-2.6-3.1-4.5-3c-1.2,0.2-2.5,0.5-3.6,1
	c-3.3,1.1-6.9,0.4-9.5-1.9c-0.8-0.9-1.8-1.6-2.8-2.1c-0.7-0.2-1.5-0.3-2.2-0.2c-1.2,0-2.3,0.1-3.4,0.2c-0.6,0.7-1.2,1.5-1.8,2.1
	c1.8-0.1,3.5-0.3,5.3-0.3c0.8-0.1,1.5,0,2.2,0.2c1.1,0.5,2,1.2,2.8,2.1c2.7,2.2,6.3,2.9,9.5,1.9c1.1-0.5,2.3-0.9,3.6-1
	c1.9,0,3.6,1.4,4.5,3s1.5,3.5,2.3,5.2s2.2,3.3,4.1,3.8c0.9,0,1.8,0.3,2.6,0.6c0.5,0.4,0.9,0.9,1.1,1.5c1.6,3.4,2.8,7.4,6.1,9
	c1.2,0.6,2.6,0.9,3.9,0.9c1.4,0.1,2.7-0.1,4-0.7c1.2-0.7,2.2-1.7,2.9-2.9c1.6-2.8,2.2-6,2-9.3C904,314.8,903.3,317.3,902,319.5z"/>
<ellipse class="st5" cx="812.3" cy="423.7" rx="9" ry="6.1"/>
<circle class="st9" cx="519" cy="454.8" r="308.5"/>
<path class="st10" d="M680.9,609.8c0,48.7-76.6,4.2-158.6,4.2s-165.1,42.7-165.1-6c0-27.8,26.5-66.4,64.4-94.4l0,0
	c28.6-21.1,63.7-36.3,99-36.3c36.3,0,71.8,16.4,100.2,38.9C656.5,544.5,680.9,582.6,680.9,609.8z"/>
<path class="st11" d="M620.7,516.1c-43.6-6.6-122.5-14.6-199.2-2.6c28.6-21.1,63.7-36.3,99-36.3
	C556.8,477.2,592.4,493.6,620.7,516.1z"/>
<path class="st12" d="M357.1,237c0,0-92.9,59.4-92.2,152.3S357.1,237,357.1,237z"/>
<ellipse class="st13" cx="203.1" cy="806.9" rx="26.9" ry="4.5"/>
<path class="st10" d="M409.3,414.3c5.9-0.3,33.5-2.4,51-12.4c2.8-1.7,6-2.6,9.3-2.7c5.6-0.2,12,2.2,7.9,15.2
	c-6.7,21.3-45.3,45.3-69.3,44c-23.1-1.3-50.5-10.6-68.5-43.3c-1.7-3.1-2.6-6.7-2.5-10.3c0.2-6.6,2.6-14.9,15-5.6
	c16.7,12.5,48.5,14.8,54.9,15.2C407.8,414.4,408.6,414.4,409.3,414.3z"/>
<path class="st10" d="M631.3,414.3c5.9-0.3,33.5-2.4,51-12.4c2.8-1.7,6-2.6,9.3-2.7c5.6-0.2,12,2.2,7.9,15.2
	c-6.7,21.3-45.3,45.3-69.3,44c-23.1-1.3-50.5-10.6-68.5-43.3c-1.7-3.1-2.6-6.7-2.5-10.3c0.2-6.6,2.6-14.9,15-5.6
	c16.7,12.5,48.5,14.8,54.9,15.2C629.8,414.4,630.6,414.4,631.3,414.3z"/>
</svg>
