<?xml version="1.0" encoding="UTF-8"?>
<svg width="167px" height="121px" viewBox="0 0 167 121" version="1.1" xmlns="http://www.w3.org/2000/svg" xmlns:xlink="http://www.w3.org/1999/xlink">
    <!-- Generator: Sketch 52.5 (67469) - http://www.bohemiancoding.com/sketch -->
    <title>looser</title>
    <desc>Created with Sketch.</desc>
    <defs>
        <linearGradient x1="49.9653648%" y1="100.007641%" x2="49.9653648%" y2="0.028549176%" id="linearGradient-1">
            <stop stop-color="#808080" stop-opacity="0.25" offset="0%"></stop>
            <stop stop-color="#808080" stop-opacity="0.12" offset="54%"></stop>
            <stop stop-color="#808080" stop-opacity="0.1" offset="100%"></stop>
        </linearGradient>
    </defs>
    <g id="Page-1" stroke="none" stroke-width="1" fill="none" fill-rule="evenodd">
        <g id="Can-do-Better-Screen" transform="translate(-105.000000, -152.000000)">
            <g id="looser" transform="translate(105.000000, 152.000000)">
                <path d="M2,58 C4.66481653,68.0829863 10.2854353,76.8135601 19.1834721,81.0360924 C37.6687224,89.8267735 79.3562545,85.2886783 110.476411,80.0894037 C126.572515,77.3996055 140.72361,69.9763638 151,59.5327341 L2,58 Z" id="Path" fill="#29335C"></path>
                <path d="M164.044194,10.6290692 L147.055929,10.6290692 C146.248415,10.6290692 145.593262,10.0609539 145.593262,9.36173521 C145.593262,8.66251647 146.248415,8.09440125 147.055929,8.09440125 L149.996499,8.09440125 C149.188985,8.09440125 148.533832,7.52628603 148.533832,6.82706729 C148.533832,6.12784856 149.188985,5.55973334 149.996499,5.55973334 L147.893915,5.55973334 C147.086401,5.55973334 146.431248,4.99161811 146.431248,4.29239938 C146.431248,3.59318064 147.086401,3.02506542 147.893915,3.02506542 L156.761332,3.02506542 C154.795874,2.23844434 152.495221,1.67032912 149.844137,1.37898798 C125.679663,-1.31591756 117.056023,0.461263392 114.008801,2.28214551 C110.215009,4.58374052 105.994606,6.18611679 101.591369,6.98730492 C86.6752153,9.65307635 58.7931296,12.8432618 33.516419,5.96761093 C20.9313902,2.54435254 11.5916533,8.32747416 6,18 L167,18 C166.786694,15.188558 166.162014,12.5956219 165.004069,10.323161 C164.729819,10.5270998 164.394625,10.6290692 164.044194,10.6290692 Z" id="Path" fill="#29335C"></path>
                <path d="M0.364720979,36 C-0.288401475,42 -0.060568061,48.0769231 1.01784343,54.0153846 L149.671552,59 C153.757364,54.7076923 157.235621,49.8461538 160,44.5692308 L0.364720979,36 Z M59.1609308,48.8461538 L56.2294742,48.8461538 C57.0344856,48.8461538 57.687608,49.4461538 57.687608,50.1846154 C57.687608,50.9230769 57.0344856,51.5230769 56.2294742,51.5230769 L39.2938571,51.5230769 C38.4888457,51.5230769 37.8357232,50.9230769 37.8357232,50.1846154 C37.8357232,49.4461538 38.4888457,48.8461538 39.2938571,48.8461538 L42.2253137,48.8461538 C41.4203023,48.8461538 40.7671798,48.2461538 40.7671798,47.5076923 C40.7671798,46.7692308 41.4203023,46.1692308 42.2253137,46.1692308 L40.1292462,46.1692308 C39.3242348,46.1692308 38.6711124,45.5692308 38.6711124,44.8307692 C38.6711124,44.0923077 39.3242348,43.4923077 40.1292462,43.4923077 L57.0648634,43.4923077 C57.8698748,43.4923077 58.5229972,44.0923077 58.5229972,44.8307692 C58.5229972,45.5692308 57.8698748,46.1692308 57.0648634,46.1692308 L59.1609308,46.1692308 C59.9659422,46.1692308 60.6190646,46.7692308 60.6190646,47.5076923 C60.6190646,48.2461538 59.9659422,48.8461538 59.1609308,48.8461538 Z" id="Shape" fill="#29335C" fill-rule="nonzero"></path>
                <path d="M166.924582,19 L4.882341,22.4306569 C2.91083971,26.8394161 1.60661578,31.8321168 1,37 L164.073487,37 C165.135065,33.9781022 165.923666,30.8686131 166.424124,27.7153285 C166.924582,24.6788321 167.121732,21.7445255 166.924582,19 Z M33.9089061,30.2554745 L30.981985,30.2554745 C31.7857509,30.2554745 32.4378629,30.8248175 32.4378629,31.5255474 C32.4378629,32.2262774 31.7857509,32.7956204 30.981985,32.7956204 L14.0725701,32.7956204 C13.2688042,32.7956204 12.6166922,32.2262774 12.6166922,31.5255474 C12.6166922,30.8248175 13.2688042,30.2554745 14.0725701,30.2554745 L16.9994912,30.2554745 C16.1957253,30.2554745 15.5436134,29.6861314 15.5436134,28.9854015 C15.5436134,28.2846715 16.1957253,27.7153285 16.9994912,27.7153285 L14.9066668,27.7153285 C14.1029009,27.7153285 13.4507889,27.1459854 13.4507889,26.4452555 C13.4507889,25.7445255 14.1029009,25.1751825 14.9066668,25.1751825 L31.8160817,25.1751825 C32.6198476,25.1751825 33.2719596,25.7445255 33.2719596,26.4452555 C33.2719596,27.1459854 32.6198476,27.7153285 31.8160817,27.7153285 L33.9089061,27.7153285 C34.7126721,27.7153285 35.364784,28.2846715 35.364784,28.9854015 C35.364784,29.6861314 34.7126721,30.2554745 33.9089061,30.2554745 Z" id="Shape" fill="#29335C" fill-rule="nonzero"></path>
                <ellipse id="Oval" fill="#29335C" cx="83" cy="110" rx="68" ry="6"></ellipse>
                <path d="M151.969603,59.4416596 C151.969603,59.4266843 151.969603,59.4266843 151.969603,59.411709 C151.969603,59.3967337 151.969603,59.3817584 151.969603,59.3667831 C151.939206,59.2020548 151.878413,59.0373265 151.772024,58.8875734 C151.422462,58.3334872 150.936113,57.8842281 150.358575,57.5697467 C149.355482,57.0306358 147.972429,56.791031 147.577271,55.757735 C147.455684,55.4432537 147.455684,55.0838464 147.394891,54.7543897 C147.182113,53.6911432 146.406996,52.8225756 145.358308,52.4781436 C144.887158,52.3283906 144.370413,52.2834647 143.899263,52.0887857 C142.865773,51.6545019 142.318631,50.5912554 141.847482,49.5879101 C141.254745,48.3150093 140.64681,47.0271332 140.054073,45.7542324 C139.598121,45.978862 139.005384,45.8740348 138.57983,45.5895041 C138.169474,45.289998 137.835109,44.8856648 137.622332,44.4214304 C136.999198,43.2383815 136.740826,41.8906042 136.011303,40.7674564 C135.281781,39.6443087 133.837935,38.7457905 132.546073,39.2399755 C132.302899,39.3597779 132.029328,39.464605 131.770955,39.5544568 C130.676672,39.809037 129.460801,38.5660868 128.518502,39.165099 C128.366518,39.2699261 128.229733,39.4047038 128.153741,39.5694321 C128.153741,39.5544568 128.153741,39.5544568 128.153741,39.5394815 C128.032154,39.7790864 127.956162,40.0486419 127.956162,40.3181973 C127.956162,40.3780985 127.956162,40.4230244 127.956162,40.4829256 C127.956162,40.497901 127.956162,40.497901 127.956162,40.5128763 C127.956162,40.7225305 127.97136,40.9471601 127.97136,41.1717896 C127.97136,41.3514932 127.956162,41.5461722 127.925765,41.7258758 L127.925765,41.7109005 C127.910567,41.8157276 127.88017,41.9055795 127.849773,42.0104066 C127.606599,42.6543446 126.922672,43.0736531 126.603506,43.6876406 L126.603506,43.65769 C126.573109,43.7175912 126.542712,43.7924677 126.512316,43.8673442 C126.451522,44.0320725 126.421125,44.1968009 126.421125,44.3615292 C126.390728,45.4996523 127.621797,46.5778741 127.758583,47.805849 C127.864971,48.6744166 128.06255,48.9589473 128.807271,49.438157 L128.974453,49.5429842 C128.91366,49.5429842 128.837668,49.5579595 128.761676,49.5579595 C128.731279,49.5579595 128.700882,49.5579595 128.670486,49.5729348 C128.396915,49.4980582 128.123344,49.5429842 127.895368,49.7077125 C127.31783,50.1569716 125.965174,49.8125396 125.357239,49.7077125 C124.749303,49.6028854 122.682324,49.8874161 122.393554,51.0105639 C122.104785,52.1337116 121.603239,54.4698589 121.603239,54.4698589 C121.603239,54.4698589 121.603239,55.952414 121.420858,56.2219694 C121.420858,56.2369447 121.420858,56.2668953 121.420858,56.2818706 C121.420858,56.7011791 121.436056,59.1870795 121.0257,59.8310175 C120.919311,59.9807706 120.93451,60.3102272 121.010502,60.7145604 C120.584947,61.2536713 120.174591,61.8976094 120.250583,62.3019426 C120.387368,63.1555349 122.135182,65.8361142 124.642915,64.398485 C124.642915,64.398485 126.071562,61.8227329 124.278154,60.445005 L124.354145,60.1454989 C124.901287,60.8044122 125.296445,61.283622 125.296445,61.283622 C125.296445,61.283622 125.311643,61.3435232 125.357239,61.433375 L125.296445,61.433375 C125.524421,62.0623377 125.676405,62.7212511 125.722,63.3951397 C125.722,63.6347446 125.676405,63.8893247 125.585214,64.1139543 L125.630809,64.1139543 C125.615611,64.1588802 125.600413,64.2187814 125.585214,64.2637073 C125.494024,64.5182875 125.326842,64.742917 125.114065,64.8926701 C123.852599,65.776213 122.423951,72.0358897 122.423951,72.0358897 C122.423951,72.0358897 119.627449,82.1891454 119.049911,82.7582069 C118.578761,83.2374166 121.542445,84.5702186 123.761409,84.4054903 C124.065376,84.390515 124.384542,84.3306138 124.673311,84.2407619 C124.68851,84.390515 124.703708,84.540268 124.718907,84.6750457 C124.764502,85.1243048 124.810097,85.5436133 124.840494,85.6783911 C124.916486,86.0078477 125.068469,89.3323651 125.068469,89.3323651 C125.068469,89.3323651 124.749303,91.503784 124.825295,93.0013144 C124.825295,93.1061415 124.840494,93.1959933 124.855692,93.3008204 L124.582121,93.3457464 C124.156567,94.2742152 125.889182,102.016447 126.132356,102.67536 C126.28434,103.184521 126.37553,103.723632 126.390728,104.247767 C126.390728,104.247767 126.238745,104.801853 126.360332,105.101359 C126.436324,105.281063 126.497117,105.475742 126.512316,105.670421 C126.512316,105.670421 126.405927,106.164606 126.557911,106.494063 C126.709894,106.823519 126.527514,107.392581 126.527514,107.392581 C126.527514,107.392581 126.481919,109.653852 126.010769,110.881827 C125.752397,111.555715 125.873984,112.319456 126.345133,112.873542 C126.37553,112.918468 126.405927,112.963394 126.451522,112.993344 C126.451522,112.993344 129.050445,113.00832 129.506397,112.993344 L129.56719,112.993344 C129.749571,112.963394 130.22072,110.941728 129.795166,109.953358 C129.369611,108.964988 129.749571,107.766963 129.749571,107.766963 L129.749571,105.984902 C129.749571,105.984902 130.22072,105.550619 129.749571,104.637125 C129.278421,103.723632 129.354413,103.439101 129.354413,103.439101 C129.354413,103.439101 129.886356,101.956546 129.324016,101.477336 C128.761676,100.998126 129.430405,99.20109 129.430405,99.20109 L129.612785,93.181018 C129.521595,93.1510674 129.415206,93.1211168 129.308818,93.1061415 C129.293619,93.0013144 129.293619,92.9114626 129.278421,92.7916601 C129.172032,91.698463 129.080842,90.215908 129.324016,89.7965995 C129.56719,89.377291 129.673579,85.6933664 129.719174,83.1325895 L132.120518,83.2224413 C132.166113,84.4204656 132.226907,85.5136627 132.257303,85.6484405 C132.333295,85.9778971 132.500478,89.3024145 132.500478,89.3024145 C132.500478,89.3024145 132.181312,91.4738334 132.257303,92.9713638 C132.257303,93.0761909 132.272502,93.1660427 132.2877,93.2708698 L132.014129,93.3157958 C131.588575,94.2442646 133.32119,101.986496 133.564364,102.64541 C133.716348,103.15457 133.807538,103.693681 133.822737,104.217817 C133.822737,104.217817 133.670753,104.771903 133.79234,105.071409 C133.868332,105.251112 133.929125,105.445791 133.944324,105.64047 C133.944324,105.64047 133.837935,106.134655 133.989919,106.464112 C134.141903,106.793569 133.959522,107.36263 133.959522,107.36263 C133.959522,107.36263 133.913927,109.623901 133.442777,110.851876 C133.184405,111.525765 133.32119,112.289505 133.777142,112.843591 C133.807538,112.888517 133.837935,112.933443 133.88353,112.963394 C133.88353,112.963394 136.482453,112.978369 136.938405,112.963394 L136.999198,112.963394 C137.181579,112.933443 137.652729,110.911777 137.227174,109.923407 C136.801619,108.935037 137.181579,107.737013 137.181579,107.737013 L137.181579,105.954952 C137.181579,105.954952 137.652729,105.520668 137.181579,104.607174 C136.710429,103.693681 136.786421,103.40915 136.786421,103.40915 C136.786421,103.40915 137.318364,101.926595 136.756024,101.447385 C136.193684,100.968176 136.862413,99.1711393 136.862413,99.1711393 L137.044793,93.1510674 C136.938405,93.1211168 136.847214,93.0911662 136.740826,93.0761909 C136.725627,92.9713638 136.725627,92.881512 136.710429,92.7617095 C136.60404,91.6685124 136.51285,90.1859574 136.756024,89.7666489 C136.953603,89.4222169 137.059992,87.1908967 137.105587,85.0194777 C137.105587,84.8697247 137.105587,84.7199716 137.120785,84.5702186 C138.215069,84.5252927 139.32455,84.4054903 140.403636,84.2108113 C140.403636,84.2108113 139.126972,79.7481709 139.522129,79.0143811 C139.689312,78.6998997 139.446138,77.037641 139.111773,75.2406046 C139.582923,75.6149872 140.160461,75.8096662 140.753198,75.8246415 C141.330737,76.9178386 143.063352,79.403739 144.051247,79.7930969 C145.206324,80.242356 144.340016,76.2589253 143.792874,75.6748884 C143.534502,75.3604071 143.321725,75.0159751 143.139344,74.6415925 C143.154542,74.6266172 143.169741,74.6116419 143.184939,74.5966666 C143.200138,74.5816913 143.215336,70.3586558 142.956963,70.4335323 C142.698591,70.5084088 142.379425,69.8045695 142.379425,69.8045695 L141.573911,62.7811523 L141.239546,59.8459928 C141.528316,60.0556471 141.86268,60.1904248 142.151449,60.3851038 C142.941765,60.9541653 143.200138,61.9575106 143.5497,62.8410535 C143.83847,63.5748434 144.233627,64.2936579 144.887158,64.7578923 C145.540688,65.2221267 146.513385,65.3419292 147.166915,64.8776948 C147.77485,64.443411 147.957231,63.6497199 148.094016,62.9309053 C149.203498,63.3052879 150.540955,62.2869673 150.388972,61.1787948 C150.358575,60.9092394 150.252186,60.594758 150.40417,60.3551532 C150.692939,59.8759434 151.62004,60.1604742 151.924008,59.6812645 C151.969603,59.606388 152,59.5015609 152,59.411709 C151.969603,59.456635 151.969603,59.456635 151.969603,59.4416596 Z M137.211976,63.3052879 C137.196777,63.5748434 137.561538,65.731287 137.865506,67.4234963 C137.622332,66.3602498 137.120785,65.2221267 136.132891,64.443411 C136.132891,64.443411 136.132891,64.3835097 136.117692,64.2936579 L136.132891,64.2936579 C136.132891,64.2936579 136.087295,63.8593741 136.087295,63.260362 C136.087295,62.7212511 136.132891,62.1821402 136.208882,61.6430292 L136.193684,61.6430292 C136.193684,61.5981033 136.208882,61.5531774 136.208882,61.5082515 C136.269676,61.0589924 136.391263,60.6097333 136.573644,60.2054001 C136.649635,60.0406718 136.756024,59.8909187 136.847214,59.7411657 C137.029595,61.1787948 137.227174,63.0357324 137.211976,63.3052879 Z M138.032688,68.2920639 C138.169474,69.0258538 138.260664,69.5499894 138.260664,69.5499894 L139.066178,75.0159751 L139.066178,75.0459257 C138.625425,72.739729 138.078283,70.3137299 138.078283,70.3137299 C138.139077,69.6248659 138.123878,68.9659526 138.032688,68.2920639 Z" id="Shape" fill="url(#linearGradient-1)" fill-rule="nonzero"></path>
                <path d="M128.316294,48.7245343 C128.162508,47.3504226 126.624644,46.1555428 127.086003,44.8411751 C127.332061,44.1242472 128.116372,43.6911033 128.393187,42.9741755 C128.562352,42.5111595 128.485459,41.9883996 128.485459,41.4955117 C128.485459,41.0026238 128.608488,40.435056 129.03909,40.166208 C129.961808,39.5687681 131.145962,40.7935199 132.222467,40.5396079 C132.483904,40.449992 132.729962,40.34544 132.97602,40.225952 C134.237068,39.7480001 135.651902,40.6292239 136.359319,41.7344877 C137.066736,42.8397515 137.328173,44.1839912 137.92794,45.363935 C138.127862,45.8120149 138.450813,46.2152868 138.866036,46.5140068 C139.281259,46.7977907 139.850269,46.9023427 140.311628,46.6783027 L142.080171,50.486982 C142.54153,51.4727578 143.064403,52.5332136 144.079393,52.9663575 C144.525373,53.1605255 145.032868,53.2053335 145.509606,53.3546934 C146.539974,53.7131574 147.308906,54.5645092 147.508828,55.610029 C147.570343,55.9386209 147.570343,56.2970848 147.693372,56.6107408 C148.077837,57.6413246 149.431157,57.8653645 150.41539,58.4030604 C150.984399,58.7167164 151.461137,59.1647963 151.799467,59.7024922 C151.953253,59.9564041 152.091661,60.2999321 151.922496,60.553844 C151.630302,61.0168599 150.722962,60.748012 150.430768,61.2259639 C150.292361,61.4649398 150.384632,61.7636598 150.430768,62.0325077 C150.569176,63.1377715 149.261992,64.1534193 148.185488,63.7800194 C148.062459,64.4969472 147.877915,65.2736191 147.278149,65.706763 C146.632246,66.1697789 145.694149,66.0502909 145.048247,65.587275 C144.402344,65.1242591 144.017878,64.4073313 143.741063,63.6904034 C143.402733,62.8091796 143.141296,61.8084678 142.372365,61.2408999 C142.095549,61.0317959 141.757219,60.9123079 141.480404,60.703204 C140.865259,60.2401881 140.557686,59.4933882 140.342385,58.7615244 C140.06557,57.8504285 139.83489,56.9094607 139.419667,56.0581089 C139.004444,55.2067571 138.358541,54.4002132 137.466581,53.9969413 C136.620756,53.6235414 135.667281,53.6534134 134.790698,53.3546934 C133.298971,52.8468695 132.191709,51.6221178 130.715361,51.0545499 C130.238623,50.8603819 129.792643,50.621406 129.37742,50.322686 C128.623867,49.8596701 128.423944,49.5908222 128.316294,48.7245343 Z" id="Path" fill="#3F3D56"></path>
                <g id="Group" opacity="0.1" transform="translate(127.000000, 41.000000)" fill="#000000">
                    <path d="M1.48773006,2.29767442 C1.51840491,2.2372093 1.54907975,2.17674419 1.56441718,2.11627907 C1.73312883,1.64767442 1.65644172,1.11860465 1.65644172,0.619767442 C1.65644172,0.453488372 1.67177914,0.287209302 1.70245399,0.120930233 C1.56441718,0.423255814 1.48773006,0.740697674 1.50306748,1.07325581 C1.51840491,1.46627907 1.56441718,1.88953488 1.48773006,2.29767442 Z" id="Path"></path>
                    <path d="M20.398773,25.1232558 C19.7546012,25.5918605 18.8190184,25.4709302 18.1748466,25.0023256 C17.5306748,24.5337209 17.1472393,23.8232558 16.8711656,23.0825581 C16.5337423,22.1906977 16.2883436,21.177907 15.506135,20.6034884 C15.2300613,20.3918605 14.892638,20.2709302 14.6165644,20.0593023 C14.0030675,19.5906977 13.696319,18.8348837 13.4815951,18.094186 C13.2055215,17.172093 12.9754601,16.2197674 12.5613497,15.3581395 C12.1472393,14.4965116 11.5030675,13.6802326 10.6134969,13.272093 C9.78527607,12.894186 8.8190184,12.9244186 7.9601227,12.622093 C6.47239264,12.1081395 5.36809816,10.8686047 3.89570552,10.294186 C3.4202454,10.0976744 2.97546012,9.84069767 2.56134969,9.55348837 C1.8404908,9.05465116 1.64110429,8.78255814 1.53374233,7.90581395 C1.3803681,6.59069767 0.0306748466,5.45697674 0.245398773,4.21744186 C0.214723926,4.27790698 0.18404908,4.35348837 0.153374233,4.42906977 C-0.306748466,5.75930233 1.22699387,6.96860465 1.3803681,8.35930233 C1.48773006,9.23604651 1.68711656,9.50813953 2.40797546,10.0069767 C2.82208589,10.3093023 3.26687117,10.5511628 3.74233129,10.7476744 C5.21472393,11.322093 6.3190184,12.5616279 7.80674847,13.0755814 C8.66564417,13.377907 9.63190184,13.3476744 10.4601227,13.7255814 C11.3496933,14.1186047 11.993865,14.9348837 12.4079755,15.8116279 C12.8220859,16.6883721 13.0521472,17.6255814 13.3282209,18.5476744 C13.5582822,19.2732558 13.8496933,20.044186 14.4631902,20.5127907 C14.7392638,20.7244186 15.0766871,20.8453488 15.3527607,21.0569767 C16.1196319,21.6313953 16.3803681,22.644186 16.7177914,23.5360465 C16.993865,24.2767442 17.392638,24.9872093 18.0368098,25.455814 C18.6809816,25.9244186 19.6165644,26.0453488 20.2607362,25.5767442 C20.6748466,25.2744186 20.8742331,24.8209302 21.0122699,24.322093 C20.8742331,24.6244186 20.6748466,24.9116279 20.398773,25.1232558 Z" id="Path"></path>
                    <path d="M23.5582822,20.5883721 C23.4969325,20.694186 23.4815951,20.8151163 23.4815951,20.9360465 C23.8343558,20.6034884 24.6165644,20.8 24.8773006,20.3616279 C24.9386503,20.255814 24.9693252,20.1348837 24.9539877,19.9988372 C24.601227,20.3465116 23.8190184,20.15 23.5582822,20.5883721 Z" id="Path"></path>
                    <path d="M21.303681,23.1732558 C21.2730061,23.3244186 21.2423313,23.4906977 21.2116564,23.6418605 C22.1472393,23.9290698 23.2361963,23.1883721 23.3895706,22.2511628 C23.006135,22.9767442 22.0858896,23.4604651 21.303681,23.1732558 Z" id="Path"></path>
                </g>
                <path d="M130.387163,48.8051187 C130.387163,48.8051187 130.860881,49.763123 129.454083,49.7917202 C128.047285,49.8203173 130.358453,56.0258972 130.358453,56.0258972 L132.698331,59 L135.612413,57.4271572 L135.784674,53.0946901 L136,50.4780516 C136,50.4780516 133.272535,49.5915402 133.774962,48.4333559 C134.27739,47.2751716 130.387163,48.8051187 130.387163,48.8051187 Z" id="Path" fill="#FBBEBE"></path>
                <path d="M138,76.3472007 C138,76.3472007 140.307692,78.15746 143,75.7488946 L140.923077,74 L138.307692,74 L138,76.3472007 Z" id="Path" fill="#575A89"></path>
                <path d="M138.326923,74 L138,76.3472007 C138,76.3472007 140.307692,78.15746 143,75.7488946" id="Path" fill="#000000" opacity="0.1"></path>
                <path d="M142.481677,73.01586 C142.481677,73.01586 143.370636,75.0300803 144.018836,75.6327604 C144.667035,76.2354404 145.685634,80.438341 144.333675,79.9625409 C142.981717,79.4867409 140.38892,75.9499604 140.22224,75.3314203 C140.07408,74.7287402 140,73 140,73 L142.481677,73.01586 Z" id="Path" fill="#FBBEBE"></path>
                <polygon id="Path" fill="#575A89" points="127 82.6428571 136 83 134.956723 79.0857143 130.421947 79"></polygon>
                <polygon id="Path" fill="#000000" opacity="0.1" points="128 82.6428571 137 83 135.956723 79.0857143 131.421947 79"></polygon>
                <path d="M130.509091,89.1923912 C130.236364,89.6150299 130.345455,91.1093595 130.472727,92.2112389 C130.545455,92.9055738 130.636364,93.4489664 130.636364,93.4489664 C130.636364,93.4489664 126.236364,94.5810343 125.581818,93.5999088 C125.418182,93.3433067 125.327273,92.9206681 125.309091,92.407464 C125.218182,90.8980401 125.581818,88.7244698 125.581818,88.7244698 C125.581818,88.7244698 125.4,85.3735489 125.309091,85.0565699 C125.272727,84.9207217 125.218182,84.5131773 125.163636,84.0603501 C125.090909,83.3962036 125,82.6414917 125,82.6414917 L131,80 C131,80 131,80.4981099 130.981818,81.2528218 C130.945455,83.6377115 130.854545,88.6640928 130.509091,89.1923912 Z" id="Path" fill="#FBBEBE"></path>
                <path d="M130,93.4129041 C130,93.4129041 125.870307,94.61906 125.255973,93.5737249 C125.102389,93.3003296 125.017065,92.8500314 125,92.3032407 C125.853242,92.1745841 128.447099,91.8368604 129.863481,92.0941737 C129.931741,92.8500314 130,93.4129041 130,93.4129041 Z" id="Path" fill="#000000" opacity="0.1"></path>
                <path d="M130.576875,111.993644 L130.507864,111.993644 C130.007535,112.007945 127.143587,111.993644 127.143587,111.993644 C127.109081,111.950742 127.057323,111.92214 127.022818,111.879238 C126.505237,111.35011 126.367215,110.635073 126.643258,109.991539 C127.160839,108.818877 127.212598,106.673764 127.212598,106.673764 C127.212598,106.673764 127.41963,106.130336 127.247103,105.815719 C127.074576,105.501103 127.195345,105.029178 127.195345,105.029178 C127.160839,104.843268 127.109081,104.657358 127.022818,104.485749 C126.884796,104.199734 127.057323,103.670606 127.057323,103.670606 C127.040071,103.155779 126.936554,102.655253 126.764027,102.169028 C126.505237,101.554095 124.60744,94.189208 125.073263,93.3025614 C125.073263,93.3025614 129.093142,92.7305313 130.628633,93.1595538 L130.4216,98.8798546 C130.4216,98.8798546 129.696987,100.595945 130.300831,101.053569 C130.904676,101.511193 130.335337,102.912667 130.335337,102.912667 C130.335337,102.912667 130.249073,103.17008 130.766654,104.056727 C131.284235,104.943373 130.766654,105.343794 130.766654,105.343794 L130.766654,107.031283 C130.766654,107.031283 130.369842,108.175343 130.818412,109.104892 C131.266983,110.034441 130.766654,111.965043 130.576875,111.993644 Z" id="Path" fill="#DB2B39"></path>
                <path d="M138.509091,89.1174625 C138.236364,89.5466882 138.345455,91.0643076 138.472727,92.1833603 C138.545455,92.8885167 138.636364,93.4403783 138.636364,93.4403783 C138.636364,93.4403783 134.236364,94.59009 133.581818,93.5936732 C133.418182,93.3330719 133.327273,92.9038462 133.309091,92.3826436 C133.218182,90.8496947 133.581818,88.6422484 133.581818,88.6422484 C133.581818,88.6422484 133.4,85.2391019 133.309091,84.9171826 C133.254545,84.7332288 133.181818,83.0316555 133.109091,81.4987067 C133.054545,80.1957001 133,79 133,79 L139,79.7818039 C139,79.7818039 139,82.0045798 138.927273,84.2886736 C138.854545,86.49612 138.727273,88.7802138 138.509091,89.1174625 Z" id="Path" fill="#FBBEBE"></path>
                <path d="M138,93.4129041 C138,93.4129041 133.870307,94.61906 133.255973,93.5737249 C133.102389,93.3003296 133.017065,92.8500314 133,92.3032407 C133.853242,92.1745841 136.447099,91.8368604 137.863481,92.0941737 C137.931741,92.8500314 138,93.4129041 138,93.4129041 Z" id="Path" fill="#000000" opacity="0.1"></path>
                <path d="M138.576875,111.993644 L138.507864,111.993644 C138.007535,112.007945 135.143587,111.993644 135.143587,111.993644 C135.109081,111.950742 135.057323,111.92214 135.022818,111.879238 C134.505237,111.35011 134.367215,110.635073 134.643258,109.991539 C135.160839,108.818877 135.212598,106.673764 135.212598,106.673764 C135.212598,106.673764 135.41963,106.130336 135.247103,105.815719 C135.074576,105.501103 135.195345,105.029178 135.195345,105.029178 C135.160839,104.843268 135.109081,104.657358 135.022818,104.485749 C134.884796,104.199734 135.057323,103.670606 135.057323,103.670606 C135.040071,103.155779 134.936554,102.655253 134.764027,102.169028 C134.505237,101.554095 132.60744,94.189208 133.073263,93.3025614 C133.073263,93.3025614 137.093142,92.7305313 138.628633,93.1595538 L138.4216,98.8798546 C138.4216,98.8798546 137.696987,100.595945 138.300831,101.053569 C138.904676,101.511193 138.335337,102.912667 138.335337,102.912667 C138.335337,102.912667 138.249073,103.17008 138.766654,104.056727 C139.284235,104.943373 138.766654,105.343794 138.766654,105.343794 L138.766654,107.031283 C138.766654,107.031283 138.369842,108.175343 138.818412,109.104892 C139.266983,110.034441 138.766654,111.965043 138.576875,111.993644 Z" id="Path" fill="#DB2B39"></path>
                <circle id="Oval" fill="#000000" opacity="0.1" cx="131.5" cy="47.5" r="3.5"></circle>
                <circle id="Oval" fill="#FBBEBE" cx="131.5" cy="46.5" r="3.5"></circle>
                <path d="M125,83.6119403 L131,81 C131,81 131,81.4925373 130.981818,82.238806 C130.109091,82.6716418 128.781818,83.3134328 127.509091,83.9253731 C126.818182,84.2537313 126.145455,84.5820896 125.563636,84.8507463 C125.436364,84.9104478 125.290909,84.9552239 125.145455,85 C125.090909,84.358209 125,83.6119403 125,83.6119403 Z" id="Path" fill="#000000" opacity="0.1"></path>
                <path d="M139,79.9007128 C139,79.9007128 139,82.412316 138.927273,84.9932047 L138.909091,84.9932047 C138.454545,85.0105261 138.018182,84.9932047 137.563636,84.9585619 C136.781818,84.8719549 136.145455,84.6814195 135.927273,84.2830273 C135.472727,83.5208856 134.2,82.5508872 133.109091,81.8233884 C133.054545,80.3510693 133,79 133,79 L139,79.9007128 Z" id="Path" fill="#000000" opacity="0.1"></path>
                <path d="M136.826989,62.1070517 C136.711484,63.0762122 136.682607,64.0602829 136.754798,65.0294435 C138.949405,66.8932138 138.530697,70.8145864 138.530697,70.8145864 C138.530697,70.8145864 140.219967,78.7617029 139.859012,79.4923008 C139.498057,80.2228988 140.68199,84.6363068 140.68199,84.6363068 C139.671316,84.8301389 138.660641,84.9494202 137.635529,84.9941507 C137.274574,85.0090608 136.928057,84.9941507 136.567102,84.9643303 C135.946259,84.8897795 135.440922,84.7257678 135.267663,84.382834 C134.589068,83.1602007 131.686989,81.3560711 131.686989,81.3560711 C131.686989,81.3560711 129.838898,82.5041536 128.120752,83.5329548 C127.5721,83.8609783 127.037887,84.1890019 126.575864,84.4573848 C126.200471,84.6661271 125.796201,84.7854084 125.377493,84.8003186 C123.327268,84.9494202 120.612886,83.6373259 121.046032,83.1602007 C121.580245,82.5936146 124.19356,72.5441652 124.19356,72.5441652 C124.19356,72.5441652 125.521875,66.3266276 126.676932,65.4618382 C126.879067,65.2978264 127.023449,65.0890841 127.110078,64.8356114 C127.499909,63.7024391 126.85019,61.8833993 126.85019,61.8833993 C126.85019,61.8833993 123.125133,57.1419677 123.283954,56.8586746 C123.442774,56.5753815 123.457212,55.1141856 123.457212,55.1141856 C123.457212,55.1141856 123.919235,52.8031105 124.179122,51.6848483 C124.43901,50.5665862 126.344853,50.2982032 126.893505,50.3876642 C127.442156,50.4771252 128.69828,50.8349691 129.232494,50.3876642 C129.766707,49.9403594 130.647438,50.5665862 130.647438,50.5665862 L132.842045,51.192813 L134.820079,50 C134.820079,50 136.798113,50.1043711 136.956933,50.3727541 C137.115753,50.641137 139.729068,51.1629927 139.729068,51.1629927 C141.057383,52.0874227 140.99963,56.4561002 140.99963,56.4561002 C140.99963,56.4561002 137.823225,59.3188514 137.173506,60.7800473 C137.000248,61.2273521 136.884742,61.6597468 136.826989,62.1070517 Z" id="Path" fill="#D3D0CB"></path>
                <path d="M140.021159,57 L140.743924,57.5714286 L141.495599,64.2142857 L142.247275,70.8857143 C142.247275,70.8857143 142.536381,71.5571429 142.782122,71.4857143 C143.027862,71.4142857 142.998951,75.4428571 142.998951,75.4428571 C142.998951,75.4428571 140.237988,73.7571429 139.240572,76 L138.474441,70.6142857 C138.474441,70.6142857 137.49148,65.1142857 137.505936,64.6857143 C137.520391,64.2571429 137,59.6142857 137,59.6142857 L140.021159,57 Z" id="Path" fill="#D3D0CB"></path>
                <path d="M123.791393,56 L123.352046,56.6114536 C123.352046,56.6114536 123.387669,59.2339102 123.055191,59.8725395 C122.722712,60.5111688 123.981381,64.220654 124.45635,63.9896604 C124.931319,63.7586668 126,57.9702394 126,57.9023001 C126,57.8343608 123.791393,56 123.791393,56 Z" id="Path" fill="#575A89"></path>
                <path d="M123.068737,60 C123.068737,60 120.837806,62.0707889 121.009416,63.0710852 C121.181026,64.0713815 123.29755,67.1951139 126.348396,65.5104043 C126.348396,65.5104043 129.170428,60.614217 123.068737,60 Z" id="Path" fill="#575A89"></path>
                <path d="M129,113.983433 C128.569307,114.020709 126.10396,113.983433 126.10396,113.983433 C126.074257,113.871606 126.029703,113.797055 126,113.685228 C126.638614,113.126093 127.990099,112.343304 129,113.983433 Z" id="Path" fill="#000000" opacity="0.1"></path>
                <path d="M138,113.983433 C137.569307,114.020709 135.10396,113.983433 135.10396,113.983433 C135.074257,113.871606 135.029703,113.797055 135,113.685228 C135.638614,113.126093 136.990099,112.343304 138,113.983433 Z" id="Path" fill="#000000" opacity="0.1"></path>
                <path d="M127,69 C126.629785,72.8021339 126.748254,80.328807 126.822297,83.6808923 C126.25957,84.0223084 125.711651,84.3637245 125.237776,84.643065 C124.852752,84.8603298 124.438111,84.9844811 124.008661,85 C123.845766,83.9912706 126.022632,73.5935984 127,69 Z" id="Path" fill="#000000" opacity="0.1"></path>
                <path d="M128,67 C127.967742,67.057554 127.580645,67.8201439 127,69 C127.225806,67.9928058 127.548387,67.2733813 128,67 Z" id="Path" fill="#000000" opacity="0.1"></path>
                <path d="M133.61627,67 C133.61627,67 135.97422,80.35 129,82 C129,82 133.815533,81.34 133.61627,67 Z" id="Path" fill="#000000" opacity="0.1"></path>
                <path d="M138,84.994209 C137.59893,85.0089705 137.213904,84.994209 136.812834,84.9646861 L135,67 C136.15508,67.6937882 137.550802,80.4329206 138,84.994209 Z" id="Path" fill="#000000" opacity="0.1"></path>
                <path d="M129.770185,45.1068202 C129.882212,45.0925199 129.980235,45.1068202 130.078259,45.1354207 C130.232295,45.206922 130.358326,45.3070237 130.470353,45.435726 C130.848443,45.7503315 131.352564,45.8504333 131.800671,45.7074307 C131.954708,45.6359295 132.136752,45.5930287 132.304792,45.5644282 C132.570856,45.5644282 132.808913,45.7646318 132.934943,45.9934358 C133.060974,46.2222398 133.144994,46.4939446 133.257021,46.7370488 C133.369047,46.9801531 133.565094,47.2089571 133.831158,47.2804584 C133.957188,47.2804584 134.083219,47.3090589 134.195246,47.3662599 C134.265262,47.4234609 134.321276,47.4949621 134.349282,47.5807637 C134.573336,48.0669722 134.741376,48.6389822 135.203487,48.8677863 C135.371528,48.9535878 135.567575,48.9964885 135.749618,48.9964885 C135.945665,49.0107888 136.127709,48.9821883 136.309752,48.8963868 C136.477793,48.796285 136.617826,48.6532825 136.71585,48.4816795 C137.00992,47.9954709 137.037927,47.3805601 136.96791,46.8085501 C136.88389,46.0935375 136.63183,45.3928252 136.239736,44.7922147 C135.385531,43.5480928 133.957188,42.875981 132.486836,43.0189835 C132.234776,43.047584 131.982715,43.0904848 131.744658,43.161986 C130.848443,43.4050903 129.980235,43.8626983 129.434104,44.6206117 C129.308074,44.8065149 129.154037,44.9924182 129,45.1640212 C129.280067,45.1354207 129.532128,45.1211204 129.770185,45.1068202 Z" id="Path" fill="#000000" opacity="0.1"></path>
                <path d="M129.770185,45.1068202 C129.882212,45.0925199 129.980235,45.1068202 130.078259,45.1354207 C130.232295,45.206922 130.358326,45.3070237 130.470353,45.435726 C130.848443,45.7503315 131.352564,45.8504333 131.800671,45.7074307 C131.954708,45.6359295 132.136752,45.5930287 132.304792,45.5644282 C132.570856,45.5644282 132.808913,45.7646318 132.934943,45.9934358 C133.060974,46.2222398 133.144994,46.4939446 133.257021,46.7370488 C133.369047,46.9801531 133.565094,47.2089571 133.831158,47.2804584 C133.957188,47.2804584 134.083219,47.3090589 134.195246,47.3662599 C134.265262,47.4234609 134.321276,47.4949621 134.349282,47.5807637 C134.573336,48.0669722 134.741376,48.6389822 135.203487,48.8677863 C135.371528,48.9535878 135.567575,48.9964885 135.749618,48.9964885 C135.945665,49.0107888 136.127709,48.9821883 136.309752,48.8963868 C136.477793,48.796285 136.617826,48.6532825 136.71585,48.4816795 C137.00992,47.9954709 137.037927,47.3805601 136.96791,46.8085501 C136.88389,46.0935375 136.63183,45.3928252 136.239736,44.7922147 C135.385531,43.5480928 133.957188,42.875981 132.486836,43.0189835 C132.234776,43.047584 131.982715,43.0904848 131.744658,43.161986 C130.848443,43.4050903 129.980235,43.8626983 129.434104,44.6206117 C129.308074,44.8065149 129.154037,44.9924182 129,45.1640212 C129.280067,45.1354207 129.532128,45.1211204 129.770185,45.1068202 Z" id="Path" fill="#3F3D56"></path>
                <path d="M125.960098,53 C125.960098,53 126.243847,54.5532396 125.298015,54.9540757 C124.352183,55.3549117 125.960098,53 125.960098,53 Z" id="Path" fill="#000000" opacity="0.1"></path>
                <path d="M138,64 C138,64 139.743484,61.3877551 139.982066,62.1341108 C140.220647,62.8804665 138,64 138,64 Z" id="Path" fill="#000000" opacity="0.1"></path>
                <path d="M138,64 C138,64 139.816166,62.5704159 139.990055,63.1298184 C140.163943,63.6892208 138,64 138,64 Z" id="Path" fill="#000000" opacity="0.1"></path>
                <path d="M134.176556,62.5714286 C133.684515,62.5714286 133.206946,62.4285714 132.816208,62.1285714 L132.700434,62.1285714 C132.295224,62.5 131.759768,62.6857143 131.209841,62.6857143 C130.63097,62.7 130.081042,62.4714286 129.66136,62.0714286 L129.502171,62.0714286 C128.648336,62.7571429 127.403763,62.7428571 126.564399,62.0142857 L126,62 C126,62 126.665702,63.7428571 126.260492,64.8285714 L135.927641,65 C135.855282,64.0714286 135.869754,63.1285714 136,62.2 L136,62.1857143 L135.464544,62.1714286 C135.10275,62.4428571 134.639653,62.5857143 134.176556,62.5714286 Z" id="Path" fill="#000000" opacity="0.1"></path>
                <path d="M134.176556,62.5714286 C133.684515,62.5714286 133.206946,62.4285714 132.816208,62.1285714 L132.700434,62.1285714 C132.295224,62.5 131.759768,62.6857143 131.209841,62.6857143 C130.63097,62.7 130.081042,62.4714286 129.66136,62.0714286 L129.502171,62.0714286 C128.648336,62.7571429 127.403763,62.7428571 126.564399,62.0142857 L126,62 C126,62 126.665702,63.7428571 126.260492,64.8285714 L135.927641,65 C135.855282,64.0714286 135.869754,63.1285714 136,62.2 L136,62.1857143 L135.464544,62.1714286 C135.10275,62.4428571 134.639653,62.5857143 134.176556,62.5714286 Z" id="Path" fill="#000000" opacity="0.1"></path>
                <path d="M134.176556,62.5714286 C133.684515,62.5714286 133.206946,62.4285714 132.816208,62.1285714 L132.700434,62.1285714 C132.295224,62.5 131.759768,62.6857143 131.209841,62.6857143 C130.63097,62.7 130.081042,62.4714286 129.66136,62.0714286 L129.502171,62.0714286 C128.648336,62.7571429 127.403763,62.7428571 126.564399,62.0142857 L126,62 C126,62 126.665702,63.7428571 126.260492,64.8285714 L135.927641,65 C135.855282,64.0714286 135.869754,63.1285714 136,62.2 L136,62.1857143 L135.464544,62.1714286 C135.10275,62.4428571 134.639653,62.5857143 134.176556,62.5714286 Z" id="Path" fill="#DB2B39"></path>
                <path d="M134,53 C134,53 135.985842,53.2662921 135.999926,53.8580523 C136.01401,54.4498126 134,53 134,53 Z" id="Path" fill="#000000" opacity="0.1"></path>
                <path d="M129,51 C129,51 127.014158,51.2662921 127.000074,51.8580523 C126.98599,52.4498126 129,51 129,51 Z" id="Path" fill="#000000" opacity="0.1"></path>
                <path d="M137.582755,58.0383733 C137.567563,58.0255822 137.537177,58.0127911 137.521985,58 C138.068921,58.409315 137.977765,59.3174827 137.309287,60.0721573 C136.640809,60.8268318 135.6229,61.1338181 135,60.7884585 C135.015193,60.8012496 135.030385,60.8140407 135.060771,60.8268318 C135.668478,61.2233558 136.731965,60.9163695 137.430829,60.1361127 C138.129692,59.355856 138.190463,58.4348972 137.582755,58.0383733 Z" id="Path" fill="#000000" opacity="0.1"></path>
                <path d="M124.569767,59.9377332 C123.953651,59.172209 124.039223,58.3229555 124.723796,58 C124.689567,58.0119613 124.672453,58.0119613 124.638224,58.0239226 C123.885194,58.3229555 123.782508,59.1961316 124.415738,59.9975398 C125.048968,60.798948 126.178513,61.1936714 126.931543,60.9065998 C126.948657,60.8946385 126.982886,60.8826772 127,60.8707159 C126.24697,61.1099422 125.168768,60.7152188 124.569767,59.9377332 Z" id="Path" fill="#000000" opacity="0.1"></path>
                <path d="M126,51.5555556 L125.717391,52 L125,51.6 L125.369565,51 C125.630435,51.1333333 125.847826,51.3333333 126,51.5555556 Z" id="Path" fill="#000000" opacity="0.1"></path>
                <path d="M123.507885,62.8478528 C123.507885,62.8478528 123.960543,60.7482209 123.351797,60.078773 C122.74305,59.4093252 122.930357,55.9251534 123.86689,56.001227 C124.803422,56.0773006 126.208221,58.8463804 125.974088,59.4245399 C125.739955,60.0026994 124.850249,63 124.850249,63 L123.507885,62.8478528 Z" id="Path" fill="#FBBEBE"></path>
                <path d="M136.685672,46.2448612 C136.587318,46.4088864 136.446812,46.5455741 136.278205,46.6412555 C136.095547,46.7232682 135.912889,46.7506057 135.716181,46.7369369 C135.533523,46.7369369 135.336815,46.6959306 135.168208,46.613918 C134.704539,46.3815489 134.521881,45.8484668 134.311122,45.3837286 C134.283021,45.3017159 134.240869,45.2197033 134.170616,45.1650282 C134.058212,45.1103531 133.931756,45.0830156 133.805301,45.0830156 C133.53834,45.0283405 133.355682,44.8096402 133.229227,44.5636023 C133.102772,44.3175644 133.032519,44.0715265 132.906064,43.8528262 C132.779608,43.6341258 132.540748,43.4290942 132.273787,43.442763 C132.10518,43.4701006 131.922522,43.5111069 131.767966,43.5794507 C131.304296,43.7298072 130.798475,43.6341258 130.43316,43.3197441 C130.320755,43.1967251 130.180249,43.1010437 130.039744,43.0326999 C129.941389,43.0053623 129.828985,42.9916936 129.730631,43.0053623 C129.562024,43.0053623 129.407467,43.0190311 129.252911,43.0326999 C129.168607,43.1283813 129.084304,43.2377314 129,43.3197441 C129.252911,43.3060753 129.491771,43.2787378 129.744681,43.2787378 C129.857086,43.265069 129.95544,43.2787378 130.053794,43.3060753 C130.208351,43.3744192 130.334806,43.4701006 130.447211,43.5931195 C130.826576,43.8938325 131.332398,43.9895139 131.782016,43.8528262 C131.936573,43.7844823 132.10518,43.7298072 132.287838,43.7161384 C132.554799,43.7161384 132.793659,43.9075012 132.920114,44.1262016 C133.046569,44.3449019 133.130873,44.6046086 133.243278,44.8369777 C133.355682,45.0693468 133.552391,45.2880472 133.819352,45.356391 C133.945807,45.356391 134.072262,45.3973973 134.184667,45.4384036 C134.25492,45.4930787 134.311122,45.5614226 134.339224,45.6434352 C134.564033,46.1081734 134.73264,46.6549243 135.196309,46.8736246 C135.364916,46.9556373 135.561625,46.9966436 135.744282,46.9966436 C135.940991,47.0103124 136.123648,46.9829748 136.306306,46.9009622 C136.474913,46.8052808 136.615419,46.6685931 136.713773,46.5045678 C136.938582,46.1218422 137.022886,45.6844415 136.994785,45.2333721 C136.966683,45.6024289 136.868329,45.9441482 136.685672,46.2448612 Z" id="Path" fill="#000000" opacity="0.1"></path>
                <ellipse id="Oval" fill="#575A89" cx="123.5" cy="63" rx="1.5" ry="1"></ellipse>
                <ellipse id="Oval" fill="#F3A712" cx="78.5" cy="68" rx="46.5" ry="46"></ellipse>
                <path d="M104,91.6246126 C104,98.8375834 92.1680568,92.2466758 79.502008,92.2466758 C66.8359592,92.2466758 54,98.5709849 54,91.3580141 C54,87.2405482 58.0932963,81.5234912 63.9474822,77.3764033 C68.3651529,74.2512763 73.7868397,72 79.2394192,72 C84.8464628,72 90.3299351,74.4290087 94.716713,77.76149 C100.231078,81.9530111 104,87.5960129 104,91.6246126 Z" id="Path" fill="#444053" transform="translate(79.000000, 83.500000) rotate(180.000000) translate(-79.000000, -83.500000) "></path>
                <path d="M95,78 C88.4337349,76.9820051 76.5512048,75.748072 65,77.5989717 C69.3072289,74.344473 74.5933735,72 79.9096386,72 C85.376506,72 90.7379518,74.529563 95,78 Z" id="Path" fill="#F6F8FB" transform="translate(80.000000, 75.000000) rotate(180.000000) translate(-80.000000, -75.000000) "></path>
                <path d="M55,35 C55,35 40.8943115,43.9109161 41.0005976,57.847349 C41.1068838,71.7837818 55,35 55,35 Z" id="Path" fill="#000000" opacity="0.05"></path>
                <ellipse id="Oval" fill="#6C63FF" opacity="0.1" cx="30.5" cy="120" rx="3.5" ry="1"></ellipse>
                <path d="M62.2024096,61.7329916 C63.119016,61.6904078 67.4068695,61.3923207 70.1256172,59.9728585 C70.5606168,59.73155 71.0577592,59.6037984 71.5704374,59.5896038 C72.4404366,59.5612145 73.4347215,59.9018854 72.7977578,61.7471862 C71.7568658,64.7706407 65.7600851,68.1773499 62.0315169,67.9928198 C58.4427699,67.8082897 54.1859878,66.4881899 51.3895616,61.8465486 C51.1254547,61.4065153 50.9856334,60.8955089 51.0011691,60.3845026 C51.0322405,59.4476575 51.4050973,58.2695039 53.3315243,59.5896038 C55.9259863,61.3639315 60.8663393,61.6904078 61.8606242,61.7471862 C61.9693741,61.7471862 62.0936597,61.7471862 62.2024096,61.7329916 Z" id="Path" fill="#444053"></path>
                <path d="M96.2024096,61.7329916 C97.119016,61.6904078 101.406869,61.3923207 104.125617,59.9728585 C104.560617,59.73155 105.057759,59.6037984 105.570437,59.5896038 C106.440437,59.5612145 107.434721,59.9018854 106.797758,61.7471862 C105.756866,64.7706407 99.7600851,68.1773499 96.0315169,67.9928198 C92.4427699,67.8082897 88.1859878,66.4881899 85.3895616,61.8465486 C85.1254547,61.4065153 84.9856334,60.8955089 85.0011691,60.3845026 C85.0322405,59.4476575 85.4050973,58.2695039 87.3315243,59.5896038 C89.9259863,61.3639315 94.8663393,61.6904078 95.8606242,61.7471862 C95.9693741,61.7471862 96.0936597,61.7471862 96.2024096,61.7329916 Z" id="Path" fill="#444053"></path>
            </g>
        </g>
    </g>
</svg>