<svg xmlns="http://www.w3.org/2000/svg" xmlns:xlink="http://www.w3.org/1999/xlink" viewBox="0 0 1144 617"><defs><style>.cls-1{fill:#29335c;}.cls-2{fill:url(#Dégradé_sans_nom_2);}.cls-3{fill:#be6f72;}.cls-4{fill:#3f3d56;}.cls-5{fill:#65617d;}.cls-11,.cls-6,.cls-9{opacity:0.1;}.cls-11,.cls-17,.cls-6{isolation:isolate;}.cls-7{fill:#db2b39;}.cls-8{fill:#e3e8f4;}.cls-10{fill:#f3a712;}.cls-11,.cls-17{fill:#fff;}.cls-12{fill:url(#Dégradé_sans_nom_2-2);}.cls-13{fill:#008148;}.cls-14{fill:#fbbebe;}.cls-15{fill:#444053;}.cls-16{fill:#e8e8f0;}.cls-17{font-size:18px;font-family:ArialMT, Arial;}</style><linearGradient id="Dégradé_sans_nom_2" x1="834.7" y1="442.35" x2="834.7" y2="39.64" gradientTransform="translate(-28 28.15)" gradientUnits="userSpaceOnUse"><stop offset="0" stop-color="gray" stop-opacity="0.25"/><stop offset="0.54" stop-color="gray" stop-opacity="0.12"/><stop offset="1" stop-color="gray" stop-opacity="0.1"/></linearGradient><linearGradient id="Dégradé_sans_nom_2-2" x1="176.62" y1="349.04" x2="398.88" y2="349.04" xlink:href="#Dégradé_sans_nom_2"/></defs><title>Fichier 2</title><g id="Calque_2" data-name="Calque 2"><g id="_624700f1-3089-4690-8fa4-a57e557ff714" data-name="624700f1-3089-4690-8fa4-a57e557ff714"><path class="cls-1" d="M1144,396.3a179.81,179.81,0,0,0-76-147.4,167.88,167.88,0,0,0,1-18.8c0-99.1-79.3-179.5-177-179.5a174.6,174.6,0,0,0-85.9,22.5C736.9,27.6,646.6,0,547.8,0,387.1,0,248.7,72.9,187.3,177.6c-3.4-.2-6.8-.3-10.3-.3C79.3,177.3,0,257.7,0,356.8a180.23,180.23,0,0,0,29.1,98.7h0c0,89.2,84.2,161.5,188,161.5H970.2c81.5,0,147.6-56.8,147.6-126.8h0A179.82,179.82,0,0,0,1144,396.3Z"/><path class="cls-2" d="M932.3,285.4a10.78,10.78,0,0,0-4.9-2.1c-1.9-.4-3.8-.7-5.7-1l-24.6-3.5a27,27,0,0,0-7.5-.4,9.51,9.51,0,0,0-6.6,3.4,5.17,5.17,0,0,0-1.1,3.2,7.6,7.6,0,0,0,1.1,3.3l.6,1.5a24.59,24.59,0,0,0,.9,3.4c.1.2.3.5.4.7v.2c-.3,1.4.6,2.8.2,4.1-.3,1.1-1.5,1.8-2.2,2.8a4.07,4.07,0,0,0-.1,4.6c.8,1.2,2.1,2,2.5,3.3.5,1.8-.9,3.4-2.1,4.8a68.19,68.19,0,0,0-6.3,7.9,5.13,5.13,0,0,0-1,2.4c-.1,1.7,1.6,3.3,1.3,5-.2,1.4-1.6,2.2-2.7,3-4.2,2.8-7.7,7.3-8,12.4a43,43,0,0,0-9.7-22c-1.4-1.7-3-3.5-3.6-5.6a19.8,19.8,0,0,0-.6-2.6c-1-2.6-4.2-3.8-5.6-6.2-1-1.7-1-3.9-2.2-5.4s-3.2-1.9-4.3-3.3a29.17,29.17,0,0,1-1.4-3.1,6.46,6.46,0,0,0-1.8-2.2,2.19,2.19,0,0,0-.5-.3,1.66,1.66,0,0,0,.5-1.2c0-1.2-1.2-1.9-2.2-2.5a30.3,30.3,0,0,1-3.8-2.4,8.43,8.43,0,0,0,3.4-2.8,9,9,0,0,0,1.3-6,7.75,7.75,0,0,0-1.8-4.6c-.6-.7-1.4-1.1-2.1-1.8-1.7-1.7-2.3-4.1-3-6.4-.9-3-2.4-6.1-5.2-7.7-1.3-.8-2.9-1.1-4.2-1.9s-2.4-2.3-1.9-3.8a7.56,7.56,0,0,1,1.9-2.5,5,5,0,0,0-1.3-7c-.7-.5-1.7-.9-1.8-1.7a3.11,3.11,0,0,1-2.3-2.5,10.88,10.88,0,0,1,0-3.6c.3-1.9.5-3.7.8-5.6a3.42,3.42,0,0,0,2.8,0,28.83,28.83,0,0,0,3,3.9,40.7,40.7,0,0,1,7,12.1c.6,1.6,1.2,3.4,2.6,4.2a11.94,11.94,0,0,1,1.6.8,8.08,8.08,0,0,1,1.6,1.6l3.6,4.8.1.2a.76.76,0,0,0,.2.4,1.27,1.27,0,0,0,.9.4c3.7.9,7.8,1.6,11-.4,2.9-1.8,4.1-5.4,6.6-7.7,1.7-1.7,4.2-3,4.7-5.4-.6-.2-1.2-.4-1.7-.6.5-.5,1-1.1,1.7-1.7a20.79,20.79,0,0,0,2.7-3.2,22.81,22.81,0,0,0,2-4.5c1.9-5.5,3.9-11,5.8-16.5a83.19,83.19,0,0,1,3-7.8c1.2-2.7,2.6-5.4,3.9-8.1a105.76,105.76,0,0,0,7.8-21.9,8.52,8.52,0,0,0,.3-3.2c-.3-1.7-1.6-3.1-2.8-4.3a20.6,20.6,0,0,0-4.3-3.5,7.08,7.08,0,0,0-5.3-.9c-2.6.8-4.2,3.4-4.8,6s-.4,5.3-.6,8c-.4,3.9-1.7,7.6-2,11.4-.2,2.2,0,4.5-.3,6.7a25.1,25.1,0,0,1-3,8.3,52.23,52.23,0,0,1-12.9,15.9l-1.8,1.5c0-.4.1-.9.1-1.3a6.94,6.94,0,0,0-1.3.5,2.62,2.62,0,0,0-.2-1.5c-.8-2.4-4.4-3-5-5.4a11,11,0,0,1-.2-1.8c-.2-2.1-1.7-3.9-2.2-6-.5-1.9-.1-4-1-5.8a19.28,19.28,0,0,0-2.7-3,11.08,11.08,0,0,1-2.5-4.8,8.33,8.33,0,0,0-.4-1.5,6.29,6.29,0,0,0-.4-3.3c-.9-2.3-3.3-3.7-4.1-6-.7-1.8-.4-4-1.6-5.4a5.85,5.85,0,0,0-2.4-1.4,54.23,54.23,0,0,0-14.3-3.4c-2.7-.2-5.8-.4-7.7-2.3-2.3-2.2-2.4-6.3-5.1-8-2.4-1.5-5.7-.4-7.5,1.8-.3.3-.5.7-.8,1a11.23,11.23,0,0,1-.2-4.1c0-.3.1-.7.1-1a19.64,19.64,0,0,0,10.8-8.6v.1l.1.3c.3.7.8,1.4,1.4,1.5h0a1.66,1.66,0,0,0,1.2-.5,11.51,11.51,0,0,0,1.7-1.4,5.5,5.5,0,0,0,.7-.9,8.17,8.17,0,0,0,1.2-2,13.31,13.31,0,0,0,1-3.4c.2-1.2.2-2.4.4-3.5a19.73,19.73,0,0,1,.7-2.6l.3-.9c.1-.3.2-.7.3-1a23,23,0,0,0,1-6.3v-1.1a10.91,10.91,0,0,0-3.4-7.5c-1.7-1.4-4-2-5.3-3.9a20.73,20.73,0,0,1-1.5-4.4,10.07,10.07,0,0,0-7.9-7.1,9.17,9.17,0,0,0-6.2,1.7h0l-.1.1h0a11.17,11.17,0,0,0-2.5,2.8,9.4,9.4,0,0,1-3.5-2c-1-.9-1.8-2.1-2.8-3a7.13,7.13,0,0,0-7.1-1.5,8.71,8.71,0,0,0-5.1,5.8c-.5,2.1-.5,4.4-1.6,6.1-.9,1.3-2.3,2-3.4,3.2a6.78,6.78,0,0,0-1.3,2.7h0a8.81,8.81,0,0,0-.2,1.7h0a1.7,1.7,0,0,0,.1.7v.1a2.35,2.35,0,0,0,.2.8h0a6.51,6.51,0,0,0,1.5,2.7,5.6,5.6,0,0,0,2.4,1.7c.4.1.8.3,1.2.4l1.2.3.4.1a20.15,20.15,0,0,0-.6,17.6c0,.3-.1.6-.1.8a66.61,66.61,0,0,0,.5,11.8c.1,1.5.2,3.3-.7,4.5a6.39,6.39,0,0,1-1.5,1.3c.5-.7,1.1-1.4,1.7-2.1-1.4-1.4-3.6-1.6-5.6-1.5a25.27,25.27,0,0,0-11,3.4c-2.2,1.3-4.5,3-7.1,2.7-1.5-.2-3-1-4.5-.6a7.89,7.89,0,0,0-2.3,1.4,3.08,3.08,0,0,1-1.9.6c-1.6-1.9-4-3.2-5.9-4.8a43.35,43.35,0,0,1-5.8-6.3c-3.2-3.9-6.5-7.8-9.7-11.8-2.7-3.3-5.4-6.9-5.9-11.2,0-.4-.1-.8-.1-1.3a30.88,30.88,0,0,1,.8-6,3.79,3.79,0,0,0,0-1.5c-.3-1-1.5-1.4-2.4-1.6h0c.1-.8.2-1.6.3-2.3.6-8.6,0-17.3,1.8-25.8.7-3.2,1.8-6.5,4.2-8.9,3.7-3.7,9.8-4.6,12.6-8.9,2.3-3.6,1.4-8.8-1.5-12s-7.5-4.5-11.8-4.4a6.65,6.65,0,0,0-3.4.9,6.91,6.91,0,0,0-2.1,3.2l-4,10.5a60.2,60.2,0,0,0-3.1,8.4c-1.2,4.4-1.5,9-2.4,13.4,0,3.4-2.2,7.6-3.4,10.8-1.3,3.5-2.8,7-4,10.6-.3.9-1.3,3.6-2,6a3,3,0,0,0-.7.5c-.5.7-1,1.4-1.4,2.1-.9,1.2-2.4,1.8-3.4,3s-1.2,3.3.2,3.9a2.92,2.92,0,0,0,.9.2.75.75,0,0,1,.5.1c1.5.4,2.1,2.3,1.9,3.9s-1,3-1.1,4.6c-.3,2.8,1.3,5.3,2.9,7.6a74,74,0,0,0,5.3,7.2c1.4,1.6,3,3,4.4,4.5,5.4,5.6,9.7,12.1,14.6,18.1a34.67,34.67,0,0,0,5.9,6.2,35.83,35.83,0,0,0,4.5,3.1l8.4,5.3a8.59,8.59,0,0,0,3.2,1.5h1.1a1.85,1.85,0,0,0,.2.7c.7,2.6,2.1,5,2.2,7.7s-.1,5.4.1,8.1c.2,2.5.7,5,.9,7.5.3,4.7-.9,9.4-2,14-1.7,6.8-2.7,13.7-6,19.8-.9,1.7-2,3.4-2,5.3a1.7,1.7,0,0,0,.1.7h0l-1.5.9a9.13,9.13,0,0,0-1.3.8c-1.9,1.2-3.9,2.6-4.7,4.8-.6,1.7-.3,3.7-1.1,5.4,0,.1-.1.1-.1.2-.8,1.6-2.4,2.7-2.8,4.4h0c-.3,1.3.2,2.7,0,4h0a14.62,14.62,0,0,0-.5,2,2,2,0,0,0,.1.7,4.15,4.15,0,0,0,1.2,2,9.38,9.38,0,0,0,1.2.9c.4.3.9.5,1.3.8l.3.1,1.2.6.3.1a7.84,7.84,0,0,0,1.4.5l.3.1,1.1.3.2.1h.2l1,.2.4.1c.4.1.9.1,1.3.2h.4a3.4,3.4,0,0,1,1,.1h1.9c.5,0,.9-.1,1.4-.1h.2c.4-.1.8-.1,1.3-.2l.3-.1,1.2-.3.2-.1a7.84,7.84,0,0,0,1.4-.5,39.47,39.47,0,0,0,4.6-2.3c1-.5,2-1.1,3-1.6a16,16,0,0,1,2.3-1,12.29,12.29,0,0,1,6-1,15.94,15.94,0,0,1,3,.6v.3l2.4,14.4a34.54,34.54,0,0,1,4.1-2.5,8.73,8.73,0,0,0-.5,2.2,5.44,5.44,0,0,0,0,1.8c.1,1,.3,2-.3,2.8-.3.5-1,.7-1.2,1.2a4.33,4.33,0,0,0-.1,1.6,2.58,2.58,0,0,1-2.4,2.4,3.8,3.8,0,0,1-1.5,4.5,8.34,8.34,0,0,0-1.2.8,4.13,4.13,0,0,0-.7,1.5,26.53,26.53,0,0,1-7.8,12.9,28,28,0,0,0-3.9,3.8,19.22,19.22,0,0,0-1.8,3.5c-2.7,6.5-5.4,13-8.1,19.6-1.5,3.7-3,7.4-3.5,11.3-1.2,10.8-10.8,19.9-9,30.6a14.92,14.92,0,0,0,3.1,7.3c2,2.4,5,3.8,8,4.9,7.7,3,15.8,4.6,23.9,6.3l12.7,2.6a48.12,48.12,0,0,0,7.6,1.2c3.1.2,6.2-.1,9.2.7,1.8.5,3.6,1.4,5.5,1.5,1.6.1,3.7-.3,4.6,1.1s.2,3.1,1.1,4.3c1.5,1.9,5.1,0,6.7,1.8a8.75,8.75,0,0,1,1,2.2,4.12,4.12,0,0,0,1,1.3,9.7,9.7,0,0,1,.1,1.7,31.61,31.61,0,0,1-1.4,6.8c-1.2,4.1-2.4,8.1-3.6,12.2a21.62,21.62,0,0,0-1,4.4,8.1,8.1,0,0,0,0,2.2c.2,2.2,1.5,4.5,3.6,5.2a7,7,0,0,0,4.9-.6,21.6,21.6,0,0,0,4-2.7,29.46,29.46,0,0,0,5.8-5.9c5-7.5,3.4-17.6,6.9-25.9,2.3-5.5,6.9-10,8.4-15.8a5.64,5.64,0,0,0,.1-3.4c-.6-2-2.8-3.1-4.8-3.9h-.1a28.51,28.51,0,0,0-5-1.4,5.07,5.07,0,0,0-1.3-.2,7.73,7.73,0,0,1-2.2-2.9,4.8,4.8,0,0,0-.5-1.7,1.72,1.72,0,0,0-1.4-.8c-1-.1-2.3.3-3.4.2-2.2-.2-3.7-2.3-5.7-3.4s-4.2-.8-6.3-.6a6,6,0,0,1-2.3-.1,8.07,8.07,0,0,1-2.4-1.7,10.31,10.31,0,0,0-8.8-1.8,10.88,10.88,0,0,1-3,.7c-2-.1-3.3-1.8-4.8-3.2-3.9-3.6-9.5-4.6-14.3-6.9a3.53,3.53,0,0,1-1.7-1.5c-.5-1.4.7-2.7,1.8-3.7l8.2-6.8c9-7.5,20.2-13.1,24.4-24.1a12,12,0,0,1,2-4.1,5.24,5.24,0,0,1,1.1-1,8.38,8.38,0,0,1,6.2-1.2,20.37,20.37,0,0,1,7.2,3.2c3.6,2.2,7.1,4.5,10.5,7a102.17,102.17,0,0,1,9.6,7.8c5.2,5,9.6,10.9,14.5,16.3s10.5,10.4,17.3,13,15,2.5,20.8-1.9c6.7-5,8.9-13.9,10.6-22.1,3.8-3.6,4.9-9.1,6.7-14,1.2-3.1,2.6-6,3.9-9.1,1.5-3.6,2.6-7.4,3.8-11.1a56,56,0,0,0,2.7-11.6c.5-6.2-1.2-12.9.6-18.7,2.3-.5,4.4-1.8,6.7-2.6,3.4-1.1,7-.9,10.6-.9h.2a6,6,0,0,0,3.5-.8c1.2-1,1.4-2.7,1.5-4.3C935.4,292.1,935.2,287.8,932.3,285.4ZM787.4,114.8a7.07,7.07,0,0,1-2.5.2Z"/><path class="cls-3" d="M791.3,178a10.58,10.58,0,0,1-4.2,2.2l-7.1,2.5c-3.8,1.4-7.9,2.8-11.9,2.3-2.3-.3-12-1.7-13.5-3.5-2.2-2.7,5.6-6.8,8.3-9.1a8,8,0,0,0,1.7-1.5c1-1.2.9-2.9.7-4.5a66.21,66.21,0,0,1-.5-11.8,27,27,0,0,1,.4-2.8c1-4.6,5.3-2.9,8.7-1.7a64.71,64.71,0,0,1,11.8,5.1,8.61,8.61,0,0,1,2.9,2.5c1.5,2.2.9,5.2.7,8-.2,2.2-.2,4.3,1.2,5.9a18,18,0,0,1,1.9,2A4,4,0,0,1,791.3,178Z"/><path class="cls-3" d="M693.4,106c1-4.4,1.2-9,2.4-13.4a65.27,65.27,0,0,1,3.1-8.4l4.4-10.3a6.62,6.62,0,0,1,2.1-3.1,5.8,5.8,0,0,1,3.4-.9,15.21,15.21,0,0,1,11.8,4.4c3,3.2,3.9,8.3,1.5,11.9-2.8,4.4-8.9,5.2-12.6,8.9a18,18,0,0,0-4.2,8.9c-1.8,8.4-1.2,17.1-1.8,25.7-.2,2.7-.7,5.7-3,7.1a8.68,8.68,0,0,1-4.5.9l-6.6.1c-1.1,0-5.1.7-5.8-.1-1.3-1.5,1.6-8.7,2.2-10.3,1.2-3.6,2.6-7,4-10.6C691.2,113.6,693.4,109.3,693.4,106Z"/><path class="cls-4" d="M828.8,420.1c-1.5,5.8-6,10.3-8.4,15.8-3.5,8.2-1.9,18.3-6.9,25.8a27.52,27.52,0,0,1-5.8,6,28,28,0,0,1-4,2.7,6.91,6.91,0,0,1-4.9.6c-2.1-.7-3.4-3-3.6-5.2a8.09,8.09,0,0,1,0-2.2,21.62,21.62,0,0,1,1-4.4c1.2-4,2.4-8.1,3.6-12.2a31.61,31.61,0,0,0,1.4-6.8c.1-2.5-1.5-5.8-.8-8.2.3-1.1,1.5-2,2-2.9a16.18,16.18,0,0,0,1.7-4.1c.8-2.8,1.4-5.8,3.1-8.1a19.63,19.63,0,0,1,3.9-3.7,10.46,10.46,0,0,1,3.7-2.1,9,9,0,0,1,4,.2,41,41,0,0,1,5,1.4h.1c2,.7,4.1,1.8,4.8,3.8A5,5,0,0,1,828.8,420.1Z"/><path class="cls-4" d="M935.2,297.2c-.1,1.5-.2,3.3-1.5,4.2a4.83,4.83,0,0,1-3.5.8H930c-3.6,0-7.2-.2-10.6.9-2.6.9-4.9,2.4-7.6,2.7-3.7.4-7.2-1.6-10.4-3.4a82.46,82.46,0,0,0-9.5-4.5c-2.1-.9-6.5-1.4-7.5-3.8l-.9-3.3-.6-1.5a7.6,7.6,0,0,1-1.1-3.3,5.17,5.17,0,0,1,1.1-3.2,9.29,9.29,0,0,1,6.5-3.4,26.83,26.83,0,0,1,7.5.4l24.6,3.5a56.7,56.7,0,0,1,5.7,1,10.78,10.78,0,0,1,4.9,2.1C935.2,289.1,935.4,293.4,935.2,297.2Z"/><path class="cls-5" d="M913.6,303.6c-3,6.3-.8,13.8-1.4,20.8a50.63,50.63,0,0,1-2.7,11.5c-1.2,3.7-2.3,7.5-3.8,11.1-1.2,3-2.7,6-3.9,9.1-1.8,4.9-3,10.4-6.7,14-1.7,8.2-3.9,17.1-10.6,22.1-5.8,4.3-14,4.5-20.8,1.9s-12.4-7.6-17.3-13-9.3-11.3-14.5-16.3a90.74,90.74,0,0,0-9.6-7.8,118.56,118.56,0,0,0-10.5-6.9,19.23,19.23,0,0,0-7.2-3.1,8.56,8.56,0,0,0-6.2,1.2,5.24,5.24,0,0,0-1.1,1,12,12,0,0,0-2,4.1c-4.2,10.9-15.5,16.6-24.5,24l-8.2,6.8c-1.1.9-2.4,2.3-1.8,3.6a3.53,3.53,0,0,0,1.7,1.5c4.8,2.4,10.4,3.3,14.3,6.9,1.4,1.3,2.8,3.1,4.8,3.2a10.88,10.88,0,0,0,3-.7,9.93,9.93,0,0,1,8.8,1.8,10.39,10.39,0,0,0,2.4,1.7,5.86,5.86,0,0,0,2.3.1c2.1-.2,4.4-.3,6.3.6s3.5,3.2,5.7,3.3c1.1.1,2.4-.3,3.4-.2a1.6,1.6,0,0,1,1.4.8,8.45,8.45,0,0,1,.5,1.7c.4,1.4,1.8,2.3,2.7,3.4,1.4,1.8,1.6,4.2,1.4,6.5a27.69,27.69,0,0,1-8.8,18.4,11.13,11.13,0,0,1-5.4,3,4.9,4.9,0,0,1-5.3-2.4,8.75,8.75,0,0,0-1-2.2c-1.6-1.8-5.2.1-6.7-1.8-.9-1.2-.3-3.1-1.1-4.3s-3-1-4.6-1.1c-1.9-.1-3.7-1-5.5-1.5-3-.8-6.1-.5-9.2-.7a48.12,48.12,0,0,1-7.6-1.2l-12.7-2.6c-8.1-1.7-16.2-3.3-23.9-6.3a18.88,18.88,0,0,1-8-4.9,14.05,14.05,0,0,1-3.1-7.3c-1.8-10.7,7.8-19.8,9-30.5.4-3.9,2-7.6,3.5-11.3l8.1-19.5a16.15,16.15,0,0,1,1.7-3.5,23.38,23.38,0,0,1,3.9-3.8,26.24,26.24,0,0,0,7.8-12.8,2.63,2.63,0,0,1,.7-1.5,12.49,12.49,0,0,1,1.2-.8,3.8,3.8,0,0,0,1.5-4.5,2.58,2.58,0,0,0,2.4-2.4,4.33,4.33,0,0,1,.1-1.6c.2-.5.8-.8,1.2-1.2a3.61,3.61,0,0,0,.3-2.7,5.44,5.44,0,0,1,0-1.8,9.27,9.27,0,0,1,2.7-5.6c2.4-2.4,5.8-1.7,9.1-2.3a46.76,46.76,0,0,0,9.6-3.1,97.2,97.2,0,0,1,27.1-6.3,60,60,0,0,1,27.4,4.4,15.13,15.13,0,0,1,3.5,2,5.48,5.48,0,0,1,1.8,2.2,17.3,17.3,0,0,0,1.4,3.1c1.1,1.5,3.1,1.9,4.3,3.3s1.3,3.7,2.2,5.4c1.4,2.4,4.6,3.6,5.6,6.2.3.8.3,1.8.6,2.6.5,2.2,2.2,3.9,3.6,5.6a43.87,43.87,0,0,1,9.7,22c.3-5.1,3.7-9.6,8-12.4,1.2-.8,2.5-1.6,2.7-2.9.3-1.7-1.4-3.2-1.3-5a4.4,4.4,0,0,1,1-2.3,68.19,68.19,0,0,1,6.3-7.9c1.2-1.4,2.6-3,2.1-4.8-.4-1.3-1.8-2.1-2.5-3.3a4.07,4.07,0,0,1,.1-4.6c.7-1,1.8-1.6,2.2-2.8s-.5-2.8-.2-4.1a5.56,5.56,0,0,1,2.1-2.7,15.12,15.12,0,0,1,4.5-2.9c2.6-1,5.6-.6,8.4-.2,4.7.6,9.9,1.6,12.6,5.6C914,297.2,914.9,301,913.6,303.6Z"/><path class="cls-6" d="M935.2,297.2c-.1,1.5-.2,3.3-1.5,4.2a4.83,4.83,0,0,1-3.5.8H930c.4-2.1,2.9-3.3,3.4-5.4a4.36,4.36,0,0,0-1.1-3.6c-2.1-2.9-5.6-4.5-9-5.7a59.19,59.19,0,0,0-30.1-2.2,31.35,31.35,0,0,0-7.9,2.4c-.8.5-1.6,1.1-2.4,1.7a7.6,7.6,0,0,1-1.1-3.3,5.17,5.17,0,0,1,1.1-3.2,9.29,9.29,0,0,1,6.5-3.4,26.83,26.83,0,0,1,7.5.4l24.6,3.5a56.7,56.7,0,0,1,5.7,1,10.78,10.78,0,0,1,4.9,2.1C935.2,289.1,935.4,293.4,935.2,297.2Z"/><path class="cls-6" d="M828.8,420.1c-1.5,5.8-6,10.3-8.4,15.8-3.5,8.2-1.9,18.3-6.9,25.8a27.52,27.52,0,0,1-5.8,6,28,28,0,0,1-4,2.7,6.91,6.91,0,0,1-4.9.6c-2.1-.7-3.4-3-3.6-5.2a8.09,8.09,0,0,1,0-2.2l.1.2c.9,2.1,2.3,4.3,4.5,4.7a6.34,6.34,0,0,0,4.6-1.6c3.3-2.7,5.2-6.6,7-10.4a42.78,42.78,0,0,0,3.4-8.6c.4-1.7.6-3.4,1-5.1,1.9-8.3,8.4-15,9.8-23.4a10.87,10.87,0,0,0,.1-1.8,8.49,8.49,0,0,0-.9-2.2,22.5,22.5,0,0,1-.8-2.4c2,.7,4.1,1.8,4.8,3.8A4.2,4.2,0,0,1,828.8,420.1Z"/><path class="cls-6" d="M813.7,405.8a15.28,15.28,0,0,1-4.5,6.2,21.65,21.65,0,0,1-9.7,4.2,9.43,9.43,0,0,1-5-.1c-2.2-.8-3.8-2.8-6.1-3.5-1.6-.4-3.4,0-5-.3-3-.4-5.2-2.7-7.6-4.5-7.3-5.5-16.9-7.2-24.2-12.7a3,3,0,0,1-.8-.8,4.25,4.25,0,0,1-.2-1.1,22.85,22.85,0,0,1,2.2-9.6,34.53,34.53,0,0,1,4.1-5.9c6.5-8,13.1-16.1,20.9-22.8,3.3-2.8,6.9-5.5,11-6.8,2.3-.7,6.8-1.4,9.6-.2a5.24,5.24,0,0,0-1.1,1,12,12,0,0,0-2,4.1c-4.2,10.9-15.5,16.6-24.5,24l-8.2,6.8c-1.1.9-2.4,2.3-1.8,3.6a3.53,3.53,0,0,0,1.7,1.5c4.8,2.4,10.4,3.3,14.3,6.9,1.4,1.3,2.8,3.1,4.8,3.2a10.88,10.88,0,0,0,3-.7,9.93,9.93,0,0,1,8.8,1.8,10.39,10.39,0,0,0,2.4,1.7,5.86,5.86,0,0,0,2.3.1c2.1-.2,4.4-.3,6.3.6s3.5,3.2,5.7,3.3C811.4,406,812.7,405.7,813.7,405.8Z"/><path class="cls-7" d="M721.8,270.1c-1.9,1.2-3.9,2.6-4.7,4.7-.6,1.7-.3,3.7-1.1,5.4s-2.5,2.9-2.9,4.6c-.3,1.3.3,2.7,0,4a16,16,0,0,0-.5,2.1c-.1,1.5,1.2,2.7,2.4,3.5a20.22,20.22,0,0,0,18.2,2,68,68,0,0,0,7.6-3.9,15.82,15.82,0,0,1,8.2-2c1.7.2,3.2.8,4.9,1a4.39,4.39,0,0,0,5.6-3.8c1.4-5.5.8-11.3-.6-16.8s-3.3-10.8-4.7-16.3a83.47,83.47,0,0,0-3.4-12.1c-1.6-3.9-4.5-7.4-8.4-8.9a1.18,1.18,0,0,0-1-.1,1.79,1.79,0,0,0-.7.5,30.77,30.77,0,0,0-6.9,11.5c-1.6,4.8-2,9.9-3.4,14.7-.6,2-1.4,4.7-3,6.2S723.6,268.9,721.8,270.1Z"/><path class="cls-6" d="M789.2,165.8a20,20,0,0,1-24.4-11,27,27,0,0,1,.4-2.8c1-4.6,5.3-2.9,8.7-1.7a64.71,64.71,0,0,1,11.8,5.1,8.61,8.61,0,0,1,2.9,2.5C790,160.1,789.5,163,789.2,165.8Z"/><circle class="cls-3" cx="783.2" cy="145.7" r="20"/><path class="cls-6" d="M837.5,295.2c0,1.7-2.2,2.2-3.9,2.1-6-.4-11.9-2-17.8-1.5-7.5.7-14.4,4.8-21.9,5.2-2.9.1-5.8-.3-8.7.2-3.7.7-7,2.9-10.8,3.3-3.3.3-6.5-1-9.8-.8a14.84,14.84,0,0,0-6.5,1.9,9.27,9.27,0,0,1,2.7-5.6c2.4-2.4,5.8-1.7,9.1-2.3a46.76,46.76,0,0,0,9.6-3.1,97.2,97.2,0,0,1,27.1-6.3,59.88,59.88,0,0,1,27.4,4.3,15.13,15.13,0,0,1,3.5,2C837.4,294.8,837.5,295,837.5,295.2Z"/><path class="cls-8" d="M773.9,182.3l-8.1-3-3.4-1.3a16.9,16.9,0,0,0-4.4-1.2c-3.9-.3-7.6,2.3-9.7,5.6s-2.9,7.3-3.5,11.2c-.9,5.3-1.7,10.6-2.3,15.9a101,101,0,0,0-1,14.5c.2,12.4,2.8,24.6,5.7,36.6a128.86,128.86,0,0,1,3.2,16.2c.2,2.3.3,4.5.6,6.8.3,2.5.7,5.1,1.1,7.6l2.4,14.4c3-2.1,6.4-4,10.1-4.1,3.3-.1,6.5,1.1,9.8.8,3.8-.3,7.1-2.6,10.8-3.2,2.9-.5,5.8-.1,8.7-.2,7.5-.4,14.4-4.5,21.9-5.2,6-.5,11.9,1.1,17.8,1.5,1.7.1,3.9-.4,3.9-2.1,0-1.2-1.2-1.9-2.2-2.5a100.45,100.45,0,0,1-13.5-9.7c-3.9-3.1-7.9-6.3-10.7-10.5-6.5-10.1-4.3-23.9-9.9-34.6-4.5-8.7,0-20.1,0-29.9,0-4.9,0-9.8-1.2-14.6a51.3,51.3,0,0,0-2.7-7.8l-3.9-9.9a1.77,1.77,0,0,0-.5-.8,1.61,1.61,0,0,0-.9-.3,9.76,9.76,0,0,0-6.5,2.1c-1.8,1.5-3,3.6-4.8,5.2C778.9,181.7,776.4,183.2,773.9,182.3Z"/><path class="cls-7" d="M787,176.6c.6-2.7,1.3-5.6,3.2-7.7s5.2-3.3,7.5-1.7c2.7,1.7,2.8,5.8,5.1,8,2,1.9,5,2.1,7.7,2.3a50.58,50.58,0,0,1,14.3,3.4,7.22,7.22,0,0,1,2.4,1.4c1.2,1.4,1,3.6,1.6,5.4.8,2.3,3.2,3.7,4.1,6,1,2.5,0,5.3-.8,7.9-1.5,4.6-2.5,9.5-3.9,14.1s-3.6,9.3-7,12.8c-1.5,1.6-3.8,3-5.8,2.1l-.8,5.5a10.28,10.28,0,0,0,0,3.5,3.11,3.11,0,0,0,2.3,2.5c.2.9,1.1,1.3,1.8,1.7a4.91,4.91,0,0,1,1.3,6.9v.1c-.6.9-1.6,1.5-1.9,2.5-.5,1.5.6,3,1.9,3.8s2.8,1.2,4.2,1.9c2.7,1.6,4.2,4.7,5.2,7.7.7,2.3,1.3,4.8,3,6.4a18.11,18.11,0,0,1,2.1,1.8,7.75,7.75,0,0,1,1.8,4.6,9,9,0,0,1-1.3,6c-2,2.9-5.7,3.7-9,5-5.3,2.2-9.7,6.1-14.4,9.4a16.28,16.28,0,0,1-6.5,3.1c-3.2.4-6.4-1-9.7-1.1a22.55,22.55,0,0,0-5.8.8l-6,1.3c.3-4.6-2.2-9.3-3.7-13.7-2.7-8.3-3.2-17.3-2.6-26s2.4-17.4,4.2-25.9c1.2-6,1.1-12.3,3-18.1,1.8-5.6,4.3-11,5.2-16.8C791.2,193.9,784.9,185.9,787,176.6Z"/><path class="cls-7" d="M832.5,195.1a12.38,12.38,0,0,1,1.2,3.2,12.27,12.27,0,0,0,2.5,4.8,19.28,19.28,0,0,1,2.7,3c.9,1.7.6,3.9,1,5.8.5,2.1,2,3.9,2.2,6a11,11,0,0,0,.2,1.8c.7,2.4,4.2,3,5,5.4.5,1.6-.4,3.3-.2,4.9a4.19,4.19,0,0,1,.1,1.6,3.27,3.27,0,0,1-1.1,1.5,23.26,23.26,0,0,0-6.6,11.7,61.39,61.39,0,0,0-1.5,13.5l-3.9-5.2a4.89,4.89,0,0,0-1.6-1.6c-.5-.3-1.1-.5-1.6-.8-1.5-.8-2.1-2.6-2.6-4.2a40.7,40.7,0,0,0-7-12.1c-1.6-1.9-3.4-3.8-3.8-6.2a12.22,12.22,0,0,1,.2-3.3c1-6.6,2.1-13.3,5.3-19.1,1.5-2.7,3.4-5.2,4.8-7.9C828.6,196.1,829.9,191.3,832.5,195.1Z"/><path class="cls-7" d="M733.8,201.4a5,5,0,0,1-.6,2.4,3.2,3.2,0,0,1-3.2,1,10.36,10.36,0,0,1-3.2-1.5c-2.8-1.8-5.6-3.5-8.4-5.3a35.83,35.83,0,0,1-4.5-3.1,38.39,38.39,0,0,1-5.9-6.2c-4.9-6-9.2-12.5-14.6-18-1.5-1.5-3-2.9-4.4-4.5a74,74,0,0,1-5.3-7.2c-1.6-2.3-3.2-4.9-2.9-7.6.2-1.6.9-3,1.1-4.5s-.4-3.4-1.9-3.9a4.33,4.33,0,0,1-.5-.1,2.92,2.92,0,0,1-.9-.2c-1.4-.6-1.2-2.7-.2-3.9s2.5-1.8,3.4-3c.4-.7.9-1.4,1.4-2.1a5.67,5.67,0,0,1,2.3-1.2,37,37,0,0,1,17.8-.7c1,.2,2.1.6,2.4,1.6a3.3,3.3,0,0,1,0,1.4,41.13,41.13,0,0,0-.8,6,6.15,6.15,0,0,0,.1,1.3c.5,4.2,3.2,7.8,5.9,11.1,3.2,3.9,6.4,7.9,9.7,11.8a43,43,0,0,0,5.8,6.2c2,1.7,4.6,3,6.2,5.1,1.3,1.7.9,4.1,1,6.1A120.67,120.67,0,0,1,733.8,201.4Z"/><path class="cls-3" d="M860.8,243.1a26.06,26.06,0,0,0,2.7-3.1,22.81,22.81,0,0,0,2-4.5l5.8-16.5a72.13,72.13,0,0,1,3-7.7c1.2-2.7,2.6-5.4,3.9-8a102.89,102.89,0,0,0,7.8-21.8,8.52,8.52,0,0,0,.3-3.2c-.3-1.7-1.6-3.1-2.8-4.3a20.6,20.6,0,0,0-4.3-3.5,7.08,7.08,0,0,0-5.3-.9c-2.6.8-4.2,3.4-4.8,6s-.4,5.3-.6,8c-.4,3.8-1.7,7.5-2,11.4-.2,2.2,0,4.5-.3,6.7a25.1,25.1,0,0,1-3,8.3,52.23,52.23,0,0,1-12.9,15.9,22.79,22.79,0,0,0-3.9,3.7,12.94,12.94,0,0,0-1.9,4.7,10.6,10.6,0,0,0,.8,7.6c1.6,2.8,4.8,4,7.8,4.6C857.1,247.3,858.1,246,860.8,243.1Z"/><path class="cls-4" d="M783.3,116.8a9.42,9.42,0,0,1,9.1-4.9,10.07,10.07,0,0,1,7.9,7.1,20.73,20.73,0,0,0,1.5,4.4c1.2,1.9,3.5,2.5,5.3,3.9a10.49,10.49,0,0,1,3.4,7.4,23.83,23.83,0,0,1-1.3,8.4,35.74,35.74,0,0,0-1,3.5c-.2,1.2-.2,2.3-.4,3.5a11.33,11.33,0,0,1-4.6,7.6,3.08,3.08,0,0,1-1.2.5c-.8-.1-1.3-1-1.5-1.8-1.6-4.6-1.2-10.2-4.1-13.9a13.47,13.47,0,0,0-4.7-3.5,5.42,5.42,0,0,0-2.4-.9,6.25,6.25,0,0,0-3.5,1.3,22.53,22.53,0,0,1-6.9,3.1,8.84,8.84,0,0,1-7.2-1.5c-1.4-1.1-2.4-2.9-3.9-3.7s-3.1-.8-4.6-1.5a6.83,6.83,0,0,1-3.6-9,6,6,0,0,1,.9-1.5c1-1.2,2.5-1.9,3.4-3.2,1.2-1.7,1-4.1,1.6-6.1a8.71,8.71,0,0,1,5.1-5.8,7.08,7.08,0,0,1,7.1,1.5c1,.9,1.8,2.1,2.8,3a8.1,8.1,0,0,0,7.4,2"/><path class="cls-6" d="M799.7,264a3.93,3.93,0,0,0-1.1,4.2c.2.5,10.5-1.5,11.6-1.7,2.7-.4,7.5-.2,9.3-2.7,3.3-4.4-6.8-3.4-8.7-3.3C807.4,260.9,802.4,261.3,799.7,264Z"/><path class="cls-4" d="M705.9,135a41.13,41.13,0,0,0-.8,6c-3,.6-6.1-.4-9-1.4l-8.3-2.8a2.39,2.39,0,0,0-3.2.6,60.79,60.79,0,0,1-5,5.5,2.92,2.92,0,0,1-.9-.2c-1.4-.6-1.2-2.7-.2-3.9s2.5-1.8,3.4-3c.4-.7.9-1.4,1.4-2.1a5.67,5.67,0,0,1,2.3-1.2,37,37,0,0,1,17.8-.7c1,.2,2.1.6,2.4,1.6A3,3,0,0,1,705.9,135Z"/><path class="cls-6" d="M705.9,135a41.13,41.13,0,0,0-.8,6c-3,.6-6.1-.4-9-1.4l-8.3-2.8a2.39,2.39,0,0,0-3.2.6,60.79,60.79,0,0,1-5,5.5,2.92,2.92,0,0,1-.9-.2c-1.4-.6-1.2-2.7-.2-3.9s2.5-1.8,3.4-3c.4-.7.9-1.4,1.4-2.1a5.67,5.67,0,0,1,2.3-1.2,37,37,0,0,1,17.8-.7c1,.2,2.1.6,2.4,1.6A3,3,0,0,1,705.9,135Z"/><path class="cls-6" d="M781.5,324.8c1.4.5,3,1.2,3.5,2.6l-11.6-2.9-6-1.5c-1.1-.3-4.9-.6-5.6-1.4-1-1.2,2.5-.4,3.2-.3l5.8.9C774.5,322.8,778,323.9,781.5,324.8Z"/><path class="cls-6" d="M786,335.1c-1-.7-3.9-.6-5.1-.9-1.8-.4-3.6-1-5.3-1.5-3.6-1.2-7.2-2.5-10.8-3.4-.7-.1-3-.2-2.9-1s2.3-1.2,2.9-1.2c3.3-.2,7.3,1.3,10.4,2.4A42.72,42.72,0,0,1,786,335.1Z"/><path class="cls-6" d="M778.7,315.7c-3.7-1-7-3.3-10.8-3.7a5.38,5.38,0,0,1-2.8-.8,3.19,3.19,0,0,1-.9-1.6,18.06,18.06,0,0,1,7.8,2,20.49,20.49,0,0,1,3.6,1.9C776.5,313.9,777.8,315.4,778.7,315.7Z"/><path class="cls-7" d="M848.6,226.1a17.39,17.39,0,0,0,12.3,19.3c-.5,2.4-2.9,3.7-4.7,5.4-2.4,2.4-3.7,5.9-6.6,7.7-3.2,2-7.3,1.2-11,.4a1.38,1.38,0,0,1-.9-.5c-.1-.1-.1-.3-.2-.4-1.2-4.4-2-9.2-.8-13.6,1-3.8,3.4-7,5.3-10.3S844.3,227.2,848.6,226.1Z"/><path class="cls-7" d="M759.2,168.8a25.27,25.27,0,0,0-11,3.4c-2.2,1.3-4.5,3-7.1,2.7-1.5-.2-3-1-4.5-.6a7.89,7.89,0,0,0-2.3,1.4,2.53,2.53,0,0,1-2.5.4l-1,13.8c-.4,5.3-.8,10.6.5,15.8.7,2.6,2.1,5,2.2,7.7s-.1,5.4.1,8.1c.2,2.5.7,4.9.9,7.4.3,4.7-.9,9.4-2,13.9-1.7,6.7-2.7,13.6-6,19.7-.9,1.7-2,3.4-2,5.3a1.7,1.7,0,0,0,.1.7c-1,.5-1.9,1.1-2.8,1.6-1.9,1.2-3.9,2.6-4.7,4.7-.6,1.7-.3,3.7-1.1,5.4s-2.5,2.9-2.9,4.7c-.3,1.3.2,2.7,0,4a16,16,0,0,0-.5,2.1c-.1,1.5,1.2,2.7,2.4,3.5a18.86,18.86,0,0,0,6,2.6l6-23.7h0a190.3,190.3,0,0,0,13.5-31.5,65.18,65.18,0,0,1,3.9-10.4,65.35,65.35,0,0,0,3-5.9c.9-2.5,1-5.3,1.4-7.9a55.12,55.12,0,0,1,2.3-9.1c1.1-3.2,2.3-6.4,2.5-9.8.3-4.8-1.4-9.9.4-14.4a20.24,20.24,0,0,1,3-4.6c2.6-3.2,4.9-6.5,7.5-9.6C763.4,168.8,761.2,168.7,759.2,168.8Z"/><g class="cls-9"><path d="M787.4,113.5l-1.2.1-.1.1C786.5,113.6,786.9,113.6,787.4,113.5Z"/><path d="M810.3,134.2A23.2,23.2,0,0,1,809,140a35.74,35.74,0,0,0-1,3.5c-.2,1.2-.2,2.3-.4,3.5a11.33,11.33,0,0,1-4.6,7.6,3.08,3.08,0,0,1-1.2.5c-.8-.1-1.3-1-1.5-1.8-1.6-4.6-1.2-10.2-4.1-13.9a13.47,13.47,0,0,0-4.7-3.5,5.42,5.42,0,0,0-2.4-.9,6.25,6.25,0,0,0-3.5,1.3,22.53,22.53,0,0,1-6.9,3.1,8.84,8.84,0,0,1-7.2-1.5c-1.4-1.1-2.4-2.9-3.9-3.7s-3.1-.8-4.6-1.5a7,7,0,0,1-3.9-4.5c0-.1-.1-.3-.1-.4a7.81,7.81,0,0,0,.1,3.4,7.26,7.26,0,0,0,3.9,4.5c1.5.6,3.2.6,4.6,1.5s2.5,2.6,3.9,3.7a8.42,8.42,0,0,0,7.2,1.5,19.55,19.55,0,0,0,6.9-3.1,6.25,6.25,0,0,1,3.5-1.3,5,5,0,0,1,2.4.9,15.12,15.12,0,0,1,4.7,3.6c2.9,3.7,2.5,9.3,4.1,13.9.3.8.8,1.7,1.5,1.8a2.11,2.11,0,0,0,1.3-.5,11.11,11.11,0,0,0,4.6-7.6c.2-1.2.2-2.3.4-3.5a35.74,35.74,0,0,1,1-3.5,21.76,21.76,0,0,0,1.3-8.4A.9.9,0,0,1,810.3,134.2Z"/></g><path class="cls-10" d="M747,214.5l-.7,9.1c-.1,1.2-2.5,30.8-20,65.3-15,29.6-44.2,68.1-99.3,89.8-4.3,1.7-8.8,3.3-13.4,4.8l-5.2-16.2A186.65,186.65,0,0,0,645.6,351c28.1-16.2,49.9-39.4,65.2-69.2a186.9,186.9,0,0,0,17.1-50.3H665.2v-17Z"/><path class="cls-11" d="M620.3,378.7c55.1-21.7,84.3-60.2,99.3-89.8,17.5-34.5,19.9-64,20-65.3l.7-9.1h7l-.7,9.1c-.1,1.2-2.5,30.8-20,65.3-15,29.6-44.2,68.1-99.3,89.8-4.3,1.7-8.8,3.3-13.4,4.8l-.7-2.1C615.7,380.4,618,379.6,620.3,378.7Z"/><path class="cls-10" d="M510,367.2l-5.2,16.2c-4.6-1.5-9.1-3.1-13.4-4.8-55.1-21.7-84.3-60.2-99.3-89.8-17.5-34.5-19.9-64-20-65.3l-.7-9.1h81.7v17H390.4a190.43,190.43,0,0,0,17.1,50.3c15.2,29.8,37.1,52.9,65.1,69.1A188,188,0,0,0,510,367.2Z"/><path class="cls-11" d="M498.2,378.7c-55.1-21.7-84.3-60.2-99.3-89.8-17.5-34.5-19.9-64-20-65.3l-.7-9.1h-7l.7,9.1c.1,1.2,2.5,30.8,20,65.3,15,29.6,44.2,68.1,99.3,89.8,4.3,1.7,8.8,3.3,13.4,4.8l.7-2.1C502.9,380.4,500.5,379.6,498.2,378.7Z"/><path class="cls-10" d="M653.6,523.8v91.7H464.9V523.8l6-8c61.1-21.7,73.5-78.3,76-100.7a72.6,72.6,0,0,0,.6-9.3h23.3q.15,4.65.6,9.3c2.5,22.4,14.9,79,76,100.7Z"/><rect class="cls-6" x="464.9" y="523.8" width="188.7" height="11.5"/><path class="cls-11" d="M480.9,515.8c61.1-21.7,73.5-78.3,76-100.7a72.6,72.6,0,0,0,.6-9.3h-10q-.15,4.65-.6,9.3c-2.5,22.4-14.9,79-76,100.7l-6,8v91.7h10V523.8Z"/><path class="cls-6" d="M436.3,214.5h16.9v17H437.8C437.2,225.9,436.7,220.2,436.3,214.5Z"/><path class="cls-6" d="M510,367.2l-5.2,16.2c-4.6-1.5-9.1-3.1-13.4-4.8a179.36,179.36,0,0,1-18.7-27.7A190.05,190.05,0,0,0,510,367.2Z"/><path class="cls-6" d="M608.5,367.2a186.65,186.65,0,0,0,37.2-16.3A172.52,172.52,0,0,1,627,378.6c-4.3,1.7-8.8,3.3-13.4,4.8Z"/><path class="cls-6" d="M682.2,214.5c-.4,5.7-.9,11.4-1.5,17H665.3v-17Z"/><path class="cls-6" d="M571.5,415.1a63.64,63.64,0,0,1-24.6,0,72.6,72.6,0,0,0,.6-9.3h23.3C571,408.9,571.2,412,571.5,415.1Z"/><path class="cls-10" d="M438.3,186.3c.4,126.1,54.4,228,121,228s120.6-101.9,121-228Z"/><path class="cls-11" d="M459.8,186.3H438.3c.4,126.1,54.4,228,121,228a65.59,65.59,0,0,0,10.8-.9C508.5,403.1,460.2,305.5,459.8,186.3Z"/><rect class="cls-1" x="495.1" y="558.9" width="128.3" height="33"/><polygon class="cls-11" points="501.1 563.4 623.4 563.4 623.4 558.9 495.1 558.9 495.1 591.9 501.1 591.9 501.1 563.4"/><path class="cls-12" d="M369.8,308c-2.3-.8-15.9-11.5-16.9-16.4s7.2-50.2,7.2-50.2-.8,0-2-.1v-.7l1.7-59.6s6.9-40-6.2-37.7-4.9,37.7-4.9,37.7-1.5,17.9-2.5,23.3c-1,5.2-5.6,26.3-2.5,32.9a2.51,2.51,0,0,0,.4.7h0s.5,22.5-5.1,25.6c-5.4,2.9-7.6,17.7-7.8,19l-.3-.1h0a16.85,16.85,0,0,1-4.2-3.8,2.19,2.19,0,0,1-.3-.5,22,22,0,0,0-.6-29.9,21,21,0,0,0-6.2-4.5,14.78,14.78,0,0,0-1.3-5.5c-2.6-5.6-17-12.8-27.2-13-4.7-.1-8.6,1.2-10,4.9-.7,1.9-.5,4-.8,5.9-.6,4-3.2,7.1-6.5,9.6a33.2,33.2,0,0,0-4.3-4.1c-3.3-2.6-10-11-10-11s-20.8-21.5-22.3-27.4-22.3-41.3-26.9-35.2S226.2,201,226.2,201s3.9,9.8,6.9,13.1,26,36.7,26,36.7l1.1,2.3c-4.9,2.6-9.3,5.8-10.9,10.9-2.3,7.5,2.7,15,6.2,22,6.8,13.7,7.8,31.1-1,43.6-7.8,11-21.4,16.3-34.2,20.8a33.71,33.71,0,0,0,21.6,7.2c-2.9,8.5-13.4,11.3-22.2,12.9,4.7,4.5,11.3,6.1,17.7,7.1a59.89,59.89,0,0,0,9.5.8h.8l.8-.1a31.06,31.06,0,0,0,3.2-.4c4.6-.9,9.1-3.5,11.5-7.5,2-3.5,2.7-8.2,6.3-10a7.75,7.75,0,0,1,3-.7h2l15.1.2h1.9c4.3-.1,8.8-.8,11-4.4a11.82,11.82,0,0,0,1.4-5.5c.3-4.8,0-9.7.1-14.5,1.3,8.8,2.6,22.5-.6,27.5a47.93,47.93,0,0,1-9.4,10.2,29.49,29.49,0,0,0-2.5,2.5c-.5.3-.8.5-.8.5l-.3.9a16.08,16.08,0,0,0-2.4,5.7,4.4,4.4,0,0,0-.2,1.6c.4.7-2.5,3.6-1.7,4.9-7.1,8.3-8.5,21-8.5,21l-13,19.7c-6.7,17.5-16.7,19.3-16.7,19.3s-23.5-15.8-24.1-16.5-9.6-4.6-9.6-4.6a10.36,10.36,0,0,0-4.6-4.2c-3.1-1.3-3.3-6-3.3-6-.4-11.2-6.9-12-6.9-12a21,21,0,0,0-12.4,2.2l-.9.1c-4.5.4-10,.8-16,1.2-16.7,1.1-20.7,11.9-20.7,11.9s-2.1,2.3.6,4.8,19.9,0,20.6-.1a10.32,10.32,0,0,1-3.9-.3c2.7-.1,6.4-.2,9.6-.2h.8a43.61,43.61,0,0,0-.3,5.1c0,3.2,8.9,5.2,8.9,5.2l26.9,24s16.9,7.6,27.7,18.5,20.3,1.5,20.3,1.5c11.4-2.8,44.2-42.5,44.3-42.5h0c0,1.2.7,39.8,2,47.5h0a5.27,5.27,0,0,0,.3,1.2c1.5,3.3-.5,12.4-1.4,16.3a39.58,39.58,0,0,0-.6,9.7s-12.3,47-11.3,51.1-6.7,23.3-6.7,23.3v16l1.3-.1c-.2.3-.3.5-.5.8l-.1.2s8.2,1.8,13.7,1.3,15,4.2,15,4.2,3.2,1.5,13.1,2.2,9.9-4.4,9.9-4.4c-1.1-6.8-16.7-9.1-17.2-9.2-1.3-.8-2.4-1.7-3.4-2.4l-.2-.2c.1-.1.1-.3.2-.5,1.7-6.8-7.6-9.8-7.6-9.8v-1.7c6-3.1,7.2-24.2,7.2-24.2s9-26.1,10.3-30.5,0-10.9,0-10.9l.9-5.6s1.9-3.8,1.9-4.6a10.72,10.72,0,0,1,2.2-5.4c1.4-1.7-1.5-5.6-1.5-5.6l2.6-6.7v-7.3l6-26.5s6.3-30.9,4.1-41,2.6-15.2,2.6-15.2c-.4.2-.9.4-1.3.6a31.21,31.21,0,0,0,1.5-4.3l13.5,1.7v.2h4.9s-1.5-19-1.5-26.7,5.2-35.2,5.2-35.2S372.1,308.8,369.8,308Zm-59.9-22.2c0,.8-.1,1.5-.1,2.3l-.3.4-.5-.4-.6,1-.2.1c-1.3-.7-2-4.6-3-3.7l-.1.1c-.2-.2-.4-.3-.6-.1l-.2.2v-.9a21,21,0,0,0,5.6.7Zm44.9,88.5h.3l-.5,1.3C354.7,375.2,354.7,374.8,354.8,374.3ZM305.5,601.1l-1.8-.5,1-.2.8.7.2.1Zm18.8-2.7a17.39,17.39,0,0,1-1.8-1.1C322.7,597.4,323.5,597.9,324.3,598.4Z"/><polygon class="cls-13" points="361.4 355.4 349.3 387 352.3 387 340.9 396.1 361.4 398.6 361.4 355.4"/><polygon class="cls-13" points="342.4 375.6 361.4 375.6 368.4 318.3 342.4 318.3 342.4 375.6"/><path class="cls-14" d="M305.4,331.9l4.1-.7,9.4-1.6s28.3-6.4,34.1-6.9a39.73,39.73,0,0,0,10.2-2.9c1.5-.7,2.5-1.2,2.5-1.2L355.5,300l-15.8-11.7s-10-2.1-14.2-8a9.44,9.44,0,0,1-1.3-8.9c2.6-8-15.4,7.6-15.4,7.6s.2,3.8,0,8.5c0,.9-.1,1.9-.2,2.9a13.55,13.55,0,0,1-.2,2c-.4,4.8-1.3,9.6-3.1,12.6C301,312.2,305.4,331.9,305.4,331.9Z"/><path class="cls-6" d="M308.8,288h.4c.7,0,1.3-1.5,2-1.6,5.6-.5,10.8-1.7,14.3-5.7a9.44,9.44,0,0,1-1.3-8.9c2.6-8-15.4,7.6-15.4,7.6S309,283.2,308.8,288Z"/><path class="cls-14" d="M286.9,265.3a21.89,21.89,0,0,0,21.9,21.9h0a14.77,14.77,0,0,0,2.1-.1,22,22,0,1,0-24-21.8Z"/><path class="cls-4" d="M280.2,232.1c-.7,1.9-.5,3.9-.8,5.9-1.1,7.1-8.3,11.4-14.8,14.4s-13.9,6.5-16,13.4c-2.3,7.4,2.7,14.9,6.2,21.9,6.7,13.6,7.7,30.9-1,43.3-7.7,11-21.2,16.2-33.9,20.8a33.35,33.35,0,0,0,21.5,7.1c-2.9,8.5-13.3,11.3-22.1,12.8,4.6,4.5,11.3,6.1,17.6,7.1,4.6.7,9.4,1.2,14,.3s9-3.4,11.4-7.5c2-3.5,2.7-8.2,6.3-10a12.7,12.7,0,0,1,5.1-.8l15,.2c4.7,0,10.2-.4,12.6-4.3a11.82,11.82,0,0,0,1.4-5.5c.6-9.8-1.2-20.2,2.8-29.2,1.2-2.7-6.6-7-5.8-9.9,2.8-9.9,3.5-17.6,3.5-27.9,0-8,5.2-14.8,9.4-21.5s7.8-15.2,4.5-22.4C313.2,232.1,284.6,220.5,280.2,232.1Z"/><path class="cls-14" d="M300.1,598.2l3.8,2.5.6.4.1.1,4.5,3,10.6,1.8,9.3-.6s2.7-5.6-1.5-5.5a8.37,8.37,0,0,1-3.8-1.1l-.6-.3h0a17.39,17.39,0,0,1-1.8-1.1h0c-1.2-.8-2.4-1.7-3.4-2.4-1.4-1.1-2.3-1.9-2.3-1.9Z"/><path class="cls-6" d="M304,600.7l.6.4.1.1,4.5,3,10.6,1.8,9.3-.6s2.7-5.6-1.5-5.5a8.37,8.37,0,0,1-3.8-1.1c.7.6,1.4,1.2,1.4,1.7.2,1.4-6.9,4-6.9,4l-9.9-2.6s-1.7-.5-4-1.1l-.2-.1Z"/><path class="cls-4" d="M287,603.2s8.1,1.8,13.6,1.3,14.9,4.2,14.9,4.2,3.2,1.5,13,2.1,9.8-4.3,9.8-4.3c-1.1-6.8-16.6-9-17.1-9.1h0a12.08,12.08,0,0,1,1.8,1.1h0c1.1.7,2.3,1.7,2.4,2.4.2,1.4-6.9,4-6.9,4l-9.9-2.6s-1.7-.5-4-1.1h-.2a73.69,73.69,0,0,0-10.4-2.1c-4.3-.5-6.5,3.2-6.9,4C287,603,287,603.1,287,603.2Z"/><path class="cls-14" d="M158.5,423.4l4.3,3.3s1.3-.1,3.1-.1h.6c2.7-.1,6.4-.2,9.6-.2a31.2,31.2,0,0,1,6.1.3c2.2.8,6-12.4,6-12.4l-4.3-1-1.4-.3-1-.2L178,412l-10.7,1.2-7.5,4.8Z"/><path class="cls-6" d="M158.5,423.4l4.3,3.3s1.3-.1,3.1-.1a3.55,3.55,0,0,1-2-1.8c-2.8-7.8,11.1-11.1,11.1-11.1l6.5-.3,1.3-.1h1l-1.4-.3-1-.2-3.5-.8-10.7,1.2-7.5,4.8Z"/><path class="cls-4" d="M150,426.9c2.6,2.4,19.8,0,20.5-.1a10.32,10.32,0,0,1-3.9-.3,4,4,0,0,1-3-2.2c-2.8-7.8,11.1-11.1,11.1-11.1l6.5-.3,1.2-.1,15.7-.7.8-4.3s-5.1.5-13.1,1.1c-4.5.4-10,.8-15.9,1.2-16.6,1.1-20.5,11.8-20.5,11.8A3.54,3.54,0,0,0,150,426.9Z"/><path class="cls-14" d="M342.5,239.2a2.51,2.51,0,0,0,.4.7l3.8,5.6,9.9,1,.1-3.9,1.7-59.3s6.9-39.8-6.1-37.5-4.8,37.5-4.8,37.5-1.5,17.8-2.5,23.2C343.9,211.6,339.4,232.7,342.5,239.2Z"/><path class="cls-14" d="M320.1,386.4l2.8,4.8,6.3,10.8s11.5,4.2,14.4,1c1.6-1.8,3.4-7.9,4.6-13,1-4.2,1.7-7.7,1.7-7.7Z"/><path class="cls-6" d="M320.1,386.4l2.8,4.8.5-.5c3.2-4.1,17.3-.9,24.8-.6,1-4.2,1.7-7.7,1.7-7.7Z"/><path class="cls-6" d="M176.2,426.3a31.2,31.2,0,0,1,6.1.3c2.2.8,6-12.4,6-12.4l-5.8-1.4,15.7-.7.8-4.3s-5.1.5-13.1,1.1a17.33,17.33,0,0,0-4.4,3.7l-.2.3A25.79,25.79,0,0,0,176.2,426.3Z"/><path class="cls-6" d="M300.1,598.2l4.4,2.9c6.6-1.2,12.6-3.1,13.3-6V595c-1.4-1.1-2.3-1.9-2.3-1.9Z"/><path class="cls-6" d="M287.1,603a143,143,0,0,0,17.3-1.9,91.49,91.49,0,0,0-10.4-2.2C289.7,598.5,287.5,602.2,287.1,603Z"/><path class="cls-5" d="M176.6,431.4c0,3.2,8.8,5.2,8.8,5.2l26.8,23.8s16.8,7.5,27.5,18.3,20.1,1.5,20.1,1.5c11.3-2.8,44-42.3,44-42.3s.8,45.1,2.3,48.4-.5,12.4-1.4,16.2a39.28,39.28,0,0,0-.6,9.7S291.9,559,292.9,563s-6.6,23.2-6.6,23.2v15.9s30-1.2,31.6-7.9-7.5-9.7-7.5-9.7v-1.7c6-3.1,7.1-24.1,7.1-24.1s8.9-26,10.2-30.3,0-10.8,0-10.8l.9-5.6s1.9-3.8,1.9-4.6a10.39,10.39,0,0,1,2.2-5.3c1.4-1.7-1.5-5.6-1.5-5.6l2.5-6.6v-7.3l6-26.4s6.2-30.7,4.1-40.8,2.5-15.2,2.5-15.2c-10.2,5.4-15.4-6.6-17.1-11.7-.4-1.3-.6-2.2-.6-2.2s-14-5.2-27.1-3.9a29.37,29.37,0,0,0-7.8,1.7c-14.5,5.2-16.8,26.9-16.8,26.9L264,430.7c-6.6,17.5-16.6,19.2-16.6,19.2s-23.3-15.7-24-16.4-9.6-4.6-9.6-4.6a10.41,10.41,0,0,0-4.6-4.2c-3.1-1.3-3.3-6-3.3-6-.4-11.1-6.9-12-6.9-12C176.5,404.9,176.6,428.2,176.6,431.4Z"/><rect class="cls-13" x="306.4" y="326.4" width="13.8" height="42.7"/><path class="cls-6" d="M342.4,239.1h0a2,2,0,0,0,.4.8l3.8,5.6,9.9,1,.1-3.9C353.6,242.3,346.5,241.4,342.4,239.1Z"/><path class="cls-13" d="M342.8,239.8s.5,22.4-5.1,25.5-7.8,19-7.8,19,17,11.2,20.8,16.1,12.5,16.6,10.7,19.4,4.3,15.5,4.3,15.5-11.2,22.9-8.7,31.6,2.8,31.6,2.8,31.6h4.9s-1.5-18.9-1.5-26.5,5.1-34.9,5.1-34.9,2.3-26.8,0-27.5-15.8-11.5-16.8-16.3,7.1-50,7.1-50S348.2,242.9,342.8,239.8Z"/><path class="cls-6" d="M306.1,322.4a22.45,22.45,0,0,0,3.3,8.7l9.4-1.6s28.3-6.4,34.1-6.9a39.73,39.73,0,0,0,10.2-2.9,45.73,45.73,0,0,0-12.6-20.8l-3.6-3.3A61.52,61.52,0,0,0,328.8,284c.4.4,30.1,25.7,23.6,30.7s-24-7.1-24-7.1l-19.9-17.1-.7-.6-1.1,1.8a8.86,8.86,0,0,1,1.7.8,29.27,29.27,0,0,1,14,17.4C326.5,323.7,306.1,322.4,306.1,322.4Z"/><path class="cls-15" d="M300,386.1s18.9,10.5,23.4,4.6c1-1.3,3.1-1.8,5.7-2-.4-1.3-.6-2.2-.6-2.2s-14-5.2-27.1-3.9C300.5,384.8,300,386.1,300,386.1Z"/><path class="cls-16" d="M308.7,289.9l20.6,17.7s17.4,12.1,24,7.1S329.7,284,329.7,284h0a61.22,61.22,0,0,1,18.1,11.5l3.6,3.3c9.4,8.8,11.6,8.8,11.9,21.6.1,3.2-1,7.7-1.8,8.5-3.1,3-5.2,24.8-4.7,27.3s-5.7,24.6-3.7,30.7-25-3.1-29.6,2.8-23.5-4.3-23.5-4.3,10.5-26.8,13-28.5,5.6-15.5,0-21.9-6.1-12.5-6.1-12.5,20.4,1.3,16.3-12.5a28.76,28.76,0,0,0-15.7-18.2Z"/><path class="cls-6" d="M336.2,335s-7.9,14.9-18.1,18.8c-.3.1-.6.2-1,.3C306.4,357.4,337,339.7,336.2,335Z"/><path class="cls-14" d="M225.6,203.1s3.8,9.7,6.9,13,25.7,36.5,25.7,36.5l1.9,4,1.6,3.4,14.5-1.5,1-5.9-.6-.7c-1.5-1.8-5.4-6.5-8.1-8.5-3.3-2.5-9.9-11-9.9-11S238,211,236.4,205.1s-22.2-41-26.8-34.9S225.6,203.1,225.6,203.1Z"/><g class="cls-9"><path d="M267.7,360.8a11.11,11.11,0,0,0-5.1.7c-3.6,1.8-4.3,6.5-6.3,10-2.3,4.1-6.8,6.6-11.4,7.5a23.58,23.58,0,0,1-2.8.4,28.94,28.94,0,0,0,8.8-.4c4.6-.9,9-3.4,11.4-7.5,2-3.5,2.7-8.2,6.3-10a7.75,7.75,0,0,1,3-.7Z"/><path d="M303.3,284.1c0-8,5.2-14.8,9.4-21.5s7.8-15.2,4.5-22.4c-2.9-6.1-20.2-14.4-30.3-12.8,9.8,1.3,21.9,7.7,24.3,12.8,3.4,7.2-.2,15.7-4.5,22.4s-9.5,13.6-9.4,21.5c0,10.3-.7,18-3.5,27.9-.8,2.9,7,7.2,5.8,9.9-4.1,9-2.2,19.4-2.8,29.2a11.82,11.82,0,0,1-1.4,5.5c-2,3.3-6.1,4.1-10.1,4.3h3.5c4.7,0,10.2-.4,12.6-4.3a11.82,11.82,0,0,0,1.4-5.5c.6-9.8-1.2-20.2,2.8-29.2,1.2-2.7-6.6-7-5.8-9.9C302.6,302.1,303.3,294.3,303.3,284.1Z"/></g><path class="cls-6" d="M260.1,256.6l1.6,3.4,14.5-1.5,1-5.9-.6-.7C275.2,252.7,263.6,258.3,260.1,256.6Z"/><path class="cls-6" d="M313.8,294.9s-3.6-5.6-5.6-4.1-2.8-4.6-4-3.6-4.6,3.9-6-.1c-1.1-3.2-13.2-23.1-18.1-31.2-1.3-2.1-2-3.4-2-3.4s-13.8,6.9-17.1,4.6v4.8l2.8.3,15,28s4.7,7.5,4.4,10.1,6,14.1,7.1,14.9,12,13.5,12,13.5,5.6,27.5.8,35.2-13.2,13.2-13.2,13.2-2.5,7.4-2.2,8.2-2.9,4.1-1.4,5.1,3.6,8.2,3.6,8.2,7.1-11.5,11-13.2,8.8-25.2,8.8-25.2,1.4-13.8,1.5-22.7S310.7,294.9,313.8,294.9Z"/><path class="cls-13" d="M313,294.9s-3.6-5.6-5.6-4.1-2.8-4.6-4-3.6-4.6,3.9-6-.1c-1.1-3.2-13.2-23.1-18.1-31.2l-2-3.4s-13.8,6.9-17.1,4.6v4.8l2.8.3,15,28s4.7,7.5,4.4,10.1,6,14.1,7.1,14.9,12,13.5,12,13.5,5.6,27.5.8,35.2a49.72,49.72,0,0,1-9.2,10.2,17.76,17.76,0,0,0-6,9.6,4.4,4.4,0,0,0-.2,1.6c.4.8-2.9,4.1-1.4,5.1s3.6,8.2,3.6,8.2,7.1-11.5,11-13.2,8.8-25.2,8.8-25.2,1.4-13.8,1.5-22.7S310,294.9,313,294.9Z"/><path class="cls-6" d="M278.1,410.9s10.7,2,15,5.1-16.3-4.8-16.3-4.8Z"/><path class="cls-6" d="M303.8,438s11.2,9.3,9.2,17.7-7.2,29.6-7.2,29.6Z"/><path class="cls-6" d="M206.1,420.1s-15.7,1.7-14.7,3.8,14.7-1.9,14.7-1.9Z"/><path class="cls-6" d="M327,497.5s1,1.3-4.8,0-1.5-5.2-1.5-5.2Z"/><path class="cls-6" d="M325,515.1s-8,1.3-12.3,0S325,515.1,325,515.1Z"/><path class="cls-6" d="M308.5,583.9s-1.4-1.5-8.4,1.3-9.8,2.9-11.9,2S308.5,583.9,308.5,583.9Z"/><path class="cls-6" d="M316.3,417.9l-9.9,13.8C306.4,431.8,311.7,419.7,316.3,417.9Z"/><path class="cls-6" d="M297,290.8s-.4,4.6-6.8,6.4-7.6,3.2-7.6,3.2"/><path class="cls-6" d="M280.3,257.5s-8.5,6-17.3,4.7"/><path class="cls-6" d="M286.8,386s2.5,1.5,8.4-5.2"/><path class="cls-6" d="M348.4,314.1c.2-1.2-.6-2.4-1.4-3.4l-1.7-2a5.73,5.73,0,0,0-1.1-1.1c-1-.8-2.3-1-3.3-1.7"/><text class="cls-17" transform="translate(526.78 582.27)">WINNER</text></g></g></svg>