<?xml version="1.0" encoding="utf-8"?>
<!-- Generator: Adobe Illustrator 22.0.1, SVG Export Plug-In . SVG Version: 6.00 Build 0)  -->
<svg version="1.1" id="fafd2220-3b39-4538-bdd8-5627e33a2e32"
	 xmlns="http://www.w3.org/2000/svg" xmlns:xlink="http://www.w3.org/1999/xlink" x="0px" y="0px" viewBox="0 0 1097.1 811.8"
	 style="enable-background:new 0 0 1097.1 811.8;" xml:space="preserve">
<style type="text/css">
	.st0{fill:#29335C;enable-background:new    ;}
	.st1{fill:url(#SVGID_1_);}
	.st2{fill:#FDC2CC;}
	.st3{opacity:3.000000e-02;enable-background:new    ;}
	.st4{opacity:0.1;enable-background:new    ;}
	.st5{fill:#DB2B39;}
	.st6{opacity:0.15;fill:#FFFFFF;enable-background:new    ;}
	.st7{fill:#865A61;}
</style>
<title>forgot password</title>
<path class="st0" d="M11.8,430C29.2,504.2,66,568.3,124,599.4c120.7,64.6,392.9,31.3,596.1-7c102.6-19.3,195.8-72.5,264.5-151.2
	L11.8,430z"/>
<path class="st0" d="M1077.2,80.7H965.7c-5.3,0-9.6-4.3-9.6-9.6s4.3-9.6,9.6-9.6H985c-5.3,0-9.6-4.3-9.6-9.6s4.3-9.6,9.6-9.6h-13.8
	c-5.3,0-9.6-4.3-9.6-9.6s4.3-9.6,9.6-9.6h58.2c-12.9-6-28-10.3-45.4-12.5c-158.6-20.4-215.3-6.9-235.3,7
	c-24.7,17.1-52.2,29.7-81.5,35.7c-97.9,20.2-280.9,44.5-446.8-7.8c-82.5-26-143.8,17.9-180.5,91.3h1056.6
	c-1.4-21.3-5.5-41-13.1-58.2C1081.7,79.9,1079.5,80.7,1077.2,80.7z"/>
<path class="st0" d="M2.4,275.1c-4.3,43.2-2.8,86.7,4.3,129.5l978.7,35.8c27.2-31.3,50.1-66.2,68-103.7L2.4,275.1z M389.5,367.5
	h-19.3c5.3,0,9.6,4.3,9.6,9.6c0,5.3-4.3,9.6-9.6,9.6H258.7c-5.3,0-9.6-4.3-9.6-9.6c0-5.3,4.3-9.6,9.6-9.6H278
	c-5.3,0-9.6-4.3-9.6-9.6c0-5.3,4.3-9.6,9.6-9.6l0,0h-13.8c-5.3,0-9.6-4.3-9.6-9.6c0-5.3,4.3-9.6,9.6-9.6l0,0h111.5
	c5.3,0,9.6,4.3,9.6,9.6c0,5.3-4.3,9.6-9.6,9.6h13.8c5.3,0,9.6,4.3,9.6,9.6C399.1,363.1,394.8,367.5,389.5,367.5L389.5,367.5z"/>
<path class="st0" d="M1096.6,137.3l-1068.5,26c-13,33.4-21.6,71.2-25.6,110.3h1075.3c7-23,12.2-46.5,15.5-70.3
	C1096.6,180.3,1097.9,158,1096.6,137.3z M219.5,222.4h-19.3c5.3,0,9.6,4.3,9.6,9.6c0,5.3-4.3,9.6-9.6,9.6H88.7
	c-5.3,0-9.6-4.3-9.6-9.6c0-5.3,4.3-9.6,9.6-9.6H108c-5.3,0-9.6-4.3-9.6-9.6s4.3-9.6,9.6-9.6H94.2c-5.3,0-9.6-4.3-9.6-9.6
	c0-5.3,4.3-9.6,9.6-9.6h111.5c5.3,0,9.6,4.3,9.6,9.6c0,5.3-4.3,9.6-9.6,9.6h13.8c5.3,0,9.6,4.3,9.6,9.6S224.8,222.4,219.5,222.4z"/>
<linearGradient id="SVGID_1_" gradientUnits="userSpaceOnUse" x1="593.1403" y1="-44.0303" x2="593.1403" y2="743.9595" gradientTransform="matrix(1 0 0 -1 -51.45 767.7897)">
	<stop  offset="0" style="stop-color:#808080;stop-opacity:0.25"/>
	<stop  offset="0.54" style="stop-color:#808080;stop-opacity:0.12"/>
	<stop  offset="1" style="stop-color:#808080;stop-opacity:0.1"/>
</linearGradient>
<path class="st1" d="M938.7,811.3c0,0-44.6-244.4-129.5-284.1c-72-33.6-149.9-56.3-172-62.5c-3.3-5.3-7.1-10.3-11.4-14.9
	c-30.3-31.6-48.4-31-51.4-30.6c-1.4-6.3-2.4-12.6-3-19c-0.1-1-0.2-1.9-0.3-2.9l0.3-0.1c-0.2-1.9-0.3-3.8-0.5-5.9
	c12.4-6.6,23.7-14.9,33.8-24.6c0.1,0.4,0.2,0.9,0.4,1.3c21.8-18.4,43.2-37.4,64.1-56.8c6-5.6,12.3-11.7,14.3-19.6
	c0.7-2.7,0.9-5.5,0.8-8.3c0.3-6-1.2-12.1-1.4-18.2c0-1,0.1-1.9,0.2-2.9c1.4-10,8.3-18.1,14-26.5c14.2-21.1,21.6-46,21.2-71.5
	c0.2-12.2-1.5-24.3-5-36c-4.4-14.8-13.7-30.4-29-33.6c-5.9-1.2-12.1-0.5-18.2-0.9c-25.1-1.6-43.9-22-63.9-36.9
	c-24.4-18.2-53.3-29.4-83.6-32.4c-9.5-1-19.2-1.1-28.2,1.9c-20.2,6.7-32.5,27.5-51.9,36c-14.4,6.3-31,5.3-46,10.1
	c-22.3,7.1-41.3,30-41.8,53.5c0,0.9,0,1.7,0,2.6c0,0.1,0,0.3,0,0.4c-0.2,11.9,4,24,4.3,36.2c0,1.1,0,2.2,0,3.3
	c-0.1,13.1-1.7,26.3-6.5,38.7c-2.6,6.7-5.9,14.3-5.4,21c-0.3,4.1,0.5,7.9,3.3,11l4.8-4.3c-1.6,8.8-2.4,17.7-2.4,26.6
	c0,44.9,20.4,85.2,52.7,112.3c0.2,3,0.4,6.2,0.5,9.6c0.8,14.8,1.4,33.4,1.2,53.7l-47.2,43.3l-121.2,55c0,0-110.9,23.4-87,179.2
	l11.4,96.7h101.2l-0.2,0.5h150.3l0.1-0.5h357.5l-0.1,0.5h14v-0.5L938.7,811.3z M575.2,421.8c3.1,6.3,5.5,13,7.2,19.8
	c-3.5-6.6-6.2-13.6-7.8-20.9l0.2,0.3L575.2,421.8z M403.4,441.8c0,1.9,0,3.8-0.1,5.8l-0.2,0.3C403.1,445.8,403.2,443.8,403.4,441.8
	L403.4,441.8z"/>
<path class="st2" d="M614.8,466.3l-20,191l-107,34c0,0-139-26-103-101c25.6-53.3,24.9-148.7,22.4-199.3c-1-20.5-2.4-33.7-2.4-33.7
	s182-159,167-16c-2.9,27.7-3.1,49.3-1.5,66.3C577.1,478,614.8,466.3,614.8,466.3z"/>
<path class="st3" d="M614.8,466.3l-20,191l-107,34c0,0-139-26-103-101c25.6-53.3,24.9-148.7,22.4-199.3c-1-20.5-2.4-33.7-2.4-33.7
	s182-159,167-16c-2.9,27.7-3.1,49.3-1.5,66.3C577.1,478,614.8,466.3,614.8,466.3z"/>
<path class="st4" d="M571.8,338.3c-2.9,27.7-3.1,49.3-1.5,66.3c-52.6,28.7-117.4,22.1-163.2-16.5c-1-20.5-2.4-33.7-2.4-33.7
	S586.8,195.3,571.8,338.3z"/>
<circle class="st2" cx="500.8" cy="271.3" r="145"/>
<circle class="st3" cx="500.8" cy="271.3" r="145"/>
<path class="st5" d="M924.8,811.3h-752l-11-95c-23-153,84-176,84-176l117-54l46.5-43.5c-15,57,98.5,175.5,98.5,175.5l0,0
	c0.7-0.7,1.4-1.4,2.1-2.2c3.1-3.3,10.4-11.7,27.5-32.4c6.1-7.4,13.5-16.4,22.4-27.4c42.8-52.6,20.8-114.8,14.3-127.6l-0.4-0.8
	c-0.2-0.5-0.4-0.8-0.6-1.1l0,0c0-0.1-0.1-0.2-0.2-0.3c0-0.1-0.1-0.1-0.1-0.2l55,43c0,0,2.1,0.6,6,1.7c21.4,6,96.6,28.3,166,61.3
	C881.8,571.3,924.8,811.3,924.8,811.3z"/>
<path class="st5" d="M668.8,582.3c-9-9-70-20-70-20c2,24-72,61-72,61l5.5,188h-35.5l-6-169l17-24l0,0l2.1-2.2
	c9.9-10.2,19-21,27.5-32.4c6.1-7.4,13.5-16.4,22.4-27.4c42.8-52.6,20.8-114.8,14.3-127.6l-0.4-0.8c-0.2-0.5-0.4-0.8-0.6-1.1l0,0
	c0-0.1-0.1-0.2-0.2-0.3c0-0.1-0.1-0.1-0.1-0.2l0,0c0,0,18-4,50,30c4.1,4.5,7.8,9.4,11,14.7C659.8,512.8,676.7,590.2,668.8,582.3z"/>
<path class="st4" d="M669.8,582.3c-9-9-70-20-70-20c2,24-72,61-72,61l5.5,188h-35.5l-6-169l17-24l0,0l2.1-2.2
	c9.9-10.2,19-21,27.5-32.4c6.1-7.4,13.5-16.4,22.4-27.4c42.8-52.6,20.8-114.8,14.3-127.6l-0.4-0.8c-0.2-0.5-0.4-0.8-0.6-1.1l0,0
	c0-0.1-0.1-0.2-0.2-0.3c0-0.1-0.1-0.1-0.1-0.2l0,0c0,0,18-4,50,30c4.1,4.5,7.8,9.4,11,14.7C660.8,512.8,677.7,590.2,669.8,582.3z"/>
<path class="st4" d="M261.8,659.3c0,0,47,96,49.5,152.5"/>
<polygon class="st4" points="773.8,714.3 760.3,811.8 773.8,811.8 "/>
<path class="st4" d="M272.3,811.8l74.5-169.5c0,0,21-40,26-80s32-103,32-103s67-85,98-73s-27,57-27,57s85,33,27,131s-59,80-59,80
	l-28.5,157.5H272.3z"/>
<path class="st2" d="M270.3,811.8l74.5-169.5c0,0,21-40,26-80c3.2-25.4,15.2-60.2,23.6-82.1c5.5-14.3,13.5-27.6,23.7-39
	c21.7-24.2,61-63.3,82.7-54.9c31,12-27,57-27,57s85,33,27,131s-59,80-59,80l-28.5,157.5L270.3,811.8z"/>
<circle class="st6" cx="545.3" cy="189.8" r="3"/>
<circle class="st6" cx="531.3" cy="195.8" r="3"/>
<path class="st4" d="M397.8,88.6c14.5-4.7,30.5-3.7,44.4-9.9c18.8-8.4,30.6-28.8,50.1-35.4c8.7-2.9,18.1-2.8,27.2-1.9
	c29.3,3,57.2,14.1,80.7,31.9c19.3,14.7,37.4,34.7,61.6,36.3c5.8,0.4,11.8-0.4,17.5,0.8c14.8,3.2,23.7,18.5,28,33
	c10,34.8,4.3,72.3-15.7,102.6c-5.5,8.2-12.2,16.2-13.5,26c-1.3,9.6,2.8,19.5,0.4,28.9c-2,7.8-8,13.8-13.8,19.3
	c-20.2,19.1-40.8,37.7-61.8,55.8c-10.9-34.8,5.1-72.2,2.6-108.5c-1-14.2-6-29.6-18.5-36.3c-11.7-6.2-26.6-3-38.5-9
	c-13.2-6.6-18.6-22.4-28.6-33.3c-17-18.6-46.5-21-70.3-12.6s-43.2,25.7-62,42.5l-34.2,30.6c-6.7-7.5-1.6-19.1,2-28.5
	c5.4-14.1,6.6-29.3,6.2-44.2c-0.3-12-4.4-23.9-4.2-35.5C358,118.1,376.2,95.5,397.8,88.6z"/>
<path class="st7" d="M397.8,85.6c14.5-4.7,30.5-3.7,44.4-9.9c18.8-8.4,30.6-28.8,50.1-35.4c8.7-2.9,18.1-2.8,27.2-1.9
	c29.3,3,57.2,14.1,80.7,31.9c19.3,14.7,37.4,34.7,61.6,36.3c5.8,0.4,11.8-0.4,17.5,0.8c14.8,3.2,23.7,18.5,28,33
	c10,34.8,4.3,72.3-15.7,102.6c-5.5,8.2-12.2,16.2-13.5,26c-1.3,9.6,2.8,19.5,0.4,28.9c-2,7.8-8,13.8-13.8,19.3
	c-20.2,19.1-40.8,37.7-61.8,55.8c-10.9-34.8,5.1-72.2,2.6-108.5c-1-14.2-6-29.6-18.5-36.3c-11.7-6.2-26.6-3-38.5-9
	c-13.2-6.6-18.6-22.4-28.6-33.3c-17-18.6-46.5-21-70.3-12.6s-43.2,25.7-62,42.5l-34.2,30.6c-6.7-7.5-1.6-19.1,2-28.5
	c5.4-14.1,6.6-29.3,6.2-44.2c-0.3-12-4.4-23.9-4.2-35.5C358,115.1,376.2,92.5,397.8,85.6z"/>
</svg>
