<?xml version="1.0" encoding="utf-8"?>
<!-- Generator: Adobe Illustrator 22.0.1, SVG Export Plug-In . SVG Version: 6.00 Build 0)  -->
<svg version="1.1" id="_x36_24700f1-3089-4690-8fa4-a57e557ff714"
	 xmlns="http://www.w3.org/2000/svg" xmlns:xlink="http://www.w3.org/1999/xlink" x="0px" y="0px" viewBox="0 0 1287.4 652.5"
	 style="enable-background:new 0 0 1287.4 652.5;" xml:space="preserve">
<style type="text/css">
	.st0{fill:#29335C;enable-background:new    ;}
	.st1{fill:url(#SVGID_1_);}
	.st2{fill:#BE6F72;}
	.st3{fill:#3F3D56;}
	.st4{fill:#65617D;}
	.st5{opacity:0.1;enable-background:new    ;}
	.st6{fill:#DB2B39;}
	.st7{fill:#E3E8F4;}
	.st8{opacity:0.1;}
	.st9{fill:#F3A712;}
	.st10{opacity:0.1;fill:#FFFFFF;enable-background:new    ;}
	.st11{fill:#29335C;}
	.st12{fill:url(#SVGID_2_);}
	.st13{fill:#008148;}
	.st14{fill:#FBBEBE;}
	.st15{fill:#444053;}
	.st16{fill:#E8E8F0;}
	.st17{fill:#6C63FF;}
	.st18{fill:#FFFFFF;}
	.st19{font-family:'Rubik-Medium';}
	.st20{font-size:18px;}
</style>
<title>winners</title>
<path class="st0" d="M1146,430.9c0.2-58.6-28.2-113.6-76-147.4c0.7-6.2,1-12.5,1-18.8c0-99.1-79.3-179.5-177-179.5
	c-30.1,0-59.7,7.7-85.9,22.5c-69.2-45.5-159.5-73.1-258.3-73.1c-160.7,0-299.1,72.9-360.5,177.6c-3.4-0.2-6.8-0.3-10.3-0.3
	c-97.7,0-177,80.4-177,179.5c-0.1,35,10,69.3,29.1,98.7l0,0c0,89.2,84.2,161.5,188,161.5h753.1c81.5,0,147.6-56.8,147.6-126.8l0,0
	C1137,496.5,1146.1,464,1146,430.9z"/>
<linearGradient id="SVGID_1_" gradientUnits="userSpaceOnUse" x1="836.5171" y1="23.2712" x2="836.5171" y2="425.6328" gradientTransform="matrix(1 0 0 -1 -28 528.1498)">
	<stop  offset="0" style="stop-color:#808080;stop-opacity:0.25"/>
	<stop  offset="0.54" style="stop-color:#808080;stop-opacity:0.12"/>
	<stop  offset="1" style="stop-color:#808080;stop-opacity:0.1"/>
</linearGradient>
<path class="st1" d="M934.3,320c-1.4-1.1-3.1-1.8-4.9-2.1c-1.9-0.4-3.8-0.7-5.7-1l-24.6-3.5c-2.5-0.5-5-0.6-7.5-0.4
	c-2.6,0.2-4.9,1.4-6.6,3.4c-0.7,0.9-1.1,2-1.1,3.2c0.1,1.2,0.5,2.3,1.1,3.3c0.2,0.5,0.4,1,0.6,1.5c0.2,1.1,0.5,2.2,0.9,3.4
	c0.1,0.2,0.3,0.5,0.4,0.7c0,0.1,0,0.1,0,0.2c-0.3,1.4,0.6,2.8,0.2,4.1c-0.3,1.1-1.5,1.8-2.2,2.8c-1,1.4-1,3.2-0.1,4.6
	c0.8,1.2,2.1,2,2.5,3.3c0.5,1.8-0.9,3.4-2.1,4.8c-2.3,2.5-4.4,5.1-6.3,7.9c-0.5,0.7-0.9,1.5-1,2.4c-0.1,1.7,1.6,3.3,1.3,5
	c-0.2,1.4-1.6,2.2-2.7,3c-4.2,2.8-7.7,7.3-8,12.4c-1.1-8.1-4.4-15.7-9.7-22c-1.4-1.7-3-3.5-3.6-5.6c-0.2-0.9-0.3-1.8-0.6-2.6
	c-1-2.6-4.2-3.8-5.6-6.2c-1-1.7-1-3.9-2.2-5.4s-3.2-1.9-4.3-3.3c-0.5-1-1-2-1.4-3.1c-0.4-0.9-1.1-1.6-1.8-2.2
	c-0.1-0.1-0.3-0.2-0.5-0.3c0.3-0.3,0.5-0.7,0.5-1.2c0-1.2-1.2-1.9-2.2-2.5c-1.3-0.7-2.6-1.5-3.8-2.4c1.4-0.6,2.5-1.6,3.4-2.8
	c1.1-1.8,1.6-3.9,1.3-6c-0.1-1.7-0.7-3.3-1.8-4.6c-0.6-0.7-1.4-1.1-2.1-1.8c-1.7-1.7-2.3-4.1-3-6.4c-0.9-3-2.4-6.1-5.2-7.7
	c-1.3-0.8-2.9-1.1-4.2-1.9s-2.4-2.3-1.9-3.8c0.3-1,1.2-1.7,1.9-2.5c1.6-2.3,1-5.4-1.3-7c-0.7-0.5-1.7-0.9-1.8-1.7
	c-1.2-0.3-2.1-1.3-2.3-2.5c-0.2-1.2-0.2-2.4,0-3.6c0.3-1.9,0.5-3.7,0.8-5.6c0.9,0.4,1.9,0.4,2.8,0c0.9,1.4,1.9,2.7,3,3.9
	c3,3.6,5.4,7.7,7,12.1c0.6,1.6,1.2,3.4,2.6,4.2c0.5,0.3,1.1,0.4,1.6,0.8c0.6,0.4,1.1,1,1.6,1.6c1.2,1.6,2.4,3.2,3.6,4.8l0.1,0.2
	c0,0.1,0.1,0.3,0.2,0.4c0.2,0.2,0.5,0.4,0.9,0.4c3.7,0.9,7.8,1.6,11-0.4c2.9-1.8,4.1-5.4,6.6-7.7c1.7-1.7,4.2-3,4.7-5.4
	c-0.6-0.2-1.2-0.4-1.7-0.6c0.5-0.5,1-1.1,1.7-1.7c1-1,1.9-2,2.7-3.2c0.8-1.4,1.5-2.9,2-4.5c1.9-5.5,3.9-11,5.8-16.5
	c0.9-2.6,1.8-5.2,3-7.8c1.2-2.7,2.6-5.4,3.9-8.1c3.4-7,6-14.3,7.8-21.9c0.3-1,0.4-2.1,0.3-3.2c-0.3-1.7-1.6-3.1-2.8-4.3
	c-1.3-1.4-2.7-2.5-4.3-3.5c-1.6-1-3.5-1.3-5.3-0.9c-2.6,0.8-4.2,3.4-4.8,6s-0.4,5.3-0.6,8c-0.4,3.9-1.7,7.6-2,11.4
	c-0.2,2.2,0,4.5-0.3,6.7c-0.5,2.9-1.5,5.7-3,8.3c-3.2,6.1-7.6,11.5-12.9,15.9c-0.6,0.5-1.2,1-1.8,1.5c0-0.4,0.1-0.9,0.1-1.3
	c-0.4,0.1-0.9,0.3-1.3,0.5c0.1-0.5,0-1-0.2-1.5c-0.8-2.4-4.4-3-5-5.4c-0.1-0.6-0.2-1.2-0.2-1.8c-0.2-2.1-1.7-3.9-2.2-6
	c-0.5-1.9-0.1-4-1-5.8c-0.8-1.1-1.7-2.1-2.7-3c-1.2-1.4-2.1-3-2.5-4.8c-0.1-0.5-0.2-1-0.4-1.5c0.2-1.1,0-2.2-0.4-3.3
	c-0.9-2.3-3.3-3.7-4.1-6c-0.7-1.8-0.4-4-1.6-5.4c-0.7-0.7-1.5-1.1-2.4-1.4c-4.6-1.8-9.4-2.9-14.3-3.4c-2.7-0.2-5.8-0.4-7.7-2.3
	c-2.3-2.2-2.4-6.3-5.1-8c-2.4-1.5-5.7-0.4-7.5,1.8c-0.3,0.3-0.5,0.7-0.8,1c-0.3-1.3-0.4-2.7-0.2-4.1c0-0.3,0.1-0.7,0.1-1
	c4.5-1.5,8.4-4.5,10.8-8.6c0,0,0,0,0,0.1l0.1,0.3c0.3,0.7,0.8,1.4,1.4,1.5l0,0c0.5,0,0.9-0.2,1.2-0.5c0.6-0.4,1.2-0.9,1.7-1.4
	c0.3-0.3,0.5-0.6,0.7-0.9c0.5-0.6,0.9-1.3,1.2-2c0.5-1.1,0.8-2.2,1-3.4c0.2-1.2,0.2-2.4,0.4-3.5c0.2-0.9,0.4-1.8,0.7-2.6
	c0.1-0.3,0.2-0.6,0.3-0.9s0.2-0.7,0.3-1c0.6-2.1,1-4.2,1-6.3c0-0.4,0-0.7,0-1.1c-0.1-2.8-1.3-5.5-3.4-7.5c-1.7-1.4-4-2-5.3-3.9
	c-0.8-1.3-1-2.9-1.5-4.4c-1.1-3.7-4.1-6.4-7.9-7.1c-2.2-0.2-4.4,0.4-6.2,1.7l0,0l-0.1,0.1l0,0c-1,0.8-1.8,1.7-2.5,2.8
	c-1.3-0.4-2.5-1.1-3.5-2c-1-0.9-1.8-2.1-2.8-3c-1.9-1.8-4.7-2.3-7.1-1.5c-2.5,1-4.4,3.2-5.1,5.8c-0.5,2.1-0.5,4.4-1.6,6.1
	c-0.9,1.3-2.3,2-3.4,3.2c-0.6,0.8-1.1,1.7-1.3,2.7l0,0c-0.1,0.5-0.2,1.1-0.2,1.7l0,0c0,0.2,0,0.5,0.1,0.7c0,0,0,0.1,0,0.1
	c0,0.3,0.1,0.5,0.2,0.8l0,0c0.3,1,0.8,2,1.5,2.7c0.7,0.8,1.5,1.4,2.4,1.7c0.4,0.1,0.8,0.3,1.2,0.4l1.2,0.3l0.4,0.1
	c-2.9,5.5-3.1,12-0.6,17.6c0,0.3-0.1,0.6-0.1,0.8c-0.2,3.9,0,7.9,0.5,11.8c0.1,1.5,0.2,3.3-0.7,4.5c-0.4,0.5-0.9,0.9-1.5,1.3
	c0.5-0.7,1.1-1.4,1.7-2.1c-1.4-1.4-3.6-1.6-5.6-1.5c-3.9,0.3-7.6,1.4-11,3.4c-2.2,1.3-4.5,3-7.1,2.7c-1.5-0.2-3-1-4.5-0.6
	c-0.8,0.3-1.6,0.8-2.3,1.4c-0.5,0.4-1.2,0.6-1.9,0.6c-1.6-1.9-4-3.2-5.9-4.8c-2.1-1.9-4.1-4-5.8-6.3c-3.2-3.9-6.5-7.8-9.7-11.8
	c-2.7-3.3-5.4-6.9-5.9-11.2c0-0.4-0.1-0.8-0.1-1.3c0.1-2,0.3-4,0.8-6c0.1-0.5,0.1-1,0-1.5c-0.3-1-1.5-1.4-2.4-1.6l0,0
	c0.1-0.8,0.2-1.6,0.3-2.3c0.6-8.6,0-17.3,1.8-25.8c0.7-3.2,1.8-6.5,4.2-8.9c3.7-3.7,9.8-4.6,12.6-8.9c2.3-3.6,1.4-8.8-1.5-12
	s-7.5-4.5-11.8-4.4c-1.2,0-2.4,0.3-3.4,0.9c-1,0.9-1.7,1.9-2.1,3.2L701,117c-1.2,2.7-2.3,5.5-3.1,8.4c-1.2,4.4-1.5,9-2.4,13.4
	c0,3.4-2.2,7.6-3.4,10.8c-1.3,3.5-2.8,7-4,10.6c-0.3,0.9-1.3,3.6-2,6c-0.2,0.1-0.5,0.3-0.7,0.5c-0.5,0.7-1,1.4-1.4,2.1
	c-0.9,1.2-2.4,1.8-3.4,3s-1.2,3.3,0.2,3.9c0.3,0.1,0.6,0.2,0.9,0.2c0.2,0,0.4,0,0.5,0.1c1.5,0.4,2.1,2.3,1.9,3.9s-1,3-1.1,4.6
	c-0.3,2.8,1.3,5.3,2.9,7.6c1.6,2.5,3.4,4.9,5.3,7.2c1.4,1.6,3,3,4.4,4.5c5.4,5.6,9.7,12.1,14.6,18.1c1.7,2.3,3.7,4.4,5.9,6.2
	c1.4,1.1,2.9,2.2,4.5,3.1l8.4,5.3c0.9,0.7,2,1.2,3.2,1.5c0.4,0,0.7,0,1.1,0c0,0.2,0.1,0.5,0.2,0.7c0.7,2.6,2.1,5,2.2,7.7
	s-0.1,5.4,0.1,8.1c0.2,2.5,0.7,5,0.9,7.5c0.3,4.7-0.9,9.4-2,14c-1.7,6.8-2.7,13.7-6,19.8c-0.9,1.7-2,3.4-2,5.3c0,0.2,0,0.5,0.1,0.7
	l0,0l-1.5,0.9c-0.4,0.2-0.9,0.5-1.3,0.8c-1.9,1.2-3.9,2.6-4.7,4.8c-0.6,1.7-0.3,3.7-1.1,5.4c0,0.1-0.1,0.1-0.1,0.2
	c-0.8,1.6-2.4,2.7-2.8,4.4l0,0c-0.3,1.3,0.2,2.7,0,4c0,0,0,0,0,0c-0.2,0.7-0.4,1.3-0.5,2c0,0.2,0,0.4,0.1,0.7c0.2,0.8,0.6,1.4,1.2,2
	c0.4,0.3,0.8,0.7,1.2,0.9c0.4,0.3,0.9,0.5,1.3,0.8l0.3,0.1c0.4,0.2,0.8,0.4,1.2,0.6l0.3,0.1c0.5,0.2,0.9,0.4,1.4,0.5l0.3,0.1
	c0.4,0.1,0.7,0.2,1.1,0.3l0.2,0.1l0.2,0l1,0.2l0.4,0.1c0.4,0.1,0.9,0.1,1.3,0.2h0.4c0.3,0,0.7,0,1,0.1h0.5c0.3,0,0.7,0,1,0h0.4
	c0.5,0,0.9-0.1,1.4-0.1h0.2c0.4-0.1,0.8-0.1,1.3-0.2l0.3-0.1c0.4-0.1,0.8-0.2,1.2-0.3l0.2-0.1c0.5-0.1,0.9-0.3,1.4-0.5
	c1.6-0.7,3.1-1.4,4.6-2.3c1-0.5,2-1.1,3-1.6c0.7-0.4,1.5-0.7,2.3-1c1.9-0.8,3.9-1.2,6-1c1,0.1,2,0.3,3,0.6c0,0.1,0,0.2,0,0.3
	c0.8,4.8,1.6,9.6,2.4,14.4c1.3-0.9,2.7-1.8,4.1-2.5c-0.3,0.7-0.4,1.5-0.5,2.2c-0.1,0.6-0.1,1.2,0,1.8c0.1,1,0.3,2-0.3,2.8
	c-0.3,0.5-1,0.7-1.2,1.2c-0.1,0.5-0.2,1.1-0.1,1.6c-0.1,1.3-1.1,2.3-2.4,2.4c0.6,1.7,0,3.5-1.5,4.5c-0.4,0.2-0.8,0.5-1.2,0.8
	c-0.3,0.4-0.6,1-0.7,1.5c-1.3,5-4,9.4-7.8,12.9c-1.4,1.1-2.7,2.4-3.9,3.8c-0.7,1.1-1.3,2.2-1.8,3.5c-2.7,6.5-5.4,13-8.1,19.6
	c-1.5,3.7-3,7.4-3.5,11.3c-1.2,10.8-10.8,19.9-9,30.6c0.4,2.7,1.4,5.2,3.1,7.3c2,2.4,5,3.8,8,4.9c7.7,3,15.8,4.6,23.9,6.3l12.7,2.6
	c2.5,0.6,5,1,7.6,1.2c3.1,0.2,6.2-0.1,9.2,0.7c1.8,0.5,3.6,1.4,5.5,1.5c1.6,0.1,3.7-0.3,4.6,1.1s0.2,3.1,1.1,4.3
	c1.5,1.9,5.1,0,6.7,1.8c0.4,0.7,0.8,1.4,1,2.2c0.2,0.5,0.6,0.9,1,1.3c0.1,0.6,0.1,1.1,0.1,1.7c-0.2,2.3-0.7,4.6-1.4,6.8
	c-1.2,4.1-2.4,8.1-3.6,12.2c-0.5,1.4-0.8,2.9-1,4.4c-0.1,0.7-0.1,1.5,0,2.2c0.2,2.2,1.5,4.5,3.6,5.2c1.6,0.4,3.4,0.2,4.9-0.6
	c1.4-0.7,2.8-1.7,4-2.7c2.2-1.7,4.2-3.7,5.8-5.9c5-7.5,3.4-17.6,6.9-25.9c2.3-5.5,6.9-10,8.4-15.8c0.4-1.1,0.4-2.3,0.1-3.4
	c-0.6-2-2.8-3.1-4.8-3.9h-0.1c-1.6-0.6-3.3-1.1-5-1.4c-0.4-0.1-0.8-0.2-1.3-0.2c-1-0.8-1.7-1.8-2.2-2.9c-0.1-0.6-0.2-1.2-0.5-1.7
	c-0.3-0.5-0.9-0.8-1.4-0.8c-1-0.1-2.3,0.3-3.4,0.2c-2.2-0.2-3.7-2.3-5.7-3.4s-4.2-0.8-6.3-0.6c-0.8,0.1-1.5,0.1-2.3-0.1
	c-0.9-0.4-1.7-1-2.4-1.7c-2.5-1.9-5.8-2.6-8.8-1.8c-1,0.4-2,0.6-3,0.7c-2-0.1-3.3-1.8-4.8-3.2c-3.9-3.6-9.5-4.6-14.3-6.9
	c-0.7-0.3-1.3-0.8-1.7-1.5c-0.5-1.4,0.7-2.7,1.8-3.7l8.2-6.8c9-7.5,20.2-13.1,24.4-24.1c0.4-1.5,1.1-2.9,2-4.1
	c0.3-0.4,0.7-0.7,1.1-1c1.8-1.2,4-1.6,6.2-1.2c2.6,0.6,5.1,1.7,7.2,3.2c3.6,2.2,7.1,4.5,10.5,7c3.4,2.4,6.5,5,9.6,7.8
	c5.2,5,9.6,10.9,14.5,16.3s10.5,10.4,17.3,13s15,2.5,20.8-1.9c6.7-5,8.9-13.9,10.6-22.1c3.8-3.6,4.9-9.1,6.7-14
	c1.2-3.1,2.6-6,3.9-9.1c1.5-3.6,2.6-7.4,3.8-11.1c1.3-3.7,2.2-7.6,2.7-11.6c0.5-6.2-1.2-12.9,0.6-18.7c2.3-0.5,4.4-1.8,6.7-2.6
	c3.4-1.1,7-0.9,10.6-0.9h0.2c1.2,0.1,2.5-0.2,3.5-0.8c1.2-1,1.4-2.7,1.5-4.3C937.4,326.7,937.2,322.4,934.3,320z M789.4,149.4
	c-0.8,0.2-1.7,0.3-2.5,0.2L789.4,149.4z"/>
<path class="st2" d="M793.3,212.6c-1.2,1-2.6,1.8-4.2,2.2l-7.1,2.5c-3.8,1.4-7.9,2.8-11.9,2.3c-2.3-0.3-12-1.7-13.5-3.5
	c-2.2-2.7,5.6-6.8,8.3-9.1c0.6-0.4,1.2-0.9,1.7-1.5c1-1.2,0.9-2.9,0.7-4.5c-0.5-3.9-0.7-7.8-0.5-11.8c0.1-0.9,0.2-1.9,0.4-2.8
	c1-4.6,5.3-2.9,8.7-1.7c4.1,1.3,8,3,11.8,5.1c1.1,0.6,2.1,1.4,2.9,2.5c1.5,2.2,0.9,5.2,0.7,8c-0.2,2.2-0.2,4.3,1.2,5.9
	c0.7,0.6,1.3,1.3,1.9,2C794.9,209.8,794.6,211.5,793.3,212.6z"/>
<path class="st2" d="M695.4,140.6c1-4.4,1.2-9,2.4-13.4c0.8-2.9,1.9-5.6,3.1-8.4l4.4-10.3c0.4-1.2,1.1-2.3,2.1-3.1
	c1-0.6,2.2-1,3.4-0.9c4.3-0.2,8.8,1.2,11.8,4.4s3.9,8.3,1.5,11.9c-2.8,4.4-8.9,5.2-12.6,8.9c-2.3,2.4-3.5,5.6-4.2,8.9
	c-1.8,8.4-1.2,17.1-1.8,25.7c-0.2,2.7-0.7,5.7-3,7.1c-1.4,0.7-2.9,1-4.5,0.9l-6.6,0.1c-1.1,0-5.1,0.7-5.8-0.1
	c-1.3-1.5,1.6-8.7,2.2-10.3c1.2-3.6,2.6-7,4-10.6C693.2,148.2,695.4,143.9,695.4,140.6z"/>
<path class="st3" d="M830.8,454.7c-1.5,5.8-6,10.3-8.4,15.8c-3.5,8.2-1.9,18.3-6.9,25.8c-1.6,2.3-3.6,4.3-5.8,6
	c-1.2,1-2.6,1.9-4,2.7c-1.5,0.8-3.2,1-4.9,0.6c-2.1-0.7-3.4-3-3.6-5.2c-0.1-0.7-0.1-1.4,0-2.2c0.2-1.5,0.5-3,1-4.4
	c1.2-4,2.4-8.1,3.6-12.2c0.7-2.2,1.2-4.5,1.4-6.8c0.1-2.5-1.5-5.8-0.8-8.2c0.3-1.1,1.5-2,2-2.9c0.8-1.3,1.3-2.7,1.7-4.1
	c0.8-2.8,1.4-5.8,3.1-8.1c1.1-1.4,2.4-2.6,3.9-3.7c1.1-0.9,2.3-1.7,3.7-2.1c1.3-0.2,2.7-0.2,4,0.2c1.7,0.4,3.4,0.8,5,1.4h0.1
	c2,0.7,4.1,1.8,4.8,3.8C831.2,452.4,831.2,453.6,830.8,454.7z"/>
<path class="st3" d="M937.2,331.8c-0.1,1.5-0.2,3.3-1.5,4.2c-1,0.7-2.3,1-3.5,0.8H932c-3.6,0-7.2-0.2-10.6,0.9
	c-2.6,0.9-4.9,2.4-7.6,2.7c-3.7,0.4-7.2-1.6-10.4-3.4c-3.1-1.7-6.2-3.2-9.5-4.5c-2.1-0.9-6.5-1.4-7.5-3.8c-0.3-1.1-0.6-2.2-0.9-3.3
	c-0.2-0.5-0.4-1-0.6-1.5c-0.6-1-1-2.1-1.1-3.3c0-1.2,0.4-2.3,1.1-3.2c1.6-2,4-3.2,6.5-3.4c2.5-0.2,5.1-0.1,7.5,0.4l24.6,3.5
	c1.9,0.3,3.8,0.5,5.7,1c1.8,0.3,3.5,1,4.9,2.1C937.2,323.7,937.4,328,937.2,331.8z"/>
<path class="st4" d="M915.6,338.2c-3,6.3-0.8,13.8-1.4,20.8c-0.5,3.9-1.3,7.8-2.7,11.5c-1.2,3.7-2.3,7.5-3.8,11.1
	c-1.2,3-2.7,6-3.9,9.1c-1.8,4.9-3,10.4-6.7,14c-1.7,8.2-3.9,17.1-10.6,22.1c-5.8,4.3-14,4.5-20.8,1.9s-12.4-7.6-17.3-13
	s-9.3-11.3-14.5-16.3c-3-2.8-6.2-5.4-9.6-7.8c-3.4-2.5-6.9-4.8-10.5-6.9c-2.2-1.5-4.6-2.6-7.2-3.1c-2.1-0.4-4.3,0-6.2,1.2
	c-0.4,0.3-0.8,0.6-1.1,1c-0.9,1.2-1.6,2.6-2,4.1c-4.2,10.9-15.5,16.6-24.5,24l-8.2,6.8c-1.1,0.9-2.4,2.3-1.8,3.6
	c0.4,0.7,1,1.2,1.7,1.5c4.8,2.4,10.4,3.3,14.3,6.9c1.4,1.3,2.8,3.1,4.8,3.2c1-0.1,2-0.3,3-0.7c3.1-0.8,6.3-0.2,8.8,1.8
	c0.7,0.7,1.5,1.2,2.4,1.7c0.7,0.2,1.5,0.2,2.3,0.1c2.1-0.2,4.4-0.3,6.3,0.6s3.5,3.2,5.7,3.3c1.1,0.1,2.4-0.3,3.4-0.2
	c0.6,0,1.1,0.3,1.4,0.8c0.2,0.5,0.4,1.1,0.5,1.7c0.4,1.4,1.8,2.3,2.7,3.4c1.4,1.8,1.6,4.2,1.4,6.5c-0.5,7-3.6,13.6-8.8,18.4
	c-1.5,1.5-3.3,2.5-5.4,3c-2.1,0.4-4.3-0.5-5.3-2.4c-0.2-0.8-0.6-1.5-1-2.2c-1.6-1.8-5.2,0.1-6.7-1.8c-0.9-1.2-0.3-3.1-1.1-4.3
	s-3-1-4.6-1.1c-1.9-0.1-3.7-1-5.5-1.5c-3-0.8-6.1-0.5-9.2-0.7c-2.6-0.2-5.1-0.6-7.6-1.2l-12.7-2.6c-8.1-1.7-16.2-3.3-23.9-6.3
	c-3-1.1-5.9-2.5-8-4.9c-1.7-2.1-2.8-4.6-3.1-7.3c-1.8-10.7,7.8-19.8,9-30.5c0.4-3.9,2-7.6,3.5-11.3c2.7-6.5,5.4-13,8.1-19.5
	c0.4-1.2,1-2.4,1.7-3.5c1.2-1.4,2.4-2.7,3.9-3.8c3.8-3.4,6.5-7.9,7.8-12.8c0.1-0.6,0.3-1.1,0.7-1.5c0.4-0.3,0.7-0.5,1.2-0.8
	c1.5-1,2.1-2.8,1.5-4.5c1.3-0.1,2.3-1.1,2.4-2.4c-0.1-0.5,0-1.1,0.1-1.6c0.2-0.5,0.8-0.8,1.2-1.2c0.6-0.8,0.4-1.8,0.3-2.7
	c-0.1-0.6-0.1-1.2,0-1.8c0.2-2.1,1.2-4.1,2.7-5.6c2.4-2.4,5.8-1.7,9.1-2.3c3.3-0.7,6.5-1.7,9.6-3.1c8.7-3.4,17.8-5.5,27.1-6.3
	c9.3-0.7,18.7,0.8,27.4,4.4c1.3,0.5,2.4,1.2,3.5,2c0.8,0.6,1.4,1.3,1.8,2.2c0.4,1.1,0.8,2.1,1.4,3.1c1.1,1.5,3.1,1.9,4.3,3.3
	s1.3,3.7,2.2,5.4c1.4,2.4,4.6,3.6,5.6,6.2c0.3,0.8,0.3,1.8,0.6,2.6c0.5,2.2,2.2,3.9,3.6,5.6c5.2,6.3,8.6,13.9,9.7,22
	c0.3-5.1,3.7-9.6,8-12.4c1.2-0.8,2.5-1.6,2.7-2.9c0.3-1.7-1.4-3.2-1.3-5c0.1-0.9,0.5-1.7,1-2.3c1.9-2.8,4-5.4,6.3-7.9
	c1.2-1.4,2.6-3,2.1-4.8c-0.4-1.3-1.8-2.1-2.5-3.3c-0.9-1.4-0.9-3.2,0.1-4.6c0.7-1,1.8-1.6,2.2-2.8c0.4-1.3-0.5-2.8-0.2-4.1
	c0.4-1.1,1.1-2,2.1-2.7c1.3-1.2,2.8-2.2,4.5-2.9c2.6-1,5.6-0.6,8.4-0.2c4.7,0.6,9.9,1.6,12.6,5.6C916,331.8,916.9,335.6,915.6,338.2
	z"/>
<path class="st5" d="M937.2,331.8c-0.1,1.5-0.2,3.3-1.5,4.2c-1,0.7-2.3,1-3.5,0.8H932c0.4-2.1,2.9-3.3,3.4-5.4
	c0.2-1.3-0.2-2.6-1.1-3.6c-2.1-2.9-5.6-4.5-9-5.7c-9.7-3.3-20-4.1-30.1-2.2c-2.7,0.4-5.4,1.3-7.9,2.4c-0.8,0.5-1.6,1.1-2.4,1.7
	c-0.6-1-1-2.1-1.1-3.3c0-1.2,0.4-2.3,1.1-3.2c1.6-2,4-3.2,6.5-3.4c2.5-0.2,5.1-0.1,7.5,0.4l24.6,3.5c1.9,0.3,3.8,0.5,5.7,1
	c1.8,0.3,3.5,1,4.9,2.1C937.2,323.7,937.4,328,937.2,331.8z"/>
<path class="st5" d="M830.8,454.7c-1.5,5.8-6,10.3-8.4,15.8c-3.5,8.2-1.9,18.3-6.9,25.8c-1.6,2.3-3.6,4.3-5.8,6
	c-1.2,1-2.6,1.9-4,2.7c-1.5,0.8-3.2,1-4.9,0.6c-2.1-0.7-3.4-3-3.6-5.2c-0.1-0.7-0.1-1.4,0-2.2l0.1,0.2c0.9,2.1,2.3,4.3,4.5,4.7
	c1.7,0.1,3.4-0.5,4.6-1.6c3.3-2.7,5.2-6.6,7-10.4c1.4-2.7,2.6-5.6,3.4-8.6c0.4-1.7,0.6-3.4,1-5.1c1.9-8.3,8.4-15,9.8-23.4
	c0.1-0.6,0.1-1.2,0.1-1.8c-0.2-0.8-0.5-1.5-0.9-2.2c-0.3-0.8-0.6-1.6-0.8-2.4c2,0.7,4.1,1.8,4.8,3.8
	C831.3,452.5,831.2,453.6,830.8,454.7z"/>
<path class="st5" d="M815.7,440.4c-0.9,2.4-2.5,4.5-4.5,6.2c-2.8,2.2-6.2,3.6-9.7,4.2c-1.6,0.4-3.4,0.4-5-0.1
	c-2.2-0.8-3.8-2.8-6.1-3.5c-1.6-0.4-3.4,0-5-0.3c-3-0.4-5.2-2.7-7.6-4.5c-7.3-5.5-16.9-7.2-24.2-12.7c-0.3-0.2-0.6-0.5-0.8-0.8
	c-0.1-0.4-0.2-0.7-0.2-1.1c0-3.3,0.8-6.6,2.2-9.6c1.2-2.1,2.5-4.1,4.1-5.9c6.5-8,13.1-16.1,20.9-22.8c3.3-2.8,6.9-5.5,11-6.8
	c2.3-0.7,6.8-1.4,9.6-0.2c-0.4,0.3-0.8,0.6-1.1,1c-0.9,1.2-1.6,2.6-2,4.1c-4.2,10.9-15.5,16.6-24.5,24l-8.2,6.8
	c-1.1,0.9-2.4,2.3-1.8,3.6c0.4,0.7,1,1.2,1.7,1.5c4.8,2.4,10.4,3.3,14.3,6.9c1.4,1.3,2.8,3.1,4.8,3.2c1-0.1,2-0.3,3-0.7
	c3.1-0.8,6.3-0.2,8.8,1.8c0.7,0.7,1.5,1.2,2.4,1.7c0.7,0.2,1.5,0.2,2.3,0.1c2.1-0.2,4.4-0.3,6.3,0.6s3.5,3.2,5.7,3.3
	C813.4,440.6,814.7,440.3,815.7,440.4z"/>
<path class="st6" d="M723.8,304.7c-1.9,1.2-3.9,2.6-4.7,4.7c-0.6,1.7-0.3,3.7-1.1,5.4s-2.5,2.9-2.9,4.6c-0.3,1.3,0.3,2.7,0,4
	c-0.2,0.7-0.4,1.4-0.5,2.1c-0.1,1.5,1.2,2.7,2.4,3.5c5.4,3.5,12.1,4.3,18.2,2c2.7-1,5.1-2.6,7.6-3.9c2.5-1.4,5.4-2.1,8.2-2
	c1.7,0.2,3.2,0.8,4.9,1c1.7,0.3,3.4-0.2,4.6-1.4c0.5-0.7,0.9-1.5,1-2.4c1.4-5.5,0.8-11.3-0.6-16.8s-3.3-10.8-4.7-16.3
	c-1-4.1-1.8-8.2-3.4-12.1s-4.5-7.4-8.4-8.9c-0.3-0.2-0.7-0.2-1-0.1c-0.3,0.1-0.5,0.3-0.7,0.5c-3.1,3.3-5.5,7.2-6.9,11.5
	c-1.6,4.8-2,9.9-3.4,14.7c-0.6,2-1.4,4.7-3,6.2S725.6,303.5,723.8,304.7z"/>
<path class="st5" d="M791.2,200.4c-9.7,3.1-20.2-1.6-24.4-11c0.1-0.9,0.2-1.9,0.4-2.8c1-4.6,5.3-2.9,8.7-1.7c4.1,1.3,8,3,11.8,5.1
	c1.1,0.6,2.1,1.4,2.9,2.5C792,194.7,791.5,197.6,791.2,200.4z"/>
<circle class="st2" cx="785.2" cy="180.3" r="20"/>
<path class="st5" d="M839.5,329.8c0,1.7-2.2,2.2-3.9,2.1c-6-0.4-11.9-2-17.8-1.5c-7.5,0.7-14.4,4.8-21.9,5.2
	c-2.9,0.1-5.8-0.3-8.7,0.2c-3.7,0.7-7,2.9-10.8,3.3c-3.3,0.3-6.5-1-9.8-0.8c-2.3,0.1-4.5,0.8-6.5,1.9c0.2-2.1,1.2-4.1,2.7-5.6
	c2.4-2.4,5.8-1.7,9.1-2.3c3.3-0.7,6.5-1.7,9.6-3.1c8.7-3.4,17.8-5.5,27.1-6.3c9.3-0.7,18.7,0.7,27.4,4.3c1.3,0.5,2.4,1.2,3.5,2
	C839.4,329.4,839.5,329.6,839.5,329.8z"/>
<path class="st7" d="M775.9,216.9l-8.1-3l-3.4-1.3c-1.4-0.6-2.9-1-4.4-1.2c-3.9-0.3-7.6,2.3-9.7,5.6s-2.9,7.3-3.5,11.2
	c-0.9,5.3-1.7,10.6-2.3,15.9c-0.7,4.8-1,9.7-1,14.5c0.2,12.4,2.8,24.6,5.7,36.6c1.4,5.3,2.5,10.8,3.2,16.2c0.2,2.3,0.3,4.5,0.6,6.8
	c0.3,2.5,0.7,5.1,1.1,7.6l2.4,14.4c3-2.1,6.4-4,10.1-4.1c3.3-0.1,6.5,1.1,9.8,0.8c3.8-0.3,7.1-2.6,10.8-3.2c2.9-0.5,5.8-0.1,8.7-0.2
	c7.5-0.4,14.4-4.5,21.9-5.2c6-0.5,11.9,1.1,17.8,1.5c1.7,0.1,3.9-0.4,3.9-2.1c0-1.2-1.2-1.9-2.2-2.5c-4.8-2.9-9.3-6.1-13.5-9.7
	c-3.9-3.1-7.9-6.3-10.7-10.5c-6.5-10.1-4.3-23.9-9.9-34.6c-4.5-8.7,0-20.1,0-29.9c0-4.9,0-9.8-1.2-14.6c-0.7-2.7-1.6-5.3-2.7-7.8
	l-3.9-9.9c-0.1-0.3-0.2-0.5-0.5-0.8c-0.3-0.2-0.6-0.3-0.9-0.3c-2.3-0.1-4.6,0.6-6.5,2.1c-1.8,1.5-3,3.6-4.8,5.2
	C780.9,216.3,778.4,217.8,775.9,216.9z"/>
<path class="st6" d="M789,211.2c0.6-2.7,1.3-5.6,3.2-7.7s5.2-3.3,7.5-1.7c2.7,1.7,2.8,5.8,5.1,8c2,1.9,5,2.1,7.7,2.3
	c4.9,0.4,9.7,1.6,14.3,3.4c0.9,0.3,1.7,0.8,2.4,1.4c1.2,1.4,1,3.6,1.6,5.4c0.8,2.3,3.2,3.7,4.1,6c1,2.5,0,5.3-0.8,7.9
	c-1.5,4.6-2.5,9.5-3.9,14.1s-3.6,9.3-7,12.8c-1.5,1.6-3.8,3-5.8,2.1l-0.8,5.5c-0.2,1.2-0.2,2.4,0,3.5c0.2,1.2,1.1,2.2,2.3,2.5
	c0.2,0.9,1.1,1.3,1.8,1.7c2.3,1.6,2.9,4.7,1.3,6.9c0,0,0,0,0,0.1c-0.6,0.9-1.6,1.5-1.9,2.5c-0.5,1.5,0.6,3,1.9,3.8s2.8,1.2,4.2,1.9
	c2.7,1.6,4.2,4.7,5.2,7.7c0.7,2.3,1.3,4.8,3,6.4c0.7,0.6,1.5,1.1,2.1,1.8c1.1,1.3,1.7,2.9,1.8,4.6c0.3,2.1-0.2,4.2-1.3,6
	c-2,2.9-5.7,3.7-9,5c-5.3,2.2-9.7,6.1-14.4,9.4c-1.9,1.5-4.2,2.6-6.5,3.1c-3.2,0.4-6.4-1-9.7-1.1c-2,0-3.9,0.3-5.8,0.8l-6,1.3
	c0.3-4.6-2.2-9.3-3.7-13.7c-2.7-8.3-3.2-17.3-2.6-26s2.4-17.4,4.2-25.9c1.2-6,1.1-12.3,3-18.1c1.8-5.6,4.3-11,5.2-16.8
	C793.2,228.5,786.9,220.5,789,211.2z"/>
<path class="st6" d="M834.5,229.7c0.6,1,0.9,2.1,1.2,3.2c0.5,1.8,1.3,3.4,2.5,4.8c1,0.9,1.9,1.9,2.7,3c0.9,1.7,0.6,3.9,1,5.8
	c0.5,2.1,2,3.9,2.2,6c0,0.6,0.1,1.2,0.2,1.8c0.7,2.4,4.2,3,5,5.4c0.5,1.6-0.4,3.3-0.2,4.9c0.1,0.5,0.2,1,0.1,1.6
	c-0.2,0.6-0.6,1.1-1.1,1.5c-3.3,3.2-5.6,7.2-6.6,11.7c-1,4.4-1.5,9-1.5,13.5l-3.9-5.2c-0.4-0.6-0.9-1.2-1.6-1.6
	c-0.5-0.3-1.1-0.5-1.6-0.8c-1.5-0.8-2.1-2.6-2.6-4.2c-1.6-4.4-4-8.5-7-12.1c-1.6-1.9-3.4-3.8-3.8-6.2c-0.1-1.1,0-2.2,0.2-3.3
	c1-6.6,2.1-13.3,5.3-19.1c1.5-2.7,3.4-5.2,4.8-7.9C830.6,230.7,831.9,225.9,834.5,229.7z"/>
<path class="st6" d="M735.8,236c0,0.8-0.2,1.7-0.6,2.4c-0.8,0.9-2,1.3-3.2,1c-1.1-0.3-2.2-0.8-3.2-1.5c-2.8-1.8-5.6-3.5-8.4-5.3
	c-1.6-0.9-3.1-2-4.5-3.1c-2.2-1.9-4.2-3.9-5.9-6.2c-4.9-6-9.2-12.5-14.6-18c-1.5-1.5-3-2.9-4.4-4.5c-1.9-2.3-3.7-4.7-5.3-7.2
	c-1.6-2.3-3.2-4.9-2.9-7.6c0.2-1.6,0.9-3,1.1-4.5s-0.4-3.4-1.9-3.9c-0.2,0-0.4-0.1-0.5-0.1c-0.3,0-0.6-0.1-0.9-0.2
	c-1.4-0.6-1.2-2.7-0.2-3.9s2.5-1.8,3.4-3c0.4-0.7,0.9-1.4,1.4-2.1c0.7-0.6,1.5-1,2.3-1.2c5.8-1.7,11.9-1.9,17.8-0.7
	c1,0.2,2.1,0.6,2.4,1.6c0.1,0.5,0.1,1,0,1.4c-0.4,2-0.7,4-0.8,6c0,0.4,0,0.8,0.1,1.3c0.5,4.2,3.2,7.8,5.9,11.1
	c3.2,3.9,6.4,7.9,9.7,11.8c1.8,2.3,3.7,4.4,5.8,6.2c2,1.7,4.6,3,6.2,5.1c1.3,1.7,0.9,4.1,1,6.1C736.2,223.4,736.2,229.7,735.8,236z"
	/>
<path class="st2" d="M862.8,277.7c1-1,1.9-2,2.7-3.1c0.8-1.4,1.5-2.9,2-4.5l5.8-16.5c0.9-2.6,1.8-5.2,3-7.7c1.2-2.7,2.6-5.4,3.9-8
	c3.4-6.9,6-14.2,7.8-21.8c0.3-1,0.4-2.1,0.3-3.2c-0.3-1.7-1.6-3.1-2.8-4.3c-1.3-1.4-2.7-2.5-4.3-3.5c-1.6-1-3.5-1.3-5.3-0.9
	c-2.6,0.8-4.2,3.4-4.8,6s-0.4,5.3-0.6,8c-0.4,3.8-1.7,7.5-2,11.4c-0.2,2.2,0,4.5-0.3,6.7c-0.5,2.9-1.5,5.7-3,8.3
	c-3.2,6.1-7.6,11.5-12.9,15.9c-1.4,1.1-2.8,2.3-3.9,3.7c-0.9,1.4-1.6,3-1.9,4.7c-0.7,2.5-0.4,5.2,0.8,7.6c1.6,2.8,4.8,4,7.8,4.6
	C859.1,281.9,860.1,280.6,862.8,277.7z"/>
<path class="st3" d="M785.3,151.4c1.8-3.3,5.3-5.2,9.1-4.9c3.8,0.7,6.8,3.4,7.9,7.1c0.5,1.5,0.7,3.1,1.5,4.4
	c1.2,1.9,3.5,2.5,5.3,3.9c2.1,1.9,3.3,4.6,3.4,7.4c0.1,2.9-0.4,5.7-1.3,8.4c-0.4,1.1-0.7,2.3-1,3.5c-0.2,1.2-0.2,2.3-0.4,3.5
	c-0.4,3-2.1,5.8-4.6,7.6c-0.4,0.3-0.8,0.4-1.2,0.5c-0.8-0.1-1.3-1-1.5-1.8c-1.6-4.6-1.2-10.2-4.1-13.9c-1.3-1.5-2.9-2.7-4.7-3.5
	c-0.7-0.5-1.6-0.8-2.4-0.9c-1.3,0.1-2.5,0.5-3.5,1.3c-2.1,1.4-4.5,2.5-6.9,3.1c-2.5,0.6-5.1,0-7.2-1.5c-1.4-1.1-2.4-2.9-3.9-3.7
	s-3.1-0.8-4.6-1.5c-3.5-1.5-5.1-5.5-3.6-9c0.2-0.5,0.5-1,0.9-1.5c1-1.2,2.5-1.9,3.4-3.2c1.2-1.7,1-4.1,1.6-6.1
	c0.7-2.6,2.6-4.8,5.1-5.8c2.5-0.8,5.2-0.3,7.1,1.5c1,0.9,1.8,2.1,2.8,3c2,1.9,4.8,2.6,7.4,2"/>
<path class="st5" d="M801.7,298.6c-1.2,1.1-1.6,2.7-1.1,4.2c0.2,0.5,10.5-1.5,11.6-1.7c2.7-0.4,7.5-0.2,9.3-2.7
	c3.3-4.4-6.8-3.4-8.7-3.3C809.4,295.5,804.4,295.9,801.7,298.6z"/>
<path class="st3" d="M707.9,169.6c-0.4,2-0.7,4-0.8,6c-3,0.6-6.1-0.4-9-1.4l-8.3-2.8c-1-0.7-2.4-0.4-3.2,0.6c-1.3,1.4-3.2,4-5,5.5
	c-0.3,0-0.6-0.1-0.9-0.2c-1.4-0.6-1.2-2.7-0.2-3.9s2.5-1.8,3.4-3c0.4-0.7,0.9-1.4,1.4-2.1c0.7-0.6,1.5-1,2.3-1.2
	c5.8-1.7,11.9-1.9,17.8-0.7c1,0.2,2.1,0.6,2.4,1.6C708,168.6,708,169.1,707.9,169.6z"/>
<path class="st5" d="M707.9,169.6c-0.4,2-0.7,4-0.8,6c-3,0.6-6.1-0.4-9-1.4l-8.3-2.8c-1-0.7-2.4-0.4-3.2,0.6c-1.3,1.4-3.2,4-5,5.5
	c-0.3,0-0.6-0.1-0.9-0.2c-1.4-0.6-1.2-2.7-0.2-3.9s2.5-1.8,3.4-3c0.4-0.7,0.9-1.4,1.4-2.1c0.7-0.6,1.5-1,2.3-1.2
	c5.8-1.7,11.9-1.9,17.8-0.7c1,0.2,2.1,0.6,2.4,1.6C708,168.6,708,169.1,707.9,169.6z"/>
<path class="st5" d="M783.5,359.4c1.4,0.5,3,1.2,3.5,2.6l-11.6-2.9l-6-1.5c-1.1-0.3-4.9-0.6-5.6-1.4c-1-1.2,2.5-0.4,3.2-0.3
	c1.9,0.3,3.9,0.6,5.8,0.9C776.5,357.4,780,358.5,783.5,359.4z"/>
<path class="st5" d="M788,369.7c-1-0.7-3.9-0.6-5.1-0.9c-1.8-0.4-3.6-1-5.3-1.5c-3.6-1.2-7.2-2.5-10.8-3.4c-0.7-0.1-3-0.2-2.9-1
	s2.3-1.2,2.9-1.2c3.3-0.2,7.3,1.3,10.4,2.4C781,365.4,784.6,367.3,788,369.7z"/>
<path class="st5" d="M780.7,350.3c-3.7-1-7-3.3-10.8-3.7c-1,0-2-0.3-2.8-0.8c-0.4-0.4-0.8-1-0.9-1.6c2.5-0.1,5.5,0.9,7.8,2
	c1.3,0.5,2.5,1.2,3.6,1.9C778.5,348.5,779.8,350,780.7,350.3z"/>
<path class="st6" d="M850.6,260.7c-1.3,8.6,3.9,16.8,12.3,19.3c-0.5,2.4-2.9,3.7-4.7,5.4c-2.4,2.4-3.7,5.9-6.6,7.7
	c-3.2,2-7.3,1.2-11,0.4c-0.3,0-0.6-0.2-0.9-0.5c-0.1-0.1-0.1-0.3-0.2-0.4c-1.2-4.4-2-9.2-0.8-13.6c1-3.8,3.4-7,5.3-10.3
	S846.3,261.8,850.6,260.7z"/>
<path class="st6" d="M761.2,203.4c-3.9,0.3-7.6,1.4-11,3.4c-2.2,1.3-4.5,3-7.1,2.7c-1.5-0.2-3-1-4.5-0.6c-0.8,0.3-1.6,0.8-2.3,1.4
	c-0.7,0.6-1.7,0.7-2.5,0.4l-1,13.8c-0.4,5.3-0.8,10.6,0.5,15.8c0.7,2.6,2.1,5,2.2,7.7s-0.1,5.4,0.1,8.1c0.2,2.5,0.7,4.9,0.9,7.4
	c0.3,4.7-0.9,9.4-2,13.9c-1.7,6.7-2.7,13.6-6,19.7c-0.9,1.7-2,3.4-2,5.3c0,0.2,0,0.5,0.1,0.7c-1,0.5-1.9,1.1-2.8,1.6
	c-1.9,1.2-3.9,2.6-4.7,4.7c-0.6,1.7-0.3,3.7-1.1,5.4s-2.5,2.9-2.9,4.7c-0.3,1.3,0.2,2.7,0,4c-0.2,0.7-0.4,1.4-0.5,2.1
	c-0.1,1.5,1.2,2.7,2.4,3.5c1.8,1.2,3.9,2.1,6,2.6l6-23.7l0,0c5.4-10.1,10-20.6,13.5-31.5c1-3.6,2.3-7,3.9-10.4
	c1.1-1.9,2.1-3.9,3-5.9c0.9-2.5,1-5.3,1.4-7.9c0.5-3.1,1.3-6.2,2.3-9.1c1.1-3.2,2.3-6.4,2.5-9.8c0.3-4.8-1.4-9.9,0.4-14.4
	c0.8-1.7,1.8-3.2,3-4.6c2.6-3.2,4.9-6.5,7.5-9.6C765.4,203.4,763.2,203.3,761.2,203.4z"/>
<g class="st8">
	<path d="M789.4,148.1l-1.2,0.1l-0.1,0.1C788.5,148.2,788.9,148.2,789.4,148.1z"/>
	<path d="M812.3,168.8c-0.2,2-0.6,3.9-1.3,5.8c-0.4,1.1-0.7,2.3-1,3.5c-0.2,1.2-0.2,2.3-0.4,3.5c-0.4,3-2.1,5.8-4.6,7.6
		c-0.4,0.3-0.8,0.4-1.2,0.5c-0.8-0.1-1.3-1-1.5-1.8c-1.6-4.6-1.2-10.2-4.1-13.9c-1.3-1.5-2.9-2.7-4.7-3.5c-0.7-0.5-1.6-0.8-2.4-0.9
		c-1.3,0.1-2.5,0.5-3.5,1.3c-2.1,1.4-4.5,2.5-6.9,3.1c-2.5,0.6-5.1,0-7.2-1.5c-1.4-1.1-2.4-2.9-3.9-3.7s-3.1-0.8-4.6-1.5
		c-1.9-0.8-3.3-2.5-3.9-4.5c0-0.1-0.1-0.3-0.1-0.4c-0.2,1.1-0.2,2.3,0.1,3.4c0.6,2,2,3.6,3.9,4.5c1.5,0.6,3.2,0.6,4.6,1.5
		s2.5,2.6,3.9,3.7c2,1.6,4.7,2.1,7.2,1.5c2.5-0.6,4.8-1.6,6.9-3.1c1-0.8,2.2-1.2,3.5-1.3c0.9,0.1,1.7,0.4,2.4,0.9
		c1.8,0.9,3.4,2.1,4.7,3.6c2.9,3.7,2.5,9.3,4.1,13.9c0.3,0.8,0.8,1.7,1.5,1.8c0.5,0,0.9-0.2,1.3-0.5c2.5-1.8,4.2-4.5,4.6-7.6
		c0.2-1.2,0.2-2.3,0.4-3.5c0.3-1.2,0.6-2.4,1-3.5c1-2.7,1.4-5.5,1.3-8.4C812.3,169.1,812.3,169,812.3,168.8z"/>
</g>
<path class="st9" d="M749,249.1l-0.7,9.1c-0.1,1.2-2.5,30.8-20,65.3c-15,29.6-44.2,68.1-99.3,89.8c-4.3,1.7-8.8,3.3-13.4,4.8
	l-5.2-16.2c13-4.1,25.4-9.5,37.2-16.3c28.1-16.2,49.9-39.4,65.2-69.2c8.1-15.9,13.8-32.8,17.1-50.3h-62.7v-17H749z"/>
<path class="st10" d="M622.3,413.3c55.1-21.7,84.3-60.2,99.3-89.8c17.5-34.5,19.9-64,20-65.3l0.7-9.1h7l-0.7,9.1
	c-0.1,1.2-2.5,30.8-20,65.3c-15,29.6-44.2,68.1-99.3,89.8c-4.3,1.7-8.8,3.3-13.4,4.8l-0.7-2.1C617.7,415,620,414.2,622.3,413.3z"/>
<path class="st9" d="M512,401.8l-5.2,16.2c-4.6-1.5-9.1-3.1-13.4-4.8c-55.1-21.7-84.3-60.2-99.3-89.8c-17.5-34.5-19.9-64-20-65.3
	l-0.7-9.1h81.7v17h-62.7c3.3,17.5,9.1,34.4,17.1,50.3c15.2,29.8,37.1,52.9,65.1,69.1C486.6,392.3,499,397.7,512,401.8z"/>
<path class="st10" d="M500.2,413.3c-55.1-21.7-84.3-60.2-99.3-89.8c-17.5-34.5-19.9-64-20-65.3l-0.7-9.1h-7l0.7,9.1
	c0.1,1.2,2.5,30.8,20,65.3c15,29.6,44.2,68.1,99.3,89.8c4.3,1.7,8.8,3.3,13.4,4.8l0.7-2.1C504.9,415,502.5,414.2,500.2,413.3z"/>
<path class="st9" d="M655.6,558.4v91.7H466.9v-91.7l6-8c61.1-21.7,73.5-78.3,76-100.7c0.4-3.1,0.6-6.2,0.6-9.3h23.3
	c0.1,3.1,0.3,6.2,0.6,9.3c2.5,22.4,14.9,79,76,100.7L655.6,558.4z"/>
<rect x="466.9" y="558.4" class="st5" width="188.7" height="11.5"/>
<path class="st10" d="M482.9,550.4c61.1-21.7,73.5-78.3,76-100.7c0.4-3.1,0.6-6.2,0.6-9.3h-10c-0.1,3.1-0.3,6.2-0.6,9.3
	c-2.5,22.4-14.9,79-76,100.7l-6,8v91.7h10v-91.7L482.9,550.4z"/>
<path class="st5" d="M438.3,249.1h16.9v17h-15.4C439.2,260.5,438.7,254.8,438.3,249.1z"/>
<path class="st5" d="M512,401.8l-5.2,16.2c-4.6-1.5-9.1-3.1-13.4-4.8c-7.1-8.6-13.3-17.9-18.7-27.7C486.6,392.3,499,397.7,512,401.8
	z"/>
<path class="st5" d="M610.5,401.8c13-4.1,25.4-9.5,37.2-16.3c-5.3,9.8-11.6,19.1-18.7,27.7c-4.3,1.7-8.8,3.3-13.4,4.8L610.5,401.8z"
	/>
<path class="st5" d="M684.2,249.1c-0.4,5.7-0.9,11.4-1.5,17h-15.4v-17H684.2z"/>
<path class="st5" d="M573.5,449.7c-8.1,1.6-16.5,1.6-24.6,0c0.4-3.1,0.6-6.2,0.6-9.3h23.3C573,443.5,573.2,446.6,573.5,449.7z"/>
<path class="st9" d="M440.3,220.9c0.4,126.1,54.4,228,121,228s120.6-101.9,121-228L440.3,220.9z"/>
<path class="st10" d="M461.8,220.9h-21.5c0.4,126.1,54.4,228,121,228c3.6,0,7.2-0.3,10.8-0.9C510.5,437.7,462.2,340.1,461.8,220.9z"
	/>
<rect x="497.1" y="593.5" class="st11" width="128.3" height="33"/>
<polygon class="st10" points="503.1,598 625.4,598 625.4,593.5 497.1,593.5 497.1,626.5 503.1,626.5 "/>
<linearGradient id="SVGID_2_" gradientUnits="userSpaceOnUse" x1="178.5825" y1="116.5454" x2="400.8467" y2="116.5454" gradientTransform="matrix(1 0 0 -1 -28 528.1498)">
	<stop  offset="0" style="stop-color:#808080;stop-opacity:0.25"/>
	<stop  offset="0.54" style="stop-color:#808080;stop-opacity:0.12"/>
	<stop  offset="1" style="stop-color:#808080;stop-opacity:0.1"/>
</linearGradient>
<path class="st12" d="M371.8,342.6c-2.3-0.8-15.9-11.5-16.9-16.4s7.2-50.2,7.2-50.2s-0.8,0-2-0.1v-0.7l1.7-59.6c0,0,6.9-40-6.2-37.7
	s-4.9,37.7-4.9,37.7s-1.5,17.9-2.5,23.3c-1,5.2-5.6,26.3-2.5,32.9c0.1,0.2,0.2,0.5,0.4,0.7l0,0c0,0,0.5,22.5-5.1,25.6
	c-5.4,2.9-7.6,17.7-7.8,19l-0.3-0.1l0,0c-1.6-1-3-2.3-4.2-3.8c-0.1-0.1-0.2-0.3-0.3-0.5c7.6-8.6,7.4-21.6-0.6-29.9
	c-1.8-1.9-3.9-3.4-6.2-4.5c-0.1-1.9-0.5-3.8-1.3-5.5c-2.6-5.6-17-12.8-27.2-13c-4.7-0.1-8.6,1.2-10,4.9c-0.7,1.9-0.5,4-0.8,5.9
	c-0.6,4-3.2,7.1-6.5,9.6c-1.3-1.5-2.8-2.9-4.3-4.1c-3.3-2.6-10-11-10-11s-20.8-21.5-22.3-27.4s-22.3-41.3-26.9-35.2
	s15.9,33.1,15.9,33.1s3.9,9.8,6.9,13.1s26,36.7,26,36.7l1.1,2.3c-4.9,2.6-9.3,5.8-10.9,10.9c-2.3,7.5,2.7,15,6.2,22
	c6.8,13.7,7.8,31.1-1,43.6c-7.8,11-21.4,16.3-34.2,20.8c6.1,4.8,13.8,7.4,21.6,7.2c-2.9,8.5-13.4,11.3-22.2,12.9
	c4.7,4.5,11.3,6.1,17.7,7.1c3.1,0.5,6.3,0.8,9.5,0.8h0.8l0.8-0.1c1.1-0.1,2.2-0.2,3.2-0.4c4.6-0.9,9.1-3.5,11.5-7.5
	c2-3.5,2.7-8.2,6.3-10c0.9-0.4,2-0.7,3-0.7h-0.1c0.7,0,1.4,0,2.1,0l15.1,0.2c0.6,0,1.3,0,1.9,0c4.3-0.1,8.8-0.8,11-4.4
	c0.9-1.7,1.4-3.6,1.4-5.5c0.3-4.8,0-9.7,0.1-14.5c1.3,8.8,2.6,22.5-0.6,27.5c-2.6,3.8-5.8,7.3-9.4,10.2c-0.9,0.8-1.7,1.6-2.5,2.5
	c-0.5,0.3-0.8,0.5-0.8,0.5l-0.3,0.9c-1.1,1.7-2,3.6-2.4,5.7c-0.2,0.5-0.2,1.1-0.2,1.6c0.4,0.7-2.5,3.6-1.7,4.9
	c-7.1,8.3-8.5,21-8.5,21l-13,19.7c-6.7,17.5-16.7,19.3-16.7,19.3s-23.5-15.8-24.1-16.5s-9.6-4.6-9.6-4.6c-1.1-1.9-2.7-3.3-4.6-4.2
	c-3.1-1.3-3.3-6-3.3-6c-0.4-11.2-6.9-12-6.9-12c-5.3-0.5-9.3,0.5-12.4,2.2l-0.9,0.1c-4.5,0.4-10,0.8-16,1.2
	c-16.7,1.1-20.7,11.9-20.7,11.9s-2.1,2.3,0.6,4.8s19.9,0,20.6-0.1c-1.3,0.1-2.6,0.1-3.9-0.3c2.7-0.1,6.4-0.2,9.6-0.2h0.8
	c-0.2,1.7-0.3,3.4-0.3,5.1c0,3.2,8.9,5.2,8.9,5.2l26.9,24c0,0,16.9,7.6,27.7,18.5s20.3,1.5,20.3,1.5c11.4-2.8,44.2-42.5,44.3-42.5
	l0,0c0,1.2,0.7,39.8,2,47.5l0,0c0.1,0.4,0.1,0.8,0.3,1.2c1.5,3.3-0.5,12.4-1.4,16.3c-0.6,3.2-0.8,6.5-0.6,9.7c0,0-12.3,47-11.3,51.1
	s-6.7,23.3-6.7,23.3v16l1.3-0.1c-0.2,0.3-0.3,0.5-0.5,0.8l-0.1,0.2c0,0,8.2,1.8,13.7,1.3s15,4.2,15,4.2s3.2,1.5,13.1,2.2
	s9.9-4.4,9.9-4.4c-1.1-6.8-16.7-9.1-17.2-9.2c-1.3-0.8-2.4-1.7-3.4-2.4l-0.2-0.2c0.1-0.1,0.1-0.3,0.2-0.5c1.7-6.8-7.6-9.8-7.6-9.8
	v-1.7c6-3.1,7.2-24.2,7.2-24.2s9-26.1,10.3-30.5s0-10.9,0-10.9l0.9-5.6c0,0,1.9-3.8,1.9-4.6c0.2-2,1-3.8,2.2-5.4
	c1.4-1.7-1.5-5.6-1.5-5.6l2.6-6.7v-7.3l6-26.5c0,0,6.3-30.9,4.1-41s2.6-15.2,2.6-15.2c-0.4,0.2-0.9,0.4-1.3,0.6
	c0.6-1.4,1.1-2.8,1.5-4.3l13.5,1.7v0.2h4.9c0,0-1.5-19-1.5-26.7s5.2-35.2,5.2-35.2S374.1,343.4,371.8,342.6z M311.9,320.4
	c0,0.8-0.1,1.5-0.1,2.3l-0.3,0.4l-0.5-0.4l-0.6,1l-0.2,0.1c-1.3-0.7-2-4.6-3-3.7l-0.1,0.1c-0.2-0.2-0.4-0.3-0.6-0.1l-0.2,0.2
	c0-0.3,0-0.6,0-0.9c1.8,0.5,3.7,0.7,5.6,0.7C311.9,320.2,311.9,320.3,311.9,320.4z M356.8,408.9h0.3l-0.5,1.3
	C356.7,409.8,356.7,409.4,356.8,408.9z M307.5,635.7l-1.8-0.5l1-0.2L307.5,635.7l0.2,0.1L307.5,635.7z M326.3,633
	c-0.6-0.3-1.2-0.7-1.8-1.1C324.7,632,325.5,632.5,326.3,633z"/>
<polygon class="st13" points="363.4,390 351.3,421.6 354.3,421.6 342.9,430.7 363.4,433.2 "/>
<polygon class="st13" points="344.4,410.2 363.4,410.2 370.4,352.9 344.4,352.9 "/>
<path class="st14" d="M307.4,366.5l4.1-0.7l9.4-1.6c0,0,28.3-6.4,34.1-6.9c3.5-0.5,7-1.5,10.2-2.9c1.5-0.7,2.5-1.2,2.5-1.2
	l-10.2-18.6l-15.8-11.7c0,0-10-2.1-14.2-8c-1.9-2.5-2.4-5.9-1.3-8.9c2.6-8-15.4,7.6-15.4,7.6s0.2,3.8,0,8.5c0,0.9-0.1,1.9-0.2,2.9
	c0,0.7-0.1,1.3-0.2,2c-0.4,4.8-1.3,9.6-3.1,12.6C303,346.8,307.4,366.5,307.4,366.5z"/>
<path class="st5" d="M310.8,322.6h0.4c0.7,0,1.3-1.5,2-1.6c5.6-0.5,10.8-1.7,14.3-5.7c-1.9-2.5-2.4-5.9-1.3-8.9
	c2.6-8-15.4,7.6-15.4,7.6S311,317.8,310.8,322.6z"/>
<path class="st14" d="M288.9,299.9c0,12.1,9.8,21.9,21.9,21.9c0,0,0,0,0,0c0.7,0,1.4,0,2.1-0.1c12-1.2,20.9-11.9,19.7-24
	s-11.9-20.9-24-19.7C297.4,279.2,288.9,288.6,288.9,299.9L288.9,299.9z"/>
<path class="st3" d="M282.2,266.7c-0.7,1.9-0.5,3.9-0.8,5.9c-1.1,7.1-8.3,11.4-14.8,14.4s-13.9,6.5-16,13.4
	c-2.3,7.4,2.7,14.9,6.2,21.9c6.7,13.6,7.7,30.9-1,43.3c-7.7,11-21.2,16.2-33.9,20.8c6.1,4.8,13.7,7.3,21.5,7.1
	c-2.9,8.5-13.3,11.3-22.1,12.8c4.6,4.5,11.3,6.1,17.6,7.1c4.6,0.7,9.4,1.2,14,0.3s9-3.4,11.4-7.5c2-3.5,2.7-8.2,6.3-10
	c1.6-0.6,3.4-0.9,5.1-0.8l15,0.2c4.7,0,10.2-0.4,12.6-4.3c0.9-1.7,1.4-3.6,1.4-5.5c0.6-9.8-1.2-20.2,2.8-29.2c1.2-2.7-6.6-7-5.8-9.9
	c2.8-9.9,3.5-17.6,3.5-27.9c0-8,5.2-14.8,9.4-21.5s7.8-15.2,4.5-22.4C315.2,266.7,286.6,255.1,282.2,266.7z"/>
<path class="st14" d="M302.1,632.8l3.8,2.5l0.6,0.4l0.1,0.1l4.5,3l10.6,1.8l9.3-0.6c0,0,2.7-5.6-1.5-5.5c-1.3-0.1-2.7-0.4-3.8-1.1
	l-0.6-0.3l0,0c-0.6-0.3-1.2-0.7-1.8-1.1l0,0c-1.2-0.8-2.4-1.7-3.4-2.4c-1.4-1.1-2.3-1.9-2.3-1.9L302.1,632.8z"/>
<path class="st5" d="M306,635.3l0.6,0.4l0.1,0.1l4.5,3l10.6,1.8l9.3-0.6c0,0,2.7-5.6-1.5-5.5c-1.3-0.1-2.7-0.4-3.8-1.1
	c0.7,0.6,1.4,1.2,1.4,1.7c0.2,1.4-6.9,4-6.9,4l-9.9-2.6c0,0-1.7-0.5-4-1.1l-0.2-0.1L306,635.3z"/>
<path class="st3" d="M289,637.8c0,0,8.1,1.8,13.6,1.3s14.9,4.2,14.9,4.2s3.2,1.5,13,2.1s9.8-4.3,9.8-4.3c-1.1-6.8-16.6-9-17.1-9.1
	l0,0l0,0l0,0c0.2,0.1,1,0.5,1.8,1.1l0,0c1.1,0.7,2.3,1.7,2.4,2.4c0.2,1.4-6.9,4-6.9,4l-9.9-2.6c0,0-1.7-0.5-4-1.1h-0.2
	c-3.4-0.9-6.9-1.7-10.4-2.1c-4.3-0.5-6.5,3.2-6.9,4C289,637.6,289,637.7,289,637.8z"/>
<path class="st14" d="M160.5,458l4.3,3.3c0,0,1.3-0.1,3.1-0.1h0.6c2.7-0.1,6.4-0.2,9.6-0.2c2-0.1,4.1,0,6.1,0.3
	c2.2,0.8,6-12.4,6-12.4l-4.3-1l-1.4-0.3l-1-0.2l-3.5-0.8l-10.7,1.2l-7.5,4.8L160.5,458z"/>
<path class="st5" d="M160.5,458l4.3,3.3c0,0,1.3-0.1,3.1-0.1c-0.9-0.3-1.6-1-2-1.8c-2.8-7.8,11.1-11.1,11.1-11.1l6.5-0.3l1.3-0.1h1
	l-1.4-0.3l-1-0.2l-3.5-0.8l-10.7,1.2l-7.5,4.8L160.5,458z"/>
<path class="st3" d="M152,461.5c2.6,2.4,19.8,0,20.5-0.1c-1.3,0.1-2.6,0.1-3.9-0.3c-1.3-0.2-2.4-1-3-2.2
	c-2.8-7.8,11.1-11.1,11.1-11.1l6.5-0.3l1.2-0.1l15.7-0.7l0.8-4.3c0,0-5.1,0.5-13.1,1.1c-4.5,0.4-10,0.8-15.9,1.2
	c-16.6,1.1-20.5,11.8-20.5,11.8S149.3,459,152,461.5z"/>
<path class="st14" d="M344.5,273.8c0.1,0.2,0.2,0.5,0.4,0.7l3.8,5.6l9.9,1l0.1-3.9l1.7-59.3c0,0,6.9-39.8-6.1-37.5
	s-4.8,37.5-4.8,37.5s-1.5,17.8-2.5,23.2C345.9,246.2,341.4,267.3,344.5,273.8z"/>
<path class="st14" d="M322.1,421l2.8,4.8l6.3,10.8c0,0,11.5,4.2,14.4,1c1.6-1.8,3.4-7.9,4.6-13c1-4.2,1.7-7.7,1.7-7.7L322.1,421z"/>
<path class="st5" d="M322.1,421l2.8,4.8c0.2-0.2,0.3-0.3,0.5-0.5c3.2-4.1,17.3-0.9,24.8-0.6c1-4.2,1.7-7.7,1.7-7.7L322.1,421z"/>
<path class="st5" d="M178.2,460.9c2-0.1,4.1,0,6.1,0.3c2.2,0.8,6-12.4,6-12.4l-5.8-1.4l15.7-0.7l0.8-4.3c0,0-5.1,0.5-13.1,1.1
	c-1.7,1-3.1,2.2-4.4,3.7l-0.2,0.3C179.9,451.7,178.6,457,178.2,460.9z"/>
<path class="st5" d="M302.1,632.8l4.4,2.9c6.6-1.2,12.6-3.1,13.3-6c0,0,0-0.1,0-0.1c-1.4-1.1-2.3-1.9-2.3-1.9L302.1,632.8z"/>
<path class="st5" d="M289.1,637.6c5.8-0.3,11.6-0.9,17.3-1.9c-3.4-0.9-6.9-1.7-10.4-2.2C291.7,633.1,289.5,636.8,289.1,637.6z"/>
<path class="st4" d="M178.6,466c0,3.2,8.8,5.2,8.8,5.2l26.8,23.8c0,0,16.8,7.5,27.5,18.3s20.1,1.5,20.1,1.5
	c11.3-2.8,44-42.3,44-42.3s0.8,45.1,2.3,48.4s-0.5,12.4-1.4,16.2c-0.6,3.2-0.8,6.4-0.6,9.7c0,0-12.2,46.8-11.2,50.8
	s-6.6,23.2-6.6,23.2v15.9c0,0,30-1.2,31.6-7.9s-7.5-9.7-7.5-9.7v-1.7c6-3.1,7.1-24.1,7.1-24.1s8.9-26,10.2-30.3s0-10.8,0-10.8
	l0.9-5.6c0,0,1.9-3.8,1.9-4.6c0.2-1.9,1-3.8,2.2-5.3c1.4-1.7-1.5-5.6-1.5-5.6l2.5-6.6v-7.3l6-26.4c0,0,6.2-30.7,4.1-40.8
	s2.5-15.2,2.5-15.2c-10.2,5.4-15.4-6.6-17.1-11.7c-0.4-1.3-0.6-2.2-0.6-2.2s-14-5.2-27.1-3.9c-2.7,0.2-5.3,0.8-7.8,1.7
	c-14.5,5.2-16.8,26.9-16.8,26.9L266,465.3c-6.6,17.5-16.6,19.2-16.6,19.2s-23.3-15.7-24-16.4s-9.6-4.6-9.6-4.6
	c-1-1.8-2.7-3.3-4.6-4.2c-3.1-1.3-3.3-6-3.3-6c-0.4-11.1-6.9-12-6.9-12C178.5,439.5,178.6,462.8,178.6,466z"/>
<rect x="308.4" y="361" class="st13" width="13.8" height="42.7"/>
<path class="st5" d="M344.4,273.7C344.4,273.7,344.4,273.7,344.4,273.7c0.1,0.3,0.2,0.6,0.4,0.8l3.8,5.6l9.9,1l0.1-3.9
	C355.6,276.9,348.5,276,344.4,273.7z"/>
<path class="st13" d="M344.8,274.4c0,0,0.5,22.4-5.1,25.5s-7.8,19-7.8,19s17,11.2,20.8,16.1s12.5,16.6,10.7,19.4s4.3,15.5,4.3,15.5
	s-11.2,22.9-8.7,31.6s2.8,31.6,2.8,31.6h4.9c0,0-1.5-18.9-1.5-26.5s5.1-34.9,5.1-34.9s2.3-26.8,0-27.5s-15.8-11.5-16.8-16.3
	s7.1-50,7.1-50S350.2,277.5,344.8,274.4z"/>
<path class="st5" d="M308.1,357c0.5,3.1,1.6,6.1,3.3,8.7l9.4-1.6c0,0,28.3-6.4,34.1-6.9c3.5-0.5,7-1.5,10.2-2.9
	c-2.2-7.9-6.6-15.1-12.6-20.8l-3.6-3.3c-5.3-4.9-11.4-8.8-18.1-11.6c0.4,0.4,30.1,25.7,23.6,30.7s-24-7.1-24-7.1l-19.9-17.1
	l-0.7-0.6l-1.1,1.8c0.6,0.2,1.2,0.5,1.7,0.8c6.8,3.7,11.8,10,14,17.4C328.5,358.3,308.1,357,308.1,357z"/>
<path class="st15" d="M302,420.7c0,0,18.9,10.5,23.4,4.6c1-1.3,3.1-1.8,5.7-2c-0.4-1.3-0.6-2.2-0.6-2.2s-14-5.2-27.1-3.9
	C302.5,419.4,302,420.7,302,420.7z"/>
<path class="st16" d="M310.7,324.5l20.6,17.7c0,0,17.4,12.1,24,7.1s-23.6-30.7-23.6-30.7l0,0c6.7,2.7,12.8,6.7,18.1,11.5l3.6,3.3
	c9.4,8.8,11.6,8.8,11.9,21.6c0.1,3.2-1,7.7-1.8,8.5c-3.1,3-5.2,24.8-4.7,27.3s-5.7,24.6-3.7,30.7s-25-3.1-29.6,2.8S302,420,302,420
	s10.5-26.8,13-28.5s5.6-15.5,0-21.9s-6.1-12.5-6.1-12.5s20.4,1.3,16.3-12.5c-2.3-8.1-8.1-14.7-15.7-18.2L310.7,324.5z"/>
<path class="st5" d="M338.2,369.6c0,0-7.9,14.9-18.1,18.8c-0.3,0.1-0.6,0.2-1,0.3C308.4,392,339,374.3,338.2,369.6z"/>
<path class="st14" d="M227.6,237.7c0,0,3.8,9.7,6.9,13s25.7,36.5,25.7,36.5l1.9,4l1.6,3.4l14.5-1.5l1-5.9l-0.6-0.7
	c-1.5-1.8-5.4-6.5-8.1-8.5c-3.3-2.5-9.9-11-9.9-11s-20.6-21.4-22.2-27.3s-22.2-41-26.8-34.9S227.6,237.7,227.6,237.7z"/>
<g class="st8">
	<path d="M269.7,395.4c-1.7-0.2-3.5,0.1-5.1,0.7c-3.6,1.8-4.3,6.5-6.3,10c-2.3,4.1-6.8,6.6-11.4,7.5c-0.9,0.2-1.8,0.3-2.8,0.4
		c2.9,0.3,5.9,0.2,8.8-0.4c4.6-0.9,9-3.4,11.4-7.5c2-3.5,2.7-8.2,6.3-10c0.9-0.4,2-0.7,3-0.7L269.7,395.4z"/>
	<path d="M305.3,318.7c0-8,5.2-14.8,9.4-21.5s7.8-15.2,4.5-22.4c-2.9-6.1-20.2-14.4-30.3-12.8c9.8,1.3,21.9,7.7,24.3,12.8
		c3.4,7.2-0.2,15.7-4.5,22.4s-9.5,13.6-9.4,21.5c0,10.3-0.7,18-3.5,27.9c-0.8,2.9,7,7.2,5.8,9.9c-4.1,9-2.2,19.4-2.8,29.2
		c0,1.9-0.5,3.8-1.4,5.5c-2,3.3-6.1,4.1-10.1,4.3h3.5c4.7,0,10.2-0.4,12.6-4.3c0.9-1.7,1.4-3.6,1.4-5.5c0.6-9.8-1.2-20.2,2.8-29.2
		c1.2-2.7-6.6-7-5.8-9.9C304.6,336.7,305.3,328.9,305.3,318.7z"/>
</g>
<path class="st5" d="M262.1,291.2l1.6,3.4l14.5-1.5l1-5.9l-0.6-0.7C277.2,287.3,265.6,292.9,262.1,291.2z"/>
<path class="st5" d="M315.8,329.5c0,0-3.6-5.6-5.6-4.1s-2.8-4.6-4-3.6s-4.6,3.9-6-0.1c-1.1-3.2-13.2-23.1-18.1-31.2
	c-1.3-2.1-2-3.4-2-3.4s-13.8,6.9-17.1,4.6v4.8l2.8,0.3l15,28c0,0,4.7,7.5,4.4,10.1s6,14.1,7.1,14.9s12,13.5,12,13.5
	s5.6,27.5,0.8,35.2s-13.2,13.2-13.2,13.2s-2.5,7.4-2.2,8.2s-2.9,4.1-1.4,5.1s3.6,8.2,3.6,8.2s7.1-11.5,11-13.2s8.8-25.2,8.8-25.2
	s1.4-13.8,1.5-22.7S312.7,329.5,315.8,329.5z"/>
<path class="st13" d="M315,329.5c0,0-3.6-5.6-5.6-4.1s-2.8-4.6-4-3.6s-4.6,3.9-6-0.1c-1.1-3.2-13.2-23.1-18.1-31.2l-2-3.4
	c0,0-13.8,6.9-17.1,4.6v4.8l2.8,0.3l15,28c0,0,4.7,7.5,4.4,10.1s6,14.1,7.1,14.9s12,13.5,12,13.5s5.6,27.5,0.8,35.2
	c-2.6,3.8-5.7,7.3-9.2,10.2c-3,2.5-5.1,5.8-6,9.6c-0.2,0.5-0.2,1.1-0.2,1.6c0.4,0.8-2.9,4.1-1.4,5.1s3.6,8.2,3.6,8.2
	s7.1-11.5,11-13.2s8.8-25.2,8.8-25.2s1.4-13.8,1.5-22.7S312,329.5,315,329.5z"/>
<path class="st5" d="M280.1,445.5c0,0,10.7,2,15,5.1s-16.3-4.8-16.3-4.8L280.1,445.5z"/>
<path class="st5" d="M305.8,472.6c0,0,11.2,9.3,9.2,17.7s-7.2,29.6-7.2,29.6L305.8,472.6z"/>
<path class="st5" d="M208.1,454.7c0,0-15.7,1.7-14.7,3.8s14.7-1.9,14.7-1.9V454.7z"/>
<path class="st5" d="M329,532.1c0,0,1,1.3-4.8,0s-1.5-5.2-1.5-5.2L329,532.1z"/>
<path class="st5" d="M327,549.7c0,0-8,1.3-12.3,0S327,549.7,327,549.7z"/>
<path class="st5" d="M310.5,618.5c0,0-1.4-1.5-8.4,1.3s-9.8,2.9-11.9,2S310.5,618.5,310.5,618.5z"/>
<path class="st5" d="M318.3,452.5l-9.9,13.8C308.4,466.4,313.7,454.3,318.3,452.5z"/>
<path class="st5" d="M299,325.4c0,0-0.4,4.6-6.8,6.4s-7.6,3.2-7.6,3.2"/>
<path class="st5" d="M282.3,292.1c0,0-8.5,6-17.3,4.7"/>
<path class="st5" d="M288.8,420.6c0,0,2.5,1.5,8.4-5.2"/>
<path class="st5" d="M350.4,348.7c0.2-1.2-0.6-2.4-1.4-3.4l-1.7-2c-0.3-0.4-0.7-0.8-1.1-1.1c-1-0.8-2.3-1-3.3-1.7"/>
<path class="st17" d="M1286,279.8c0.8,0,1.5-0.7,1.5-1.5s-0.7-1.5-1.5-1.5s-1.5,0.7-1.5,1.5S1285.2,279.8,1286,279.8z"/>
<text transform="matrix(1 0 0 1 528.7757 616.8685)" class="st18 st19 st20">WINNER</text>
</svg>
